<svg width="1392" height="254" viewBox="0 0 1392 254" fill="none" xmlns="http://www.w3.org/2000/svg">
<g clip-path="url(#clip0_136_9008)">
<path d="M1346.51 -181.697C1308.33 -168.686 1271.86 -149.31 1231.96 -143.408C1181.29 -135.91 1130.29 -150.795 1081.23 -165.513C1019.54 -184.017 957.863 -202.521 896.17 -221.026C878.742 -226.26 861.203 -231.512 843.162 -233.795C786.35 -241.015 729.649 -218.334 681.189 -187.84C632.729 -157.346 589.651 -118.816 540.82 -88.9156C432.244 -22.4337 296.273 -2.33321 173.091 -34.5719C144.378 -42.0887 116.353 -52.3153 89.7005 -65.363C57.4432 -81.139 27.2646 -101.147 0 -124.532V103.273C92.9485 92.5455 186.584 86.5135 279.811 93.325C309.544 95.4966 339.295 98.9859 369.084 97.7238C426.435 95.2739 481.391 75.359 535.308 55.6668C565.746 44.5494 596.203 33.4134 626.641 22.2959C695.703 -2.94566 765.285 -28.2986 837.836 -40.2327C984.2 -64.2865 1136.52 -31.5652 1268.89 35.3807C1302.93 52.5858 1336.12 72.1295 1372.51 83.5068C1378.95 85.5113 1385.45 87.2559 1391.98 88.7593V-194.782C1376.5 -190.921 1361.23 -186.708 1346.49 -181.678L1346.51 -181.697Z" fill="#8AC7FF"/>
<path d="M1268.91 35.3808C1136.54 -31.5651 984.218 -64.2864 837.854 -40.2326C765.284 -28.3171 695.722 -2.94556 626.66 22.296C596.221 33.4135 565.764 44.5495 535.326 55.6669C481.409 75.3591 426.453 95.274 369.103 97.7239C339.314 99.0045 309.562 95.5152 279.829 93.3251C186.602 86.4951 92.967 92.5456 0.0185547 103.273V271H1392V88.7594C1385.47 87.256 1378.97 85.53 1372.53 83.5069C1336.13 72.1297 1302.95 52.5859 1268.91 35.3808Z" fill="#65A9FF"/>
<path d="M371.275 7.76359C353.438 25.5998 353.438 54.5162 371.275 72.3524L435.863 7.76359C418.027 -10.0726 389.111 -10.0726 371.275 7.76359Z" fill="#E4FFFD" fill-opacity="0.22"/>
<path d="M435.863 7.76355L371.274 72.3523C389.111 90.1885 418.027 90.1885 435.863 72.3523C453.699 54.5162 453.699 25.5997 435.863 7.76355Z" fill="#E60058" fill-opacity="0.1"/>
<path d="M382.04 18.5098C370.143 30.4067 370.143 49.6906 382.04 61.569L425.099 18.5098C413.202 6.6128 393.918 6.6128 382.04 18.5098Z" fill="#E4FFFD"/>
<path d="M425.098 18.5097L382.039 61.569C393.936 73.4659 413.22 73.4659 425.098 61.569C436.977 49.672 436.995 30.3881 425.098 18.5097Z" fill="#E60058"/>
<path d="M1025.22 -5.02429L1006.4 13.7956C1004.47 15.7258 1004.47 18.8624 1006.4 20.7927C1008.33 22.7229 1011.46 22.7229 1013.39 20.7927L1018.42 15.7629C1020.35 13.8327 1023.49 13.8327 1025.42 15.7629C1027.35 17.6932 1027.35 20.8298 1025.42 22.76L1005.73 42.4522C1003.8 44.3824 1003.8 47.5191 1005.73 49.4493C1007.66 51.3796 1010.8 51.3796 1012.73 49.4493L1046.19 15.9856C1051.98 10.1949 1051.98 0.785006 1046.19 -5.00571C1040.4 -10.7964 1030.99 -10.7964 1025.2 -5.00571L1025.22 -5.02429Z" fill="#3300F1"/>
<path d="M1035.46 16.431C1041.38 16.431 1046.17 11.6364 1046.17 5.72194C1046.17 -0.192541 1041.38 -4.98721 1035.46 -4.98721C1029.55 -4.98721 1024.75 -0.192541 1024.75 5.72194C1024.75 11.6364 1029.55 16.431 1035.46 16.431Z" fill="white"/>
<path d="M101.096 147.613L82.276 166.433C80.3458 168.363 80.3458 171.5 82.276 173.43C84.2062 175.36 87.3429 175.36 89.2731 173.43L94.3029 168.4C96.2331 166.47 99.3698 166.47 101.3 168.4C103.23 170.331 103.23 173.467 101.3 175.397L81.6078 195.09C79.6776 197.02 79.6776 200.156 81.6078 202.087C83.5381 204.017 86.6747 204.017 88.605 202.087L122.069 168.623C127.859 162.832 127.859 153.422 122.069 147.632C116.278 141.841 106.868 141.841 101.077 147.632L101.096 147.613Z" fill="#3300F1"/>
<path d="M111.341 169.068C117.255 169.068 122.05 164.274 122.05 158.359C122.05 152.445 117.255 147.65 111.341 147.65C105.426 147.65 100.632 152.445 100.632 158.359C100.632 164.274 105.426 169.068 111.341 169.068Z" fill="white"/>
<path d="M520.441 180.334L501.621 199.154C499.69 201.085 499.69 204.221 501.621 206.151C503.551 208.082 506.688 208.082 508.618 206.151L513.648 201.122C515.578 199.191 518.714 199.191 520.645 201.122C522.575 203.052 522.575 206.188 520.645 208.119L500.953 227.811C499.022 229.741 499.022 232.878 500.953 234.808C502.883 236.738 506.019 236.738 507.95 234.808L541.413 201.344C547.204 195.554 547.204 186.144 541.413 180.353C535.623 174.562 526.213 174.562 520.422 180.353L520.441 180.334Z" fill="#3300F1"/>
<path d="M530.704 201.79C536.619 201.79 541.413 196.995 541.413 191.081C541.413 185.166 536.619 180.372 530.704 180.372C524.79 180.372 519.995 185.166 519.995 191.081C519.995 196.995 524.79 201.79 530.704 201.79Z" fill="white"/>
<path opacity="0.25" d="M167.455 90.6983C169.492 82.0371 164.121 73.365 155.46 71.3288C146.799 69.2925 138.127 74.6631 136.09 83.3243C134.054 91.9855 139.425 100.658 148.086 102.694C156.747 104.73 165.419 99.3595 167.455 90.6983Z" fill="white"/>
<path opacity="0.25" d="M683.194 87.0518C683.194 89.279 681.393 91.0793 679.166 91.0793C676.939 91.0793 675.139 89.279 675.139 87.0518C675.139 84.8246 676.939 83.0243 679.166 83.0243C681.393 83.0243 683.194 84.8246 683.194 87.0518Z" fill="white"/>
<path opacity="0.25" d="M1347.25 107.301C1347.25 109.528 1345.45 111.328 1343.22 111.328C1341 111.328 1339.2 109.528 1339.2 107.301C1339.2 105.074 1341 103.273 1343.22 103.273C1345.45 103.273 1347.25 105.074 1347.25 107.301Z" fill="white"/>
<path opacity="0.25" d="M155.347 20.4586C157.571 20.4586 159.374 18.6554 159.374 16.4311C159.374 14.2067 157.571 12.4036 155.347 12.4036C153.123 12.4036 151.319 14.2067 151.319 16.4311C151.319 18.6554 153.123 20.4586 155.347 20.4586Z" fill="white"/>
<path opacity="0.25" d="M603.924 191.081C603.924 193.308 602.124 195.108 599.897 195.108C597.669 195.108 595.869 193.308 595.869 191.081C595.869 188.853 597.669 187.053 599.897 187.053C602.124 187.053 603.924 188.853 603.924 191.081Z" fill="white"/>
<path opacity="0.25" d="M289.722 177.588C289.722 179.815 287.922 181.615 285.695 181.615C283.467 181.615 281.667 179.815 281.667 177.588C281.667 175.36 283.467 173.56 285.695 173.56C287.922 173.56 289.722 175.36 289.722 177.588Z" fill="white"/>
<path opacity="0.25" d="M1061.46 184.399C1063.69 184.399 1065.49 182.596 1065.49 180.372C1065.49 178.147 1063.69 176.344 1061.46 176.344C1059.24 176.344 1057.44 178.147 1057.44 180.372C1057.44 182.596 1059.24 184.399 1061.46 184.399Z" fill="white"/>
<path opacity="0.25" d="M1323.48 13.5357C1325.7 13.5357 1327.5 11.7325 1327.5 9.50814C1327.5 7.2838 1325.7 5.48065 1323.48 5.48065C1321.25 5.48065 1319.45 7.2838 1319.45 9.50814C1319.45 11.7325 1321.25 13.5357 1323.48 13.5357Z" fill="white"/>
<path opacity="0.25" d="M953.464 121.536C955.688 121.536 957.492 119.733 957.492 117.509C957.492 115.284 955.688 113.481 953.464 113.481C951.24 113.481 949.437 115.284 949.437 117.509C949.437 119.733 951.24 121.536 953.464 121.536Z" fill="white"/>
<path opacity="0.25" d="M770.927 158.359C770.927 160.587 769.127 162.387 766.9 162.387C764.672 162.387 762.872 160.587 762.872 158.359C762.872 156.132 764.672 154.332 766.9 154.332C769.127 154.332 770.927 156.132 770.927 158.359Z" fill="white"/>
<path opacity="0.25" d="M1017.5 103.273C1017.5 105.5 1015.7 107.301 1013.47 107.301C1011.24 107.301 1009.44 105.5 1009.44 103.273C1009.44 101.046 1011.24 99.2457 1013.47 99.2457C1015.7 99.2457 1017.5 101.046 1017.5 103.273Z" fill="white"/>
<path opacity="0.25" d="M1038.47 101.659C1038.47 106.113 1034.87 109.714 1030.41 109.714C1025.96 109.714 1022.36 106.113 1022.36 101.659C1022.36 97.2041 1025.96 93.6035 1030.41 93.6035C1034.87 93.6035 1038.47 97.2041 1038.47 101.659Z" fill="white"/>
<path opacity="0.25" d="M979.987 72.3337C979.987 76.7881 976.386 80.3888 971.932 80.3888C967.478 80.3888 963.877 76.7881 963.877 72.3337C963.877 67.8793 967.478 64.2787 971.932 64.2787C976.386 64.2787 979.987 67.8793 979.987 72.3337Z" fill="white"/>
<path opacity="0.25" d="M543.567 107.486C543.567 110.493 541.135 112.924 538.128 112.924C535.122 112.924 532.69 110.493 532.69 107.486C532.69 104.48 535.122 102.048 538.128 102.048C541.135 102.048 543.567 104.48 543.567 107.486Z" fill="white"/>
<path d="M1099.74 -19.9094L1102.78 -6.30497L1116.37 -3.27968L1102.78 -0.23587L1099.74 13.3686L1096.69 -0.23587L1083.11 -3.27968L1096.69 -6.30497L1099.74 -19.9094Z" fill="white"/>
<path d="M1090.25 137.702L1093.29 151.288L1106.88 154.332L1093.29 157.376L1090.25 170.962L1087.21 157.376L1073.62 154.332L1087.21 151.288L1090.25 137.702Z" fill="white"/>
<path d="M1335.71 195.609L1338.75 209.214L1352.34 212.239L1338.75 215.283L1335.71 228.869L1332.66 215.283L1319.08 212.239L1332.66 209.214L1335.71 195.609Z" fill="white"/>
<path d="M90.3876 17.7117L93.4314 31.2976L107.017 34.3414L93.4314 37.3667L90.3876 50.9712L87.3437 37.3667L73.7578 34.3414L87.3437 31.2976L90.3876 17.7117Z" fill="white"/>
<path d="M553.181 4.664L554.703 11.4755L561.496 12.9789L554.703 14.5008L553.181 21.2937L551.659 14.5008L544.866 12.9789L551.659 11.4755L553.181 4.664Z" fill="white"/>
<path d="M65.0346 -14.4156L66.538 -7.62268L73.3495 -6.10075L66.538 -4.57887L65.0346 2.21409L63.5127 -4.57887L56.7197 -6.10075L63.5127 -7.62268L65.0346 -14.4156Z" fill="white"/>
<path d="M962.559 12.9789L964.081 19.7904L970.874 21.2937L964.081 22.8157L962.559 29.6272L961.037 22.8157L954.244 21.2937L961.037 19.7904L962.559 12.9789Z" fill="white"/>
<path d="M892.439 154.072L893.961 160.865L900.754 162.387L893.961 163.909L892.439 170.702L890.917 163.909L884.124 162.387L890.917 160.865L892.439 154.072Z" fill="white"/>
<path d="M383.375 176.084L384.897 182.877L391.69 184.399L384.897 185.921L383.375 192.714L381.854 185.921L375.061 184.399L381.854 182.877L383.375 176.084Z" fill="white"/>
<path d="M762.872 18.9553L764.393 25.7482L771.186 27.2701L764.393 28.792L762.872 35.585L761.35 28.792L754.557 27.2701L761.35 25.7482L762.872 18.9553Z" fill="white"/>
<path d="M358.357 141.655L360.398 150.843L369.604 152.903L360.398 154.963L358.357 164.15L356.297 154.963L347.091 152.903L356.297 150.843L358.357 141.655Z" fill="#3300F1"/>
<path d="M503.217 9.50818L505.277 18.6954L514.464 20.7556L505.277 22.8157L503.217 32.0215L501.157 22.8157L491.97 20.7556L501.157 18.6954L503.217 9.50818Z" fill="#E81E79"/>
<path d="M284.859 35.288L286.381 42.0809L293.174 43.6028L286.381 45.1247L284.859 51.9177L283.337 45.1247L276.544 43.6028L283.337 42.0809L284.859 35.288Z" fill="#E81E79"/>
</g>
<defs>
<clipPath id="clip0_136_9008">
<rect width="1392" height="928" fill="white" transform="translate(0 -657)"/>
</clipPath>
</defs>
</svg>
