<svg width="1392" height="254" viewBox="0 0 1392 254" fill="none" xmlns="http://www.w3.org/2000/svg">
<g clip-path="url(#clip0_136_9563)">
<path d="M1232.07 -151.84C1146.27 -117.022 1056.86 -78.1572 964.805 -88.0868C870.798 -98.2391 789.468 -157.872 697.856 -181.239C569.978 -213.831 435.9 -173.333 311.195 -130.162C210.136 -95.1952 105.458 -57.7597 0 -55.4397V85.4678C27.2646 108.853 57.4246 128.842 89.7005 144.637C116.353 157.685 144.378 167.911 173.091 175.428C296.255 207.667 432.225 187.585 540.82 121.084C589.651 91.1842 632.729 52.6537 681.189 22.1596C729.649 -8.33446 786.35 -31.0148 843.162 -23.7949C861.221 -21.4935 878.742 -16.241 896.17 -11.0257C957.863 7.47867 1019.54 25.983 1081.23 44.4873C1130.29 59.2054 1181.29 74.072 1231.96 66.5923C1271.86 60.6902 1308.33 41.3321 1346.51 28.303C1361.26 23.2732 1376.52 19.0601 1392 15.1996V-199.966C1337.56 -192.468 1283.35 -172.665 1232.07 -151.859V-151.84Z" fill="#69ABFF"/>
<path d="M1346.51 28.303C1308.33 41.3135 1271.86 60.6902 1231.96 66.5923C1181.29 74.0905 1130.29 59.2054 1081.23 44.4873C1019.54 25.983 957.863 7.47865 896.17 -11.0257C878.742 -16.2596 861.203 -21.5121 843.162 -23.7949C786.35 -31.0148 729.649 -8.33446 681.189 22.1596C632.729 52.6537 589.651 91.1842 540.82 121.084C432.244 187.566 296.273 207.667 173.091 175.428C144.378 167.911 116.353 157.685 89.7005 144.637C57.4432 128.861 27.2646 108.853 0 85.4678V313.273C92.9485 302.546 186.584 296.514 279.811 303.325C309.544 305.497 339.295 308.986 369.084 307.724C426.435 305.274 481.391 285.359 535.308 265.667C565.746 254.549 596.203 243.413 626.641 232.296C695.703 207.054 765.285 181.701 837.836 169.767C984.2 145.714 1136.52 178.435 1268.89 245.381C1302.93 262.586 1336.12 282.13 1372.51 293.507C1378.95 295.511 1385.45 297.256 1391.98 298.759V15.2182C1376.5 19.0786 1361.23 23.2918 1346.49 28.3215L1346.51 28.303Z" fill="#8AC7FF"/>
<path d="M1268.91 245.381C1136.54 178.435 984.218 145.714 837.854 169.767C765.284 181.683 695.722 207.054 626.66 232.296C596.221 243.413 565.764 254.549 535.326 265.667C481.409 285.359 426.453 305.274 369.103 307.724C339.314 309.005 309.562 305.515 279.829 303.325C186.602 296.495 92.967 302.546 0.0185547 313.273V481H1392V298.759C1385.47 297.256 1378.97 295.53 1372.53 293.507C1336.13 282.13 1302.95 262.586 1268.91 245.381Z" fill="#65A9FF"/>
<path d="M371.275 217.764C353.438 235.6 353.438 264.516 371.275 282.352L435.863 217.764C418.027 199.927 389.111 199.927 371.275 217.764Z" fill="#E4FFFD" fill-opacity="0.22"/>
<path d="M435.863 217.764L371.274 282.352C389.111 300.188 418.027 300.188 435.863 282.352C453.699 264.516 453.699 235.6 435.863 217.764Z" fill="#E60058" fill-opacity="0.1"/>
<path d="M382.04 228.51C370.143 240.407 370.143 259.691 382.04 271.569L425.099 228.51C413.202 216.613 393.918 216.613 382.04 228.51Z" fill="#E4FFFD"/>
<path d="M425.098 228.51L382.039 271.569C393.936 283.466 413.22 283.466 425.098 271.569C436.977 259.672 436.995 240.388 425.098 228.51Z" fill="#E60058"/>
<path d="M1025.22 204.976L1006.4 223.796C1004.47 225.726 1004.47 228.862 1006.4 230.793C1008.33 232.723 1011.46 232.723 1013.39 230.793L1018.42 225.763C1020.35 223.833 1023.49 223.833 1025.42 225.763C1027.35 227.693 1027.35 230.83 1025.42 232.76L1005.73 252.452C1003.8 254.382 1003.8 257.519 1005.73 259.449C1007.66 261.38 1010.8 261.38 1012.73 259.449L1046.19 225.986C1051.98 220.195 1051.98 210.785 1046.19 204.994C1040.4 199.204 1030.99 199.204 1025.2 204.994L1025.22 204.976Z" fill="#3300F1"/>
<path d="M1035.46 226.431C1041.38 226.431 1046.17 221.636 1046.17 215.722C1046.17 209.807 1041.38 205.013 1035.46 205.013C1029.55 205.013 1024.75 209.807 1024.75 215.722C1024.75 221.636 1029.55 226.431 1035.46 226.431Z" fill="white"/>
<path opacity="0.25" d="M83.6116 43.8592C85.6478 35.1979 80.2772 26.5259 71.616 24.4897C62.9548 22.4534 54.2828 27.824 52.2465 36.4852C50.2103 45.1464 55.5809 53.8184 64.2421 55.8547C72.9033 57.8909 81.5753 52.5204 83.6116 43.8592Z" fill="white"/>
<path opacity="0.25" d="M735.508 43.8452C737.544 35.1839 732.174 26.5119 723.512 24.4757C714.851 22.4394 706.179 27.81 704.143 36.4712C702.107 45.1324 707.477 53.8044 716.139 55.8407C724.8 57.8769 733.472 52.5064 735.508 43.8452Z" fill="white"/>
<path opacity="0.25" d="M1319.43 161.861C1319.43 166.315 1315.83 169.916 1311.38 169.916C1306.92 169.916 1303.32 166.315 1303.32 161.861C1303.32 157.406 1306.92 153.806 1311.38 153.806C1315.83 153.806 1319.43 157.406 1319.43 161.861Z" fill="white"/>
<path opacity="0.25" d="M137.529 93.8755C137.529 98.3299 133.928 101.931 129.474 101.931C125.02 101.931 121.419 98.3299 121.419 93.8755C121.419 89.4211 125.02 85.8204 129.474 85.8204C133.928 85.8204 137.529 89.4211 137.529 93.8755Z" fill="white"/>
<path opacity="0.25" d="M940.75 28.1546C945.199 28.1546 948.805 24.5482 948.805 20.0995C948.805 15.6509 945.199 12.0445 940.75 12.0445C936.302 12.0445 932.695 15.6509 932.695 20.0995C932.695 24.5482 936.302 28.1546 940.75 28.1546Z" fill="white"/>
<path opacity="0.25" d="M1331.53 102.19C1331.53 106.645 1327.93 110.245 1323.48 110.245C1319.02 110.245 1315.42 106.645 1315.42 102.19C1315.42 97.736 1319.02 94.1354 1323.48 94.1354C1327.93 94.1354 1331.53 97.736 1331.53 102.19Z" fill="white"/>
<path opacity="0.25" d="M663.316 101.931C663.316 104.158 661.515 105.958 659.288 105.958C657.061 105.958 655.261 104.158 655.261 101.931C655.261 99.7034 657.061 97.903 659.288 97.903C661.515 97.903 663.316 99.7034 663.316 101.931Z" fill="white"/>
<path opacity="0.25" d="M155.347 230.459C157.571 230.459 159.374 228.655 159.374 226.431C159.374 224.207 157.571 222.404 155.347 222.404C153.123 222.404 151.319 224.207 151.319 226.431C151.319 228.655 153.123 230.459 155.347 230.459Z" fill="white"/>
<path opacity="0.25" d="M159.374 176.523C161.599 176.523 163.402 174.72 163.402 172.496C163.402 170.271 161.599 168.468 159.374 168.468C157.15 168.468 155.347 170.271 155.347 172.496C155.347 174.72 157.15 176.523 159.374 176.523Z" fill="white"/>
<path opacity="0.25" d="M1038.02 105.958C1038.02 108.185 1036.22 109.986 1034 109.986C1031.77 109.986 1029.97 108.185 1029.97 105.958C1029.97 103.731 1031.77 101.931 1034 101.931C1036.22 101.931 1038.02 103.731 1038.02 105.958Z" fill="white"/>
<path opacity="0.25" d="M1323.48 223.536C1325.7 223.536 1327.5 221.732 1327.5 219.508C1327.5 217.284 1325.7 215.481 1323.48 215.481C1321.25 215.481 1319.45 217.284 1319.45 219.508C1319.45 221.732 1321.25 223.536 1323.48 223.536Z" fill="white"/>
<path opacity="0.25" d="M269.844 36.0611C269.844 38.2883 268.044 40.0886 265.817 40.0886C263.589 40.0886 261.789 38.2883 261.789 36.0611C261.789 33.8339 263.589 32.0336 265.817 32.0336C268.044 32.0336 269.844 33.8339 269.844 36.0611Z" fill="white"/>
<path opacity="0.25" d="M387.625 135.543C387.625 137.77 385.825 139.57 383.598 139.57C381.371 139.57 379.57 137.77 379.57 135.543C379.57 133.315 381.371 131.515 383.598 131.515C385.825 131.515 387.625 133.315 387.625 135.543Z" fill="white"/>
<path opacity="0.25" d="M1107.79 127.488C1107.79 131.942 1104.19 135.543 1099.74 135.543C1095.28 135.543 1091.68 131.942 1091.68 127.488C1091.68 123.033 1095.28 119.433 1099.74 119.433C1104.19 119.433 1107.79 123.033 1107.79 127.488Z" fill="white"/>
<path opacity="0.25" d="M325.375 -5.43905C325.375 -0.984647 321.774 2.61599 317.32 2.61599C312.865 2.61599 309.265 -0.984647 309.265 -5.43905C309.265 -9.89345 312.865 -13.4941 317.32 -13.4941C321.774 -13.4941 325.375 -9.89345 325.375 -5.43905Z" fill="white"/>
<path opacity="0.25" d="M499.877 101.931C499.877 106.385 496.276 109.986 491.822 109.986C487.367 109.986 483.767 106.385 483.767 101.931C483.767 97.4762 487.367 93.8755 491.822 93.8755C496.276 93.8755 499.877 97.4762 499.877 101.931Z" fill="white"/>
<path d="M1099.74 190.091L1102.78 203.695L1116.37 206.72L1102.78 209.764L1099.74 223.369L1096.69 209.764L1083.11 206.72L1096.69 203.695L1099.74 190.091Z" fill="white"/>
<path d="M90.3876 227.712L93.4314 241.298L107.017 244.341L93.4314 247.367L90.3876 260.971L87.3437 247.367L73.7578 244.341L87.3437 241.298L90.3876 227.712Z" fill="white"/>
<path d="M553.181 214.664L554.703 221.476L561.496 222.979L554.703 224.501L553.181 231.294L551.659 224.501L544.866 222.979L551.659 221.476L553.181 214.664Z" fill="white"/>
<path d="M65.0346 195.584L66.538 202.377L73.3495 203.899L66.538 205.421L65.0346 212.214L63.5127 205.421L56.7197 203.899L63.5127 202.377L65.0346 195.584Z" fill="white"/>
<path d="M962.559 222.979L964.081 229.79L970.874 231.294L964.081 232.816L962.559 239.627L961.037 232.816L954.244 231.294L961.037 229.79L962.559 222.979Z" fill="white"/>
<path d="M762.872 228.955L764.393 235.748L771.186 237.27L764.393 238.792L762.872 245.585L761.35 238.792L754.557 237.27L761.35 235.748L762.872 228.955Z" fill="white"/>
<path d="M837.724 85.5607L839.227 92.3536L846.039 93.8756L839.227 95.3974L837.724 102.19L836.202 95.3974L829.409 93.8756L836.202 92.3536L837.724 85.5607Z" fill="white"/>
<path d="M561.496 184.411L563.017 191.204L569.81 192.726L563.017 194.248L561.496 201.041L559.974 194.248L553.181 192.726L559.974 191.204L561.496 184.411Z" fill="white"/>
<path d="M1207.38 127.228L1208.91 134.021L1215.7 135.543L1208.91 137.065L1207.38 143.858L1205.86 137.065L1199.07 135.543L1205.86 134.021L1207.38 127.228Z" fill="#E81E79"/>
<path d="M952.295 112.732L954.355 121.938L963.561 123.998L954.355 126.04L952.295 135.246L950.254 126.04L941.048 123.998L950.254 121.938L952.295 112.732Z" fill="#3300F1"/>
<path d="M1076.42 171.104L1078.48 180.291L1087.67 182.351L1078.48 184.411L1076.42 193.598L1074.36 184.411L1065.18 182.351L1074.36 180.291L1076.42 171.104Z" fill="#3300F1"/>
<path d="M173.722 44.8957L175.782 54.0829L184.988 56.143L175.782 58.2032L173.722 67.3904L171.68 58.2032L162.475 56.143L171.68 54.0829L173.722 44.8957Z" fill="#3300F1"/>
<path d="M503.217 219.508L505.277 228.695L514.464 230.756L505.277 232.816L503.217 242.021L501.157 232.816L491.97 230.756L501.157 228.695L503.217 219.508Z" fill="#E81E79"/>
<path d="M333.115 176.616L334.637 183.409L341.43 184.931L334.637 186.453L333.115 193.246L331.593 186.453L324.8 184.931L331.593 183.409L333.115 176.616Z" fill="#E81E79"/>
<path d="M284.859 245.288L286.381 252.081L293.174 253.603L286.381 255.125L284.859 261.918L283.337 255.125L276.544 253.603L283.337 252.081L284.859 245.288Z" fill="#E81E79"/>
<path d="M276.489 79.0833L278.011 85.8762L284.804 87.3981L278.011 88.92L276.489 95.713L274.967 88.92L268.174 87.3981L274.967 85.8762L276.489 79.0833Z" fill="white"/>
</g>
<defs>
<clipPath id="clip0_136_9563">
<rect width="1392" height="928" fill="white" transform="translate(0 -447)"/>
</clipPath>
</defs>
</svg>
