<svg width="160" height="160" viewBox="0 0 160 160" fill="none" xmlns="http://www.w3.org/2000/svg">
<circle cx="80" cy="80" r="79.5" fill="white" stroke="url(#paint0_linear_23_77)"/>
<g clip-path="url(#clip0_23_77)">
<path d="M110.194 112.017H44.7741C42.6901 112.017 41 110.327 41 108.242V61.6943H113.968V108.242C113.968 110.327 112.278 112.017 110.194 112.017Z" fill="#E2F1FF"/>
<path d="M47.2901 109.5C45.2061 109.5 43.5161 107.811 43.5161 105.726V54.377C42.0533 54.8971 41 56.2789 41 57.9201V108.242C41 110.327 42.6901 112.016 44.7741 112.016H110.193C111.834 112.016 113.234 110.963 113.754 109.5H47.2901Z" fill="#DAEDFF"/>
<path d="M110.194 54.146H44.7741C42.6901 54.146 41 55.8355 41 57.9201V64.2102H113.968V57.9201C113.968 55.8355 112.278 54.146 110.194 54.146Z" fill="#002481"/>
<path d="M46.0446 60.4365C45.349 60.4365 44.7806 59.8729 44.7806 59.1784C44.7806 58.4834 45.3371 57.9204 46.0321 57.9204H46.0446C46.7403 57.9204 47.3026 58.4834 47.3026 59.1784C47.3026 59.8729 46.7397 60.4365 46.0446 60.4365Z" fill="#FF3280"/>
<path d="M53.5809 60.4365C52.8852 60.4365 52.3163 59.8729 52.3163 59.1784C52.3163 58.4834 52.8733 57.9204 53.5684 57.9204H53.5809C54.2765 57.9204 54.8389 58.4834 54.8389 59.1784C54.8389 59.8729 54.2759 60.4365 53.5809 60.4365Z" fill="#4BEB87"/>
<path d="M49.8187 60.4365C49.123 60.4365 48.5547 59.8729 48.5547 59.1784C48.5547 58.4834 49.1111 57.9204 49.8068 57.9204H49.8187C50.5143 57.9204 51.0767 58.4834 51.0767 59.1784C51.0767 59.8729 50.5143 60.4365 49.8187 60.4365Z" fill="#FFD600"/>
<path d="M96.3549 60.4365H58.6129C57.9173 60.4365 57.3549 59.8729 57.3549 59.1784C57.3549 58.4834 57.9179 57.9204 58.6129 57.9204H96.3549C97.0506 57.9204 97.6129 58.4834 97.6129 59.1784C97.6129 59.8729 97.05 60.4365 96.3549 60.4365Z" fill="#ECEAEC"/>
<path d="M43.5161 54.3604C42.0533 54.8799 41 56.2789 41 57.9202V64.2103H43.5161V54.3604Z" fill="#001963"/>
<path d="M106.419 100.694H48.5482C47.8537 100.694 47.2902 100.131 47.2902 99.4361V80.5652C47.2902 79.8701 47.8537 79.3071 48.5482 79.3071H106.419C107.114 79.3071 107.677 79.8701 107.677 80.5652V99.4361C107.678 100.131 107.114 100.694 106.419 100.694Z" fill="#E60058"/>
<path d="M117.922 48.9339C116.459 47.4706 114.078 47.5003 112.652 48.9994L80.5594 82.7382L84.1174 86.2962L117.856 54.2041C119.355 52.7776 119.385 50.3967 117.922 48.9339Z" fill="#F9D05E"/>
<path d="M117.922 48.9339C116.459 47.4706 114.078 47.5003 112.652 48.9994L80.5594 82.7382L82.4958 84.6746C82.4958 84.6746 117.976 48.9875 117.922 48.9339Z" fill="#FFD600"/>
<path d="M81.0944 83.0058C80.0602 82.9487 79.0062 83.3146 78.216 84.1055C76.9318 85.3891 75.6481 89.4536 75.0328 91.6162C74.8561 92.2363 75.422 92.8028 76.0427 92.6261C78.2053 92.0107 82.2061 90.642 83.4903 89.3578C84.174 88.674 84.3936 87.6689 84.443 86.7739L81.0944 83.0058Z" fill="#B60046"/>
<path d="M80 75.5332H48.5482C47.8531 75.5332 47.2902 74.9703 47.2902 74.2752C47.2902 73.5796 47.8531 73.0166 48.5482 73.0166H80C80.6957 73.0166 81.2581 73.5796 81.2581 74.2752C81.2581 74.9703 80.6957 75.5332 80 75.5332Z" fill="#002481"/>
<path d="M85.0321 70.5004H48.5482C47.8531 70.5004 47.2902 69.9381 47.2902 69.2424C47.2902 68.5473 47.8531 67.9844 48.5482 67.9844H85.0321C85.7278 67.9844 86.2902 68.5473 86.2902 69.2424C86.2902 69.9381 85.7278 70.5004 85.0321 70.5004Z" fill="#E60058"/>
<path d="M86.2902 106.984H68.6772C67.9821 106.984 67.4192 106.421 67.4192 105.726C67.4192 105.031 67.9821 104.468 68.6772 104.468H86.2902C86.9858 104.468 87.5482 105.031 87.5482 105.726C87.5482 106.421 86.9858 106.984 86.2902 106.984Z" fill="#002481"/>
<path d="M63.6451 106.984H48.5482C47.8531 106.984 47.2902 106.421 47.2902 105.726C47.2902 105.031 47.8531 104.468 48.5482 104.468H63.6451C64.3408 104.468 64.9031 105.031 64.9031 105.726C64.9031 106.421 64.3408 106.984 63.6451 106.984Z" fill="#002481"/>
<path d="M106.419 106.984H91.3222C90.6272 106.984 90.0642 106.421 90.0642 105.726C90.0642 105.031 90.6272 104.468 91.3222 104.468H106.419C107.115 104.468 107.677 105.031 107.677 105.726C107.677 106.421 107.115 106.984 106.419 106.984Z" fill="#002481"/>
<path d="M62.3871 98.1781C55.4388 98.1781 49.8062 92.5456 49.8062 85.5973V79.3071H48.5482C47.8537 79.3071 47.2902 79.8701 47.2902 80.5652V99.4361C47.2902 100.131 47.8537 100.694 48.5482 100.694H106.419C107.114 100.694 107.677 100.131 107.677 99.4361V98.1781H62.3871Z" fill="#FF3280"/>
<path d="M84.1174 86.296L96.8834 74.1532L92.7023 69.9727L80.7689 82.5279L84.1174 86.296Z" fill="#DAD8DB"/>
<path d="M94.9101 72.1805L92.7023 69.9727L80.7695 82.5279L82.591 84.5786C83.3361 83.8288 88.633 78.5003 94.9101 72.1805Z" fill="#C8C5C9"/>
<path d="M87.7648 84.0853C87.4428 84.0853 87.1209 83.9622 86.8751 83.7164L83.1391 79.9804C82.6476 79.4889 82.6476 78.6932 83.1391 78.2017C83.6307 77.7101 84.4269 77.7101 84.9178 78.2017L88.6538 81.9377C89.1454 82.4292 89.1454 83.2254 88.6538 83.7164C88.4087 83.9622 88.0867 84.0853 87.7648 84.0853Z" fill="#C8C5C9"/>
<path d="M84.9178 78.2017C84.4263 77.7101 83.6301 77.7101 83.1391 78.2017C82.6476 78.6932 82.6476 79.4889 83.1391 79.9804L85.1565 81.9978C85.6825 81.4687 86.2812 80.8659 86.9298 80.2131L84.9178 78.2017Z" fill="#B6B1B7"/>
</g>
<defs>
<linearGradient id="paint0_linear_23_77" x1="-7.95087e-07" y1="14.5986" x2="162.413" y2="21.202" gradientUnits="userSpaceOnUse">
<stop stop-color="white"/>
<stop offset="1" stop-color="#F5FAFF"/>
</linearGradient>
<clipPath id="clip0_23_77">
<rect width="78" height="78" fill="white" transform="translate(41 41)"/>
</clipPath>
</defs>
</svg>
