<svg width="160" height="160" viewBox="0 0 160 160" fill="none" xmlns="http://www.w3.org/2000/svg">
<circle cx="80" cy="80" r="79.5" fill="white" stroke="url(#paint0_linear_23_83)"/>
<path d="M75.9059 75.8516L76.71 76.9961L78.0546 77.4093C78.4164 77.5159 78.6247 77.9032 78.5141 78.2645C78.4886 78.3453 78.4461 78.4263 78.3992 78.49L77.5567 79.6041L77.5822 81.0128C77.5864 81.3958 77.2843 81.7065 76.9058 81.7107C76.8206 81.7148 76.7274 81.6978 76.6507 81.672L75.3359 81.2168L74.0044 81.6761C73.643 81.7992 73.2515 81.6083 73.1279 81.247C73.094 81.1531 73.0856 81.0508 73.094 80.9569L73.1199 79.6043L72.2689 78.4815C72.0391 78.1751 72.0984 77.7458 72.4048 77.5159C72.4857 77.4558 72.5752 77.4136 72.6647 77.3919L73.9661 76.9961L74.7746 75.8441C74.9916 75.5333 75.4213 75.4569 75.7319 75.6736C75.804 75.7245 75.8639 75.7836 75.9059 75.8516Z" fill="#FFD600"/>
<path d="M89.1587 72.9467L90.3413 74.635L92.3321 75.2432C92.8684 75.4049 93.1703 75.9712 93.0088 76.5116C92.9746 76.626 92.9109 76.7456 92.8387 76.8428L91.5965 78.4942L91.6304 80.5738C91.6388 81.1358 91.192 81.5953 90.6306 81.6082C90.5071 81.6082 90.3712 81.5823 90.2563 81.5447L88.3163 80.8761L86.3462 81.5532C85.8144 81.7354 85.232 81.455 85.0487 80.9231C85.0021 80.7787 84.9849 80.6297 85.0021 80.4894L85.0361 78.4939L83.7811 76.8263C83.4407 76.3796 83.5297 75.7412 83.981 75.4005C84.0998 75.3119 84.2319 75.2515 84.3679 75.2224L86.2868 74.6348L87.4824 72.9295C87.8055 72.4697 88.4353 72.3546 88.8948 72.6781C89.0013 72.7504 89.0904 72.8442 89.1587 72.9467Z" fill="#FFD600"/>
<path d="M106.044 70.2232L107.572 72.4062L110.141 73.1884C110.835 73.402 111.226 74.1332 111.018 74.827C110.971 74.976 110.89 75.1334 110.797 75.2561L109.193 77.3876L109.239 80.0765C109.248 80.8002 108.674 81.3958 107.946 81.4087C107.785 81.4087 107.61 81.3784 107.461 81.3278L104.955 80.4639L102.411 81.3398C101.726 81.5781 100.977 81.2082 100.739 80.5231C100.675 80.3365 100.658 80.149 100.675 79.9655L100.722 77.3876L99.1011 75.2389C98.6628 74.6565 98.7775 73.8355 99.3562 73.3975C99.5093 73.2822 99.6795 73.2015 99.8582 73.1635L102.339 72.4062L103.883 70.2027C104.295 69.6062 105.112 69.4617 105.708 69.8792C105.844 69.973 105.959 70.0915 106.044 70.2232Z" fill="#FFD600"/>
<path fill-rule="evenodd" clip-rule="evenodd" d="M103.428 87.1688V115.184C103.428 117.286 101.709 119 99.6115 119H96.1016L93.7063 118.566L91.5199 119H84.6531L77.3867 118.004L69.3885 119H62.5176L60.165 118.604L57.9398 119H54.4256C52.3281 119 50.6095 117.286 50.6095 115.184V87.1688C50.6095 86.5098 51.1497 85.9692 51.8135 85.9692H57.9397L60.22 86.718L62.5174 85.9692H69.3883L77.6845 87.1859L84.6531 85.9692H91.5199L93.8212 86.5864L96.1015 85.9692H102.228C102.887 85.9692 103.428 86.5096 103.428 87.1688Z" fill="#E60058"/>
<path fill-rule="evenodd" clip-rule="evenodd" d="M103.428 87.1688V115.184C103.428 117.286 101.709 119 99.6115 119H96.1017L93.7064 118.566L91.5199 119H84.6532L77.3867 118.004L69.3885 119H62.5176L60.165 118.604L57.9399 119H54.4256C52.3496 119 50.6478 117.319 50.6136 115.247H95.1743C97.6504 115.247 99.6755 113.222 99.6755 110.746V85.9692H102.228C102.887 85.9692 103.428 86.5096 103.428 87.1688Z" fill="#FF3280"/>
<path fill-rule="evenodd" clip-rule="evenodd" d="M69.3885 85.9692H84.6534V119H69.3885V85.9692Z" fill="#E2F1FF"/>
<path fill-rule="evenodd" clip-rule="evenodd" d="M91.5199 85.9692H96.1015V119H91.5199V85.9692Z" fill="#4BEB87"/>
<path fill-rule="evenodd" clip-rule="evenodd" d="M57.9398 85.9692H62.5176V119H57.9398V85.9692Z" fill="#4BEB87"/>
<path fill-rule="evenodd" clip-rule="evenodd" d="M101.317 62.7438L100.071 58.0941C99.5264 56.0687 97.4249 54.852 95.3956 55.3967L92.0053 56.3051L90.0183 57.1977L87.5846 57.4899L80.9476 59.2683L74.0719 61.6443L66.2018 63.2198L59.57 64.9971L57.5295 66.1397L55.1453 66.1829L51.7541 67.0916C49.7249 67.632 48.5125 69.7386 49.0569 71.7631L50.2992 76.4131C50.5076 77.1878 51.0395 77.4596 51.7713 77.2642L57.6891 75.6776L59.8078 74.6097L62.1138 74.4899L68.7462 72.7124L76.2978 69.7127L83.4919 68.7636L90.1289 66.9859L92.188 65.9267L94.5491 65.7982L100.467 64.2159C101.173 64.025 101.543 63.5862 101.317 62.7438Z" fill="#E60058"/>
<path fill-rule="evenodd" clip-rule="evenodd" d="M101.318 62.7438L100.071 58.0941C99.5264 56.0687 97.425 54.852 95.3956 55.3967L95.2041 55.4474C95.2253 55.507 95.2425 55.5714 95.2593 55.6307L96.506 60.2808C96.7313 61.1231 96.3613 61.5611 95.655 61.7523L49.6736 74.0739L50.299 76.4133C50.5074 77.1879 51.0392 77.4597 51.7711 77.2644L57.6888 75.6777L59.8075 74.6098L62.1135 74.4901L68.746 72.7125L76.2975 69.7129L83.4916 68.7638L90.1286 66.9861L92.1877 65.9268L94.5489 65.7984L100.467 64.216C101.173 64.025 101.543 63.5862 101.318 62.7438Z" fill="#FF3280"/>
<path fill-rule="evenodd" clip-rule="evenodd" d="M55.1394 66.1909L59.5648 65.0044L62.111 74.501L57.6856 75.6876L55.1394 66.1909Z" fill="#4BEB87"/>
<path fill-rule="evenodd" clip-rule="evenodd" d="M68.7459 72.7126L83.4916 68.7637L80.9474 59.2681L66.2018 63.2202L68.7459 72.7126Z" fill="#E2F1FF"/>
<path fill-rule="evenodd" clip-rule="evenodd" d="M87.6014 57.4702L92.0227 56.2802L94.5786 65.7766L90.1574 66.9666L87.6014 57.4702Z" fill="#4BEB87"/>
<path d="M91.6985 51.2107L77.7272 58.1745C77.1695 58.4518 76.4932 58.2263 76.2166 57.6686C76.0552 57.3409 76.0677 56.9707 76.2166 56.6687L83.181 42.6979C84.1808 40.6982 86.0615 40.6431 88.0014 41.6131C88.9246 42.0724 89.8648 42.791 90.69 43.6248C91.5114 44.4549 92.2217 45.4078 92.6856 46.3395C93.6724 48.3179 93.6471 50.2368 91.6985 51.2107ZM79.7308 54.661L90.6943 49.1935C91.2092 48.9391 91.0901 48.1859 90.6688 47.3395C90.3113 46.6156 89.7455 45.8627 89.0904 45.1992C88.4394 44.5394 87.7038 43.9782 86.9972 43.6246C86.1974 43.2253 85.4742 43.1446 85.1978 43.697L79.7308 54.661ZM52.7284 59.3707L64.9597 58.6221L54.7405 51.8571C54.2216 51.5172 53.6344 51.9507 53.1409 52.695C52.7069 53.3553 52.3539 54.2098 52.1156 55.108C51.8815 56.014 51.7666 56.9457 51.8178 57.7539C51.873 58.6943 52.154 59.4044 52.7284 59.3707ZM68.4438 60.6597L52.86 61.6122C50.6903 61.7448 49.7075 60.0934 49.5758 57.8855C49.5118 56.8478 49.6522 55.6688 49.946 54.546C50.2394 53.4101 50.6988 52.3164 51.2689 51.4578C52.4647 49.6489 54.1194 48.756 55.9788 49.9854L68.9929 58.6008C69.2819 58.7875 69.4778 59.1023 69.4993 59.4725C69.5333 60.0934 69.0608 60.6253 68.4438 60.6597Z" fill="#FFD600"/>
<path fill-rule="evenodd" clip-rule="evenodd" d="M69.6012 55.2609L74.0259 54.0732C75.2425 53.7504 76.5019 54.4777 76.8293 55.6944L77.9996 60.0598L69.1504 62.4297L67.9845 58.0643C67.657 56.8475 68.3844 55.5835 69.6012 55.2609Z" fill="#DAEDFF"/>
<path fill-rule="evenodd" clip-rule="evenodd" d="M77.0206 108.938C82.641 108.938 87.2269 106.041 87.2269 102.485C87.2269 98.9328 82.6409 96.0312 77.0206 96.0312C71.3965 96.0312 66.8143 98.9328 66.8143 102.485C66.8143 106.041 71.3965 108.938 77.0206 108.938Z" fill="#F9D05E"/>
<path fill-rule="evenodd" clip-rule="evenodd" d="M83.2451 97.3706C85.6655 98.5536 87.2269 100.404 87.2269 102.484C87.2269 106.049 82.6578 108.938 77.0206 108.938C72.1198 108.938 68.0311 106.756 67.0398 103.846C68.763 104.688 70.9241 105.186 73.2685 105.186C78.9055 105.186 83.4748 102.297 83.4748 98.7318C83.4748 98.2639 83.3939 97.8086 83.2451 97.3706Z" fill="#FFD600"/>
<path d="M72.0135 103.612C71.3923 103.612 70.8901 103.106 70.8901 102.485C70.8901 101.863 71.3923 101.362 72.0135 101.362H82.0239C82.6451 101.362 83.1512 101.863 83.1512 102.485C83.1512 103.106 82.6453 103.612 82.0239 103.612H72.0135Z" fill="#E2F1FF"/>
<path fill-rule="evenodd" clip-rule="evenodd" d="M57.6888 75.6781L62.1135 74.4904L61.1731 70.9893L56.7528 72.1768L57.6888 75.6781Z" fill="#1DAC77"/>
<path fill-rule="evenodd" clip-rule="evenodd" d="M67.8101 69.2157L68.7459 72.7128L83.4916 68.7639L82.5559 65.2627L67.8101 69.2157Z" fill="#DAEDFF"/>
<path fill-rule="evenodd" clip-rule="evenodd" d="M89.1885 63.4849L90.1286 66.9862L94.5488 65.7985L93.6131 62.2974L89.1885 63.4849Z" fill="#1DAC77"/>
<path fill-rule="evenodd" clip-rule="evenodd" d="M95.1746 115.247H91.5201V119H96.1017V115.154C95.7996 115.218 95.4892 115.247 95.1746 115.247Z" fill="#1DAC77"/>
<path fill-rule="evenodd" clip-rule="evenodd" d="M57.9398 115.248H62.5176V119H57.9398V115.248Z" fill="#1DAC77"/>
<path fill-rule="evenodd" clip-rule="evenodd" d="M69.3885 115.248H84.6534V119H69.3885V115.248Z" fill="#DAEDFF"/>
<defs>
<linearGradient id="paint0_linear_23_83" x1="-7.95087e-07" y1="14.5986" x2="162.413" y2="21.202" gradientUnits="userSpaceOnUse">
<stop stop-color="white"/>
<stop offset="1" stop-color="#F5FAFF"/>
</linearGradient>
</defs>
</svg>
