<svg width="120" height="120" viewBox="0 0 120 120" fill="none" xmlns="http://www.w3.org/2000/svg">
<g clip-path="url(#clip0_354_5485)">
<path d="M120 60.5861C120 54.1101 117.069 48.0388 111.95 42.8118C108.388 39.1748 105.422 35.0083 103.158 30.4483C95.9182 15.8662 83.5748 6.26172 69.5634 6.26172C59.6065 6.26172 50.4926 11.1128 43.4534 19.153C38.794 24.475 32.9109 28.5573 26.347 31.1931C10.4473 37.578 0 48.3595 0 60.5861C0 72.8127 10.4473 83.5942 26.347 89.9791C32.9109 92.6148 38.794 96.6972 43.4536 102.019C50.4928 110.059 59.6067 114.91 69.5637 114.91C83.5751 114.91 95.9184 105.306 103.158 90.7239C105.422 86.1639 108.388 81.9974 111.95 78.3604C117.069 73.1334 120 67.0621 120 60.5861Z" fill="url(#paint0_linear_354_5485)"/>
<path opacity="0.1" d="M99.8852 77.3398C97.4683 77.3398 95.5092 79.2989 95.5092 81.7158V77.498C95.5092 75.0811 93.55 73.122 91.1332 73.122C90.63 73.122 90.1488 73.211 89.6988 73.3673V13.2656C89.6988 10.4051 87.3796 8.08594 84.5191 8.08594H39.5826C36.7218 8.08594 34.4029 10.4051 34.4029 13.2656V101.32C34.4029 104.181 36.7218 106.5 39.5826 106.5H61.0708C62.9053 113.135 68.9814 118.008 76.2 118.008H88.5621C97.2325 118.008 104.261 110.979 104.261 102.308V81.7158C104.261 79.2989 102.302 77.3398 99.8852 77.3398Z" fill="#002481"/>
<path d="M92.6161 28.843H87.5731V13.1641H92.6161C93.5072 13.1641 94.2295 13.8864 94.2295 14.7775V27.2298C94.2295 28.1207 93.5072 28.843 92.6161 28.843Z" fill="#6C6CFF"/>
<path d="M30.7475 44.9765H36.5286V13.1641H30.7475C29.8564 13.1641 29.8723 13.8864 29.8723 14.7775V43.3633C29.8723 44.2541 29.8566 44.9765 30.7475 44.9765Z" fill="#6C6CFF"/>
<path d="M84.5191 101.578H39.5826C36.7221 101.578 34.4029 99.259 34.4029 96.3984V8.34375C34.4029 5.4832 36.7218 3.16406 39.5826 3.16406H84.5191C87.3796 3.16406 89.6988 5.48297 89.6988 8.34375V96.3984C89.6988 99.259 87.3796 101.578 84.5191 101.578Z" fill="#FF9D33"/>
<path d="M34.4029 15.3782H89.6988V89.3636H34.4029V15.3782Z" fill="white"/>
<path d="M83.6993 89.3636H40.4025V71.6809C40.4025 71.0338 40.9271 70.5093 41.5742 70.5093H82.5279C83.175 70.5093 83.6996 71.0338 83.6996 71.6809V89.3636H83.6993Z" fill="#EBEBFF"/>
<path d="M66.7981 10.4282H57.3035C56.6564 10.4282 56.1319 9.90371 56.1319 9.2566C56.1319 8.60949 56.6564 8.08496 57.3035 8.08496H66.7981C67.4452 8.08496 67.9697 8.60949 67.9697 9.2566C67.9697 9.90371 67.4452 10.4282 66.7981 10.4282Z" fill="#E0450D"/>
<path d="M57.2864 93.8452V96.8134C57.2864 97.4605 57.811 97.985 58.4581 97.985H65.6438C66.2909 97.985 66.8154 97.4605 66.8154 96.8134V93.8452C66.8154 93.1981 66.2909 92.6736 65.6438 92.6736H58.4581C57.811 92.6738 57.2864 93.1984 57.2864 93.8452Z" fill="#E0450D"/>
<path d="M80.5643 96.5012H76.6934C76.0463 96.5012 75.5217 95.9767 75.5217 95.3296C75.5217 94.6825 76.0463 94.158 76.6934 94.158H80.5643C81.2114 94.158 81.7359 94.6825 81.7359 95.3296C81.7359 95.9767 81.2114 96.5012 80.5643 96.5012Z" fill="#E0450D"/>
<path d="M47.4082 96.5012H43.5372C42.8901 96.5012 42.3656 95.9767 42.3656 95.3296C42.3656 94.6825 42.8901 94.158 43.5372 94.158H47.4082C48.0553 94.158 48.5798 94.6825 48.5798 95.3296C48.5798 95.9767 48.0553 96.5012 47.4082 96.5012Z" fill="#E0450D"/>
<path d="M82.5276 56.0401H41.5738C40.9267 56.0401 40.4022 55.5156 40.4022 54.8684V37.2207C40.4022 36.5736 40.9267 36.0491 41.5738 36.0491H82.5276C83.1747 36.0491 83.6992 36.5736 83.6992 37.2207V54.8684C83.6992 55.5156 83.1747 56.0401 82.5276 56.0401Z" fill="#E0450D"/>
<path d="M49.4756 51.6284C48.8285 51.6284 48.3038 51.1036 48.3038 50.4565V41.6321C48.3038 40.985 48.8285 40.4602 49.4756 40.4602C50.1228 40.4602 50.6475 40.985 50.6475 41.6321V50.4565C50.6475 51.1036 50.1228 51.6284 49.4756 51.6284Z" fill="white"/>
<path d="M52.2619 46.5108H49.4756C48.8285 46.5108 48.3038 45.9861 48.3038 45.339V41.6321C48.3038 40.985 48.8285 40.4602 49.4756 40.4602H52.2619C53.9302 40.4602 55.2872 41.8175 55.2872 43.4855C55.2874 45.1536 53.9302 46.5108 52.2619 46.5108ZM50.6475 44.1671H52.2619C52.6378 44.1671 52.9435 43.8612 52.9435 43.4855C52.9435 43.1098 52.6376 42.804 52.2619 42.804H50.6475V44.1671Z" fill="white"/>
<path d="M52.6456 51.6283H49.4759C48.8288 51.6283 48.304 51.1036 48.304 50.4565V45.3333C48.304 44.6861 48.8288 44.1614 49.4759 44.1614H52.6456C54.7043 44.1614 56.3792 45.8362 56.3792 47.895C56.3792 49.9537 54.7041 51.6283 52.6456 51.6283ZM50.6475 49.2846H52.6453C53.4117 49.2846 54.0352 48.6611 54.0352 47.8947C54.0352 47.1283 53.4117 46.5049 52.6453 46.5049H50.6475V49.2846Z" fill="white"/>
<path d="M63.0062 51.6284H60.9137C59.2642 51.6284 57.9224 50.2864 57.9224 48.6371V41.6321C57.9224 40.985 58.4471 40.4602 59.0942 40.4602C59.7413 40.4602 60.2661 40.985 60.2661 41.6321V48.6371C60.2661 48.994 60.5565 49.2847 60.9137 49.2847H63.0062C63.3631 49.2847 63.6538 48.994 63.6538 48.6371V41.6321C63.6538 40.985 64.1783 40.4602 64.8256 40.4602C65.473 40.4602 65.9975 40.985 65.9975 41.6321V48.6371C65.9975 50.2864 64.6555 51.6284 63.0062 51.6284Z" fill="white"/>
<path d="M72.8065 46.17H70.714C69.0647 46.17 67.7227 44.828 67.7227 43.1787V41.6321C67.7227 40.985 68.2472 40.4602 68.8946 40.4602C69.5419 40.4602 70.0665 40.985 70.0665 41.6321V43.1787C70.0665 43.5357 70.3569 43.8263 70.714 43.8263H72.8065C73.1635 43.8263 73.4544 43.5357 73.4544 43.1787V41.6321C73.4544 40.985 73.9789 40.4602 74.6262 40.4602C75.2736 40.4602 75.7981 40.985 75.7981 41.6321V43.1787C75.7979 44.828 74.4561 46.17 72.8065 46.17Z" fill="white"/>
<path d="M71.7603 51.6285C71.113 51.6285 70.5884 51.1038 70.5884 50.4567V44.9983C70.5884 44.3512 71.113 43.8264 71.7603 43.8264C72.4077 43.8264 72.9322 44.3512 72.9322 44.9983V50.4567C72.9322 51.1038 72.4074 51.6285 71.7603 51.6285Z" fill="white"/>
<path d="M99.8852 72.4179C97.4684 72.4179 95.5092 74.377 95.5092 76.7939V72.5761C95.5092 70.1592 93.5501 68.2001 91.1332 68.2001C88.7163 68.2001 86.7572 70.1592 86.7572 72.5761V69.7643C86.7572 67.3474 84.7981 65.3883 82.3812 65.3883C79.9643 65.3883 78.0052 67.3474 78.0052 69.7643V54.274C78.0052 51.8571 76.046 49.8979 73.6291 49.8979C71.2123 49.8979 69.2531 51.8571 69.2531 54.274V81.5533C69.2531 79.1365 67.294 77.1773 64.8771 77.1773C62.4602 77.1773 60.5011 79.1365 60.5011 81.5533V97.3865C60.5011 106.057 67.53 113.086 76.2005 113.086H88.5626C97.233 113.086 104.262 106.057 104.262 97.3865V76.7939C104.261 74.377 102.302 72.4179 99.8852 72.4179Z" fill="#FFD6BB"/>
<path d="M78.0047 57.7605H75.1224C73.601 57.7605 72.3635 56.523 72.3635 55.0017V54.1868C72.3635 53.5397 72.8881 53.0149 73.5354 53.0149C74.1827 53.0149 74.7073 53.5397 74.7073 54.1868V55.0017C74.7073 55.2307 74.8936 55.4168 75.1224 55.4168H78.0047C78.652 55.4168 79.1766 55.9415 79.1766 56.5886C79.1766 57.2358 78.652 57.7605 78.0047 57.7605Z" fill="#FFF3EE"/>
<path d="M78.0047 64.3804H75.1755C74.5282 64.3804 74.0037 63.8556 74.0037 63.2085C74.0037 62.5614 74.5282 62.0366 75.1755 62.0366H78.0047C78.652 62.0366 79.1766 62.5614 79.1766 63.2085C79.1766 63.8556 78.652 64.3804 78.0047 64.3804Z" fill="#FFAB66"/>
<path d="M78.0047 74.6604H75.1755C74.5282 74.6604 74.0037 74.1356 74.0037 73.4885C74.0037 72.8414 74.5282 72.3167 75.1755 72.3167H78.0047C78.652 72.3167 79.1766 72.8414 79.1766 73.4885C79.1766 74.1359 78.652 74.6604 78.0047 74.6604Z" fill="#FFAB66"/>
<path d="M86.7569 75.3635H83.9278C83.2805 75.3635 82.7559 74.8388 82.7559 74.1917C82.7559 73.5445 83.2805 73.0198 83.9278 73.0198H86.7569C87.4043 73.0198 87.9288 73.5445 87.9288 74.1917C87.9288 74.8388 87.4043 75.3635 86.7569 75.3635Z" fill="#FFAB66"/>
<path d="M95.5092 76.7693H92.6801C92.0327 76.7693 91.5082 76.2445 91.5082 75.5974C91.5082 74.9503 92.0327 74.4255 92.6801 74.4255H95.5092C96.1565 74.4255 96.6811 74.9503 96.6811 75.5974C96.6811 76.2445 96.1565 76.7693 95.5092 76.7693Z" fill="#FFAB66"/>
<path d="M104.262 78.8779H101.432C100.785 78.8779 100.26 78.3532 100.26 77.7061C100.26 77.0589 100.785 76.5342 101.432 76.5342H104.262C104.909 76.5342 105.433 77.0589 105.433 77.7061C105.433 78.3532 104.909 78.8779 104.262 78.8779Z" fill="#FFAB66"/>
<path d="M63.1472 89.999H60.5004C59.8533 89.999 59.3285 89.4743 59.3285 88.8271C59.3285 88.18 59.8533 87.6553 60.5004 87.6553H63.1472C63.7945 87.6553 64.319 88.18 64.319 88.8271C64.319 89.4743 63.7943 89.999 63.1472 89.999Z" fill="#FFAB66"/>
<path d="M63.3829 85.0655H60.5004C59.8533 85.0655 59.3285 84.5407 59.3285 83.8936C59.3285 83.2465 59.8533 82.7217 60.5004 82.7217H63.3829C63.6119 82.7217 63.798 82.5356 63.798 82.3066V81.4917C63.798 80.8446 64.3226 80.3198 64.9699 80.3198C65.6172 80.3198 66.1418 80.8446 66.1418 81.4917V82.3066C66.1418 83.8279 64.9043 85.0655 63.3829 85.0655Z" fill="#FFF3EE"/>
<path d="M57.0392 66.8159H41.5742C40.9271 66.8159 40.4025 66.2914 40.4025 65.6443C40.4025 64.9972 40.9271 64.4727 41.5742 64.4727H57.0392C57.6863 64.4727 58.2108 64.9972 58.2108 65.6443C58.2108 66.2914 57.6863 66.8159 57.0392 66.8159Z" fill="#FFAB66"/>
<path d="M50.0096 62.0767H41.5742C40.9271 62.0767 40.4025 61.5521 40.4025 60.905C40.4025 60.2579 40.9271 59.7334 41.5742 59.7334H50.0096C50.6567 59.7334 51.1812 60.2579 51.1812 60.905C51.1812 61.5521 50.6567 62.0767 50.0096 62.0767Z" fill="#FFAB66"/>
<path d="M99.8852 71.246C98.6889 71.246 97.5799 71.6266 96.6728 72.273C96.5149 69.3544 94.0903 67.0284 91.1329 67.0284C89.8417 67.0284 88.6521 67.4719 87.7085 68.2144C87.0363 65.9072 84.9023 64.2166 82.3811 64.2166C81.1884 64.2166 80.0824 64.5949 79.1767 65.2378V54.2742C79.1767 51.2152 76.6879 48.7263 73.6289 48.7263C70.5696 48.7263 68.0807 51.2152 68.0807 54.2742V77.0269C67.1753 76.384 66.0691 76.0057 64.8766 76.0057C61.8173 76.0057 59.3285 78.4945 59.3285 81.5536V97.387C59.3285 98.418 59.4264 99.4261 59.6046 100.406H39.5826C37.3727 100.406 35.5748 98.6086 35.5748 96.3987V90.5358H52.7343C53.3814 90.5358 53.9062 90.011 53.9062 89.3639C53.9062 88.7168 53.3814 88.192 52.7343 88.192H35.5748V16.5502H88.5269V60.5859C88.5269 61.233 89.0514 61.7578 89.6988 61.7578C90.3461 61.7578 90.8706 61.233 90.8706 60.5859V30.015H92.616C94.1519 30.015 95.4013 28.7655 95.4013 27.2297V14.7773C95.4013 13.2415 94.1519 11.992 92.616 11.992H90.8706V8.34375C90.8706 4.84148 88.0213 1.99219 84.5191 1.99219H39.5826C36.0803 1.99219 33.231 4.84148 33.231 8.34375V11.992H30.7476C29.8624 11.992 29.1848 12.432 28.8883 13.1993C28.7001 13.6866 28.7003 14.2179 28.7006 14.7319V43.4086C28.7006 43.9226 28.7003 44.4539 28.8883 44.9412C29.1848 45.7083 29.8624 46.1484 30.7476 46.1484H33.231V96.3984C33.231 99.9007 36.0803 102.75 39.5826 102.75H60.2076C62.4541 109.431 68.7719 114.258 76.1999 114.258H88.5621C97.8649 114.258 105.433 106.69 105.433 97.3868V76.7941C105.433 73.7348 102.944 71.246 99.8852 71.246ZM92.616 14.336C92.8596 14.336 93.0576 14.5341 93.0576 14.7776V27.2299C93.0576 27.4734 92.8596 27.6715 92.616 27.6715H90.8706V14.336H92.616ZM39.5826 4.33594H84.5191C86.729 4.33594 88.5269 6.13383 88.5269 8.34375V14.2064H35.5748V8.34375C35.5748 6.13383 37.3727 4.33594 39.5826 4.33594ZM31.0481 43.8047C31.0439 43.6734 31.0439 14.467 31.0481 14.336H33.2308V27.9764C32.7869 28.1433 32.4693 28.5682 32.4693 29.0702C32.4693 29.5723 32.7869 29.9974 33.2308 30.1641V43.8047H31.0481ZM103.09 97.3866C103.09 105.397 96.5725 111.914 88.5621 111.914H76.1999C68.1892 111.914 61.6724 105.397 61.6724 97.3866V81.5531C61.6724 79.7864 63.1099 78.349 64.8768 78.349C66.6435 78.349 68.081 79.7864 68.081 81.5531V89.2547C68.081 89.9018 68.6055 90.4266 69.2528 90.4266C69.9002 90.4266 70.4247 89.9018 70.4247 89.2547V54.274C70.4247 52.507 71.8621 51.0698 73.6291 51.0698C75.3958 51.0698 76.8332 52.5073 76.8332 54.274V69.7643V81.492C76.8332 82.1391 77.3578 82.6638 78.0051 82.6638C78.6524 82.6638 79.177 82.1391 79.177 81.492V69.7643C79.177 67.9976 80.6144 66.5602 82.3813 66.5602C84.1481 66.5602 85.5855 67.9976 85.5855 69.7643V81.492C85.5855 82.1391 86.11 82.6638 86.7574 82.6638C87.4047 82.6638 87.9292 82.1391 87.9292 81.492V72.5763C87.9292 70.8094 89.3667 69.3722 91.1334 69.3722C92.9003 69.3722 94.3378 70.8096 94.3378 72.5763V81.4922C94.3378 82.1393 94.8623 82.6641 95.5096 82.6641C96.157 82.6641 96.6815 82.1393 96.6815 81.4922V76.7944C96.6815 75.0274 98.1189 73.5902 99.8856 73.5902C101.653 73.5902 103.09 75.0277 103.09 76.7944V97.3866H103.09Z" fill="#002481"/>
<path d="M41.4223 20.8779L40.0552 22.2448C39.5975 22.7025 39.5975 23.4443 40.0552 23.9021C40.2842 24.131 40.584 24.2454 40.884 24.2454C41.1837 24.2454 41.4837 24.131 41.7125 23.9023L42.2508 23.3639L42.789 23.9023C43.2467 24.3598 43.9885 24.3598 44.4462 23.9023C44.904 23.4446 44.904 22.7025 44.4462 22.245L43.0794 20.8782C42.6221 20.4207 41.8801 20.4204 41.4223 20.8779Z" fill="#002481"/>
<path d="M79.2731 28.3208C77.1265 28.3208 75.3801 26.5745 75.3801 24.4279C75.3801 22.2812 77.1265 20.5349 79.2731 20.5349C81.4197 20.5349 83.1661 22.2812 83.1661 24.4279C83.1661 26.5745 81.42 28.3208 79.2731 28.3208ZM79.2731 22.8787C78.4188 22.8787 77.7239 23.5736 77.7239 24.4279C77.7239 25.2822 78.419 25.9771 79.2731 25.9771C80.1272 25.9771 80.8223 25.2822 80.8223 24.4279C80.8223 23.5736 80.1274 22.8787 79.2731 22.8787Z" fill="#FFAB66"/>
<path d="M81.9944 31.0419C81.3471 31.0419 80.8226 30.5171 80.8226 29.87C80.8226 29.0157 80.1274 28.3208 79.2733 28.3208C78.4193 28.3208 77.7241 29.0157 77.7241 29.87C77.7241 30.5171 77.1996 31.0419 76.5522 31.0419C75.9049 31.0419 75.3804 30.5171 75.3804 29.87C75.3804 27.7234 77.1267 25.9771 79.2733 25.9771C81.42 25.9771 83.1663 27.7234 83.1663 29.87C83.1663 30.5171 82.6415 31.0419 81.9944 31.0419Z" fill="#FFAB66"/>
<path d="M71.6578 31.0418H68.7288C68.0817 31.0418 67.5572 30.5172 67.5572 29.8701C67.5572 29.223 68.0817 28.6985 68.7288 28.6985H71.6578C72.3049 28.6985 72.8295 29.223 72.8295 29.8701C72.8295 30.5172 72.3049 31.0418 71.6578 31.0418Z" fill="#D9D9FF"/>
<path d="M71.6578 27.0054H68.7288C68.0817 27.0054 67.5572 26.4809 67.5572 25.8338C67.5572 25.1866 68.0817 24.6621 68.7288 24.6621H71.6578C72.3049 24.6621 72.8295 25.1866 72.8295 25.8338C72.8295 26.4809 72.3049 27.0054 71.6578 27.0054Z" fill="#D9D9FF"/>
<path d="M103.776 63.2488C103.476 63.2488 103.176 63.1344 102.947 62.9057L101.432 61.3907L99.9169 62.9057C99.4596 63.3632 98.7171 63.3632 98.2599 62.9057C97.8021 62.4479 97.8021 61.7059 98.2599 61.2484L100.604 58.9046C101.061 58.4471 101.803 58.4471 102.261 58.9046L104.604 61.2484C105.062 61.7061 105.062 62.4482 104.604 62.9057C104.376 63.1344 104.076 63.2488 103.776 63.2488Z" fill="#6C6CFF"/>
<path d="M26.9888 54.6094C26.6888 54.6094 26.389 54.495 26.16 54.2663L24.645 52.7513L23.13 54.2663C22.6723 54.7238 21.9305 54.7238 21.4728 54.2663C21.015 53.8085 21.015 53.0665 21.4728 52.609L23.8165 50.2652C24.2742 49.8077 25.016 49.8077 25.4738 50.2652L27.8175 52.609C28.2753 53.0667 28.2753 53.8088 27.8175 54.2663C27.5885 54.495 27.2888 54.6094 26.9888 54.6094Z" fill="#FF9D33"/>
<path d="M55.8687 116.602C55.5687 116.602 55.2689 116.487 55.0399 116.258L53.5249 114.743L52.0099 116.258C51.5522 116.716 50.8104 116.716 50.3526 116.258C49.8949 115.801 49.8949 115.059 50.3526 114.601L52.6964 112.257C53.1541 111.8 53.8959 111.8 54.3537 112.257L56.6974 114.601C57.1551 115.059 57.1551 115.801 56.6974 116.258C56.4684 116.487 56.1684 116.602 55.8687 116.602Z" fill="#E0450D"/>
<path d="M100.26 52.2656C99.9605 52.2656 99.6603 52.1513 99.4317 51.9225C98.974 51.4648 98.974 50.7227 99.4317 50.2652L101.775 47.9215C102.233 47.464 102.975 47.464 103.433 47.9215C103.89 48.3792 103.89 49.1213 103.433 49.5788L101.089 51.9225C100.86 52.1513 100.56 52.2656 100.26 52.2656Z" fill="#E0450D"/>
<path d="M15.7387 46.9448C15.4387 46.9448 15.1389 46.8305 14.91 46.6017C14.4522 46.144 14.4522 45.4019 14.91 44.9444L17.2537 42.6007C17.7114 42.1432 18.4532 42.1432 18.911 42.6007C19.3687 43.0584 19.3687 43.8005 18.911 44.258L16.5672 46.6017C16.3385 46.8305 16.0387 46.9448 15.7387 46.9448Z" fill="#E0450D"/>
<g clip-path="url(#clip1_354_5485)">
<path d="M120 60.5858C120 54.1098 117.069 48.0386 111.95 42.8116C108.388 39.1745 105.422 35.008 103.158 30.448C95.9182 15.8659 83.5748 6.26147 69.5634 6.26147C59.6065 6.26147 50.4926 11.1126 43.4534 19.1528C38.794 24.4748 32.9109 28.5571 26.347 31.1929C10.4473 37.5777 0 48.3592 0 60.5858C0 72.8125 10.4473 83.594 26.347 89.9788C32.9109 92.6146 38.794 96.6969 43.4536 102.019C50.4928 110.059 59.6067 114.91 69.5637 114.91C83.5751 114.91 95.9184 105.306 103.158 90.7237C105.422 86.1637 108.388 81.9972 111.95 78.3601C117.069 73.1331 120 67.0619 120 60.5858Z" fill="url(#paint1_linear_354_5485)"/>
<path opacity="0.1" d="M99.8852 77.3398C97.4683 77.3398 95.5092 79.2989 95.5092 81.7158V77.498C95.5092 75.0811 93.5501 73.122 91.1332 73.122C90.63 73.122 90.1488 73.211 89.6988 73.3673V13.2656C89.6988 10.4051 87.3797 8.08594 84.5191 8.08594H39.5826C36.7219 8.08594 34.403 10.4051 34.403 13.2656V101.32C34.403 104.181 36.7219 106.5 39.5826 106.5H61.0708C62.9053 113.135 68.9815 118.008 76.2 118.008H88.5621C97.2326 118.008 104.261 110.979 104.261 102.308V81.7158C104.261 79.2989 102.302 77.3398 99.8852 77.3398Z" fill="#002481"/>
<path d="M92.6162 28.843H87.5731V13.1641H92.6162C93.5073 13.1641 94.2296 13.8864 94.2296 14.7775V27.2298C94.2296 28.1207 93.5073 28.843 92.6162 28.843Z" fill="#6C6CFF"/>
<path d="M30.7474 44.9765H36.5285V13.1641H30.7474C29.8563 13.1641 29.8722 13.8864 29.8722 14.7775V43.3633C29.8722 44.2541 29.8565 44.9765 30.7474 44.9765Z" fill="#6C6CFF"/>
<path d="M84.5191 101.578H39.5826C36.7221 101.578 34.403 99.259 34.403 96.3984V8.34375C34.403 5.4832 36.7219 3.16406 39.5826 3.16406H84.5191C87.3797 3.16406 89.6988 5.48297 89.6988 8.34375V96.3984C89.6988 99.259 87.3797 101.578 84.5191 101.578Z" fill="#FF9D33"/>
<path d="M34.403 15.3782H89.6988V89.3636H34.403V15.3782Z" fill="white"/>
<path d="M83.6994 89.3636H40.4026V71.6809C40.4026 71.0338 40.9271 70.5093 41.5742 70.5093H82.528C83.1751 70.5093 83.6996 71.0338 83.6996 71.6809V89.3636H83.6994Z" fill="#EBEBFF"/>
<path d="M66.7981 10.428H57.3035C56.6564 10.428 56.1319 9.90347 56.1319 9.25636C56.1319 8.60925 56.6564 8.08472 57.3035 8.08472H66.7981C67.4452 8.08472 67.9697 8.60925 67.9697 9.25636C67.9697 9.90347 67.4452 10.428 66.7981 10.428Z" fill="#E60058"/>
<path d="M57.2864 93.8455V96.8136C57.2864 97.4607 57.8109 97.9852 58.458 97.9852H65.6437C66.2908 97.9852 66.8154 97.4607 66.8154 96.8136V93.8455C66.8154 93.1984 66.2908 92.6738 65.6437 92.6738H58.458C57.8109 92.6741 57.2864 93.1986 57.2864 93.8455Z" fill="#E60058"/>
<path d="M80.5642 96.501H76.6933C76.0462 96.501 75.5217 95.9765 75.5217 95.3294C75.5217 94.6823 76.0462 94.1577 76.6933 94.1577H80.5642C81.2114 94.1577 81.7359 94.6823 81.7359 95.3294C81.7359 95.9765 81.2114 96.501 80.5642 96.501Z" fill="#E60058"/>
<path d="M47.4082 96.501H43.5373C42.8902 96.501 42.3657 95.9765 42.3657 95.3294C42.3657 94.6823 42.8902 94.1577 43.5373 94.1577H47.4082C48.0553 94.1577 48.5799 94.6823 48.5799 95.3294C48.5799 95.9765 48.0553 96.501 47.4082 96.501Z" fill="#E60058"/>
<path d="M82.5276 56.0401H41.5739C40.9268 56.0401 40.4022 55.5156 40.4022 54.8684V37.2207C40.4022 36.5736 40.9268 36.0491 41.5739 36.0491H82.5276C83.1747 36.0491 83.6993 36.5736 83.6993 37.2207V54.8684C83.6993 55.5156 83.1747 56.0401 82.5276 56.0401Z" fill="#E60058"/>
<path d="M49.4756 51.6287C48.8285 51.6287 48.3038 51.1039 48.3038 50.4568V41.6323C48.3038 40.9852 48.8285 40.4604 49.4756 40.4604C50.1228 40.4604 50.6475 40.9852 50.6475 41.6323V50.4568C50.6475 51.1039 50.1228 51.6287 49.4756 51.6287Z" fill="white"/>
<path d="M52.2619 46.5111H49.4756C48.8285 46.5111 48.3038 45.9863 48.3038 45.3392V41.6323C48.3038 40.9852 48.8285 40.4604 49.4756 40.4604H52.2619C53.9302 40.4604 55.2872 41.8177 55.2872 43.4858C55.2874 45.1538 53.9302 46.5111 52.2619 46.5111ZM50.6475 44.1673H52.2619C52.6378 44.1673 52.9435 43.8615 52.9435 43.4858C52.9435 43.1101 52.6376 42.8042 52.2619 42.8042H50.6475V44.1673Z" fill="white"/>
<path d="M52.6454 51.6286H49.4757C48.8286 51.6286 48.3038 51.1038 48.3038 50.4567V45.3335C48.3038 44.6864 48.8286 44.1616 49.4757 44.1616H52.6454C54.7041 44.1616 56.379 45.8365 56.379 47.8952C56.379 49.954 54.7039 51.6286 52.6454 51.6286ZM50.6473 49.2848H52.6452C53.4116 49.2848 54.035 48.6614 54.035 47.895C54.035 47.1286 53.4116 46.5051 52.6452 46.5051H50.6473V49.2848Z" fill="white"/>
<path d="M63.006 51.6287H60.9135C59.264 51.6287 57.9222 50.2866 57.9222 48.6373V41.6323C57.9222 40.9852 58.4469 40.4604 59.0941 40.4604C59.7412 40.4604 60.2659 40.9852 60.2659 41.6323V48.6373C60.2659 48.9943 60.5563 49.2849 60.9135 49.2849H63.006C63.363 49.2849 63.6536 48.9943 63.6536 48.6373V41.6323C63.6536 40.9852 64.1781 40.4604 64.8255 40.4604C65.4728 40.4604 65.9973 40.9852 65.9973 41.6323V48.6373C65.9973 50.2866 64.6553 51.6287 63.006 51.6287Z" fill="white"/>
<path d="M72.8064 46.1703H70.7139C69.0646 46.1703 67.7225 44.8283 67.7225 43.179V41.6323C67.7225 40.9852 68.2471 40.4604 68.8944 40.4604C69.5418 40.4604 70.0663 40.9852 70.0663 41.6323V43.179C70.0663 43.5359 70.3567 43.8265 70.7139 43.8265H72.8064C73.1633 43.8265 73.4542 43.5359 73.4542 43.179V41.6323C73.4542 40.9852 73.9787 40.4604 74.626 40.4604C75.2734 40.4604 75.7979 40.9852 75.7979 41.6323V43.179C75.7977 44.8283 74.4559 46.1703 72.8064 46.1703Z" fill="white"/>
<path d="M71.7602 51.6288C71.1128 51.6288 70.5883 51.104 70.5883 50.4569V44.9985C70.5883 44.3514 71.1128 43.8267 71.7602 43.8267C72.4075 43.8267 72.9321 44.3514 72.9321 44.9985V50.4569C72.9321 51.104 72.4073 51.6288 71.7602 51.6288Z" fill="white"/>
<path d="M99.8853 72.4179C97.4684 72.4179 95.5093 74.377 95.5093 76.7939V72.5761C95.5093 70.1592 93.5501 68.2001 91.1333 68.2001C88.7164 68.2001 86.7572 70.1592 86.7572 72.5761V69.7643C86.7572 67.3474 84.7981 65.3883 82.3812 65.3883C79.9644 65.3883 78.0052 67.3474 78.0052 69.7643V54.274C78.0052 51.8571 76.0461 49.8979 73.6292 49.8979C71.2123 49.8979 69.2532 51.8571 69.2532 54.274V81.5533C69.2532 79.1365 67.294 77.1773 64.8772 77.1773C62.4603 77.1773 60.5012 79.1365 60.5012 81.5533V97.3865C60.5012 106.057 67.5301 113.086 76.2005 113.086H88.5626C97.2331 113.086 104.262 106.057 104.262 97.3865V76.7939C104.261 74.377 102.302 72.4179 99.8853 72.4179Z" fill="#FFD6BB"/>
<path d="M78.0046 57.7605H75.1223C73.601 57.7605 72.3635 56.523 72.3635 55.0017V54.1868C72.3635 53.5397 72.888 53.0149 73.5353 53.0149C74.1827 53.0149 74.7072 53.5397 74.7072 54.1868V55.0017C74.7072 55.2307 74.8935 55.4168 75.1223 55.4168H78.0046C78.652 55.4168 79.1765 55.9415 79.1765 56.5886C79.1765 57.2358 78.652 57.7605 78.0046 57.7605Z" fill="#FFF3EE"/>
<path d="M78.0047 64.3801H75.1756C74.5283 64.3801 74.0037 63.8554 74.0037 63.2083C74.0037 62.5611 74.5283 62.0364 75.1756 62.0364H78.0047C78.6521 62.0364 79.1766 62.5611 79.1766 63.2083C79.1766 63.8554 78.6521 64.3801 78.0047 64.3801Z" fill="#FFAB66"/>
<path d="M78.0047 74.6604H75.1756C74.5283 74.6604 74.0037 74.1356 74.0037 73.4885C74.0037 72.8414 74.5283 72.3167 75.1756 72.3167H78.0047C78.6521 72.3167 79.1766 72.8414 79.1766 73.4885C79.1766 74.1359 78.6521 74.6604 78.0047 74.6604Z" fill="#FFAB66"/>
<path d="M86.757 75.3635H83.9279C83.2805 75.3635 82.756 74.8388 82.756 74.1917C82.756 73.5445 83.2805 73.0198 83.9279 73.0198H86.757C87.4043 73.0198 87.9289 73.5445 87.9289 74.1917C87.9289 74.8388 87.4043 75.3635 86.757 75.3635Z" fill="#FFAB66"/>
<path d="M95.5093 76.7693H92.6801C92.0328 76.7693 91.5082 76.2445 91.5082 75.5974C91.5082 74.9503 92.0328 74.4255 92.6801 74.4255H95.5093C96.1566 74.4255 96.6811 74.9503 96.6811 75.5974C96.6811 76.2445 96.1566 76.7693 95.5093 76.7693Z" fill="#FFAB66"/>
<path d="M104.262 78.8782H101.432C100.785 78.8782 100.26 78.3534 100.26 77.7063C100.26 77.0592 100.785 76.5344 101.432 76.5344H104.262C104.909 76.5344 105.433 77.0592 105.433 77.7063C105.433 78.3534 104.909 78.8782 104.262 78.8782Z" fill="#FFAB66"/>
<path d="M63.1472 89.999H60.5004C59.8533 89.999 59.3286 89.4743 59.3286 88.8271C59.3286 88.18 59.8533 87.6553 60.5004 87.6553H63.1472C63.7946 87.6553 64.3191 88.18 64.3191 88.8271C64.3191 89.4743 63.7943 89.999 63.1472 89.999Z" fill="#FFAB66"/>
<path d="M63.383 85.0655H60.5004C59.8533 85.0655 59.3286 84.5407 59.3286 83.8936C59.3286 83.2465 59.8533 82.7217 60.5004 82.7217H63.383C63.612 82.7217 63.7981 82.5356 63.7981 82.3066V81.4917C63.7981 80.8446 64.3226 80.3198 64.97 80.3198C65.6173 80.3198 66.1418 80.8446 66.1418 81.4917V82.3066C66.1418 83.8279 64.9043 85.0655 63.383 85.0655Z" fill="#FFF3EE"/>
<path d="M57.0392 66.8159H41.5742C40.9271 66.8159 40.4026 66.2914 40.4026 65.6443C40.4026 64.9972 40.9271 64.4727 41.5742 64.4727H57.0392C57.6863 64.4727 58.2109 64.9972 58.2109 65.6443C58.2109 66.2914 57.6863 66.8159 57.0392 66.8159Z" fill="#FFAB66"/>
<path d="M50.0096 62.0767H41.5742C40.9271 62.0767 40.4026 61.5521 40.4026 60.905C40.4026 60.2579 40.9271 59.7334 41.5742 59.7334H50.0096C50.6567 59.7334 51.1813 60.2579 51.1813 60.905C51.1813 61.5521 50.6567 62.0767 50.0096 62.0767Z" fill="#FFAB66"/>
<path d="M99.8853 71.246C98.689 71.246 97.58 71.6266 96.673 72.273C96.515 69.3544 94.0904 67.0284 91.133 67.0284C89.8419 67.0284 88.6522 67.4719 87.7086 68.2144C87.0364 65.9072 84.9024 64.2166 82.3812 64.2166C81.1885 64.2166 80.0825 64.5949 79.1769 65.2378V54.2742C79.1769 51.2152 76.688 48.7263 73.629 48.7263C70.5697 48.7263 68.0808 51.2152 68.0808 54.2742V77.0269C67.1755 76.384 66.0692 76.0057 64.8767 76.0057C61.8174 76.0057 59.3286 78.4945 59.3286 81.5536V97.387C59.3286 98.418 59.4266 99.4261 59.6047 100.406H39.5827C37.3728 100.406 35.5749 98.6086 35.5749 96.3987V90.5358H52.7344C53.3816 90.5358 53.9063 90.011 53.9063 89.3639C53.9063 88.7168 53.3816 88.192 52.7344 88.192H35.5749V16.5502H88.527V60.5859C88.527 61.233 89.0516 61.7578 89.6989 61.7578C90.3462 61.7578 90.8708 61.233 90.8708 60.5859V30.015H92.6162C94.152 30.015 95.4015 28.7655 95.4015 27.2297V14.7773C95.4015 13.2415 94.152 11.992 92.6162 11.992H90.8708V8.34375C90.8708 4.84148 88.0215 1.99219 84.5192 1.99219H39.5827C36.0805 1.99219 33.2312 4.84148 33.2312 8.34375V11.992H30.7477C29.8625 11.992 29.1849 12.432 28.8884 13.1993C28.7002 13.6866 28.7005 14.2179 28.7007 14.7319V43.4086C28.7007 43.9226 28.7005 44.4539 28.8884 44.9412C29.1849 45.7083 29.8625 46.1484 30.7477 46.1484H33.2312V96.3984C33.2312 99.9007 36.0805 102.75 39.5827 102.75H60.2077C62.4542 109.431 68.772 114.258 76.2001 114.258H88.5622C97.865 114.258 105.433 106.69 105.433 97.3868V76.7941C105.433 73.7348 102.944 71.246 99.8853 71.246ZM92.6162 14.336C92.8597 14.336 93.0577 14.5341 93.0577 14.7776V27.2299C93.0577 27.4734 92.8597 27.6715 92.6162 27.6715H90.8708V14.336H92.6162ZM39.5827 4.33594H84.5192C86.7291 4.33594 88.527 6.13383 88.527 8.34375V14.2064H35.5749V8.34375C35.5749 6.13383 37.3728 4.33594 39.5827 4.33594ZM31.0482 43.8047C31.044 43.6734 31.044 14.467 31.0482 14.336H33.2309V27.9764C32.787 28.1433 32.4694 28.5682 32.4694 29.0702C32.4694 29.5723 32.787 29.9974 33.2309 30.1641V43.8047H31.0482ZM103.09 97.3866C103.09 105.397 96.5726 111.914 88.5622 111.914H76.2001C68.1894 111.914 61.6726 105.397 61.6726 97.3866V81.5531C61.6726 79.7864 63.11 78.349 64.8769 78.349C66.6437 78.349 68.0811 79.7864 68.0811 81.5531V89.2547C68.0811 89.9018 68.6056 90.4266 69.253 90.4266C69.9003 90.4266 70.4248 89.9018 70.4248 89.2547V54.274C70.4248 52.507 71.8623 51.0698 73.6292 51.0698C75.3959 51.0698 76.8333 52.5073 76.8333 54.274V69.7643V81.492C76.8333 82.1391 77.3579 82.6638 78.0052 82.6638C78.6526 82.6638 79.1771 82.1391 79.1771 81.492V69.7643C79.1771 67.9976 80.6145 66.5602 82.3815 66.5602C84.1482 66.5602 85.5856 67.9976 85.5856 69.7643V81.492C85.5856 82.1391 86.1101 82.6638 86.7575 82.6638C87.4048 82.6638 87.9294 82.1391 87.9294 81.492V72.5763C87.9294 70.8094 89.3668 69.3722 91.1335 69.3722C92.9005 69.3722 94.3379 70.8096 94.3379 72.5763V81.4922C94.3379 82.1393 94.8624 82.6641 95.5098 82.6641C96.1571 82.6641 96.6816 82.1393 96.6816 81.4922V76.7944C96.6816 75.0274 98.119 73.5902 99.8858 73.5902C101.653 73.5902 103.09 75.0277 103.09 76.7944V97.3866H103.09Z" fill="#002481"/>
<path d="M41.4223 20.8779L40.0552 22.2448C39.5975 22.7025 39.5975 23.4443 40.0552 23.9021C40.2842 24.131 40.584 24.2454 40.884 24.2454C41.1837 24.2454 41.4837 24.131 41.7125 23.9023L42.2508 23.3639L42.789 23.9023C43.2467 24.3598 43.9885 24.3598 44.4462 23.9023C44.904 23.4446 44.904 22.7025 44.4462 22.245L43.0794 20.8782C42.6221 20.4207 41.8801 20.4204 41.4223 20.8779Z" fill="#002481"/>
<path d="M79.2731 28.3206C77.1265 28.3206 75.3801 26.5743 75.3801 24.4276C75.3801 22.281 77.1265 20.5347 79.2731 20.5347C81.4197 20.5347 83.1661 22.281 83.1661 24.4276C83.1661 26.5743 81.42 28.3206 79.2731 28.3206ZM79.2731 22.8784C78.4188 22.8784 77.7239 23.5733 77.7239 24.4276C77.7239 25.2819 78.419 25.9769 79.2731 25.9769C80.1272 25.9769 80.8223 25.2819 80.8223 24.4276C80.8223 23.5733 80.1274 22.8784 79.2731 22.8784Z" fill="#FFAB66"/>
<path d="M81.9944 31.0421C81.347 31.0421 80.8225 30.5174 80.8225 29.8703C80.8225 29.016 80.1273 28.321 79.2733 28.321C78.4192 28.321 77.7241 29.016 77.7241 29.8703C77.7241 30.5174 77.1995 31.0421 76.5522 31.0421C75.9048 31.0421 75.3803 30.5174 75.3803 29.8703C75.3803 27.7236 77.1266 25.9773 79.2733 25.9773C81.4199 25.9773 83.1662 27.7236 83.1662 29.8703C83.1662 30.5174 82.6415 31.0421 81.9944 31.0421Z" fill="#FFAB66"/>
<path d="M71.6578 31.0418H68.7288C68.0817 31.0418 67.5571 30.5172 67.5571 29.8701C67.5571 29.223 68.0817 28.6985 68.7288 28.6985H71.6578C72.3049 28.6985 72.8294 29.223 72.8294 29.8701C72.8294 30.5172 72.3049 31.0418 71.6578 31.0418Z" fill="#D9D9FF"/>
<path d="M71.6578 27.0051H68.7288C68.0817 27.0051 67.5571 26.4806 67.5571 25.8335C67.5571 25.1864 68.0817 24.6619 68.7288 24.6619H71.6578C72.3049 24.6619 72.8294 25.1864 72.8294 25.8335C72.8294 26.4806 72.3049 27.0051 71.6578 27.0051Z" fill="#D9D9FF"/>
<path d="M103.776 63.2488C103.476 63.2488 103.176 63.1344 102.947 62.9057L101.432 61.3907L99.9169 62.9057C99.4596 63.3632 98.7171 63.3632 98.2599 62.9057C97.8021 62.4479 97.8021 61.7059 98.2599 61.2484L100.604 58.9046C101.061 58.4471 101.803 58.4471 102.261 58.9046L104.604 61.2484C105.062 61.7061 105.062 62.4482 104.604 62.9057C104.376 63.1344 104.076 63.2488 103.776 63.2488Z" fill="#6C6CFF"/>
<path d="M26.9888 54.6094C26.6888 54.6094 26.389 54.495 26.16 54.2663L24.645 52.7513L23.13 54.2663C22.6723 54.7238 21.9305 54.7238 21.4728 54.2663C21.015 53.8085 21.015 53.0665 21.4728 52.609L23.8165 50.2652C24.2742 49.8077 25.016 49.8077 25.4738 50.2652L27.8175 52.609C28.2753 53.0667 28.2753 53.8088 27.8175 54.2663C27.5885 54.495 27.2888 54.6094 26.9888 54.6094Z" fill="#FF9D33"/>
<path d="M55.8687 116.602C55.5687 116.602 55.269 116.487 55.04 116.258L53.525 114.743L52.01 116.258C51.5522 116.716 50.8104 116.716 50.3527 116.258C49.895 115.801 49.895 115.059 50.3527 114.601L52.6964 112.257C53.1542 111.8 53.896 111.8 54.3537 112.257L56.6975 114.601C57.1552 115.059 57.1552 115.801 56.6975 116.258C56.4685 116.487 56.1685 116.602 55.8687 116.602Z" fill="#E60058"/>
<path d="M100.26 52.2656C99.9605 52.2656 99.6603 52.1513 99.4317 51.9225C98.974 51.4648 98.974 50.7227 99.4317 50.2652L101.775 47.9215C102.233 47.464 102.975 47.464 103.433 47.9215C103.89 48.3792 103.89 49.1213 103.433 49.5788L101.089 51.9225C100.86 52.1513 100.56 52.2656 100.26 52.2656Z" fill="#E60058"/>
<path d="M15.7388 46.9448C15.4388 46.9448 15.1391 46.8305 14.9101 46.6017C14.4523 46.144 14.4523 45.4019 14.9101 44.9444L17.2538 42.6007C17.7116 42.1432 18.4534 42.1432 18.9111 42.6007C19.3688 43.0584 19.3688 43.8005 18.9111 44.258L16.5673 46.6017C16.3386 46.8305 16.0388 46.9448 15.7388 46.9448Z" fill="#E60058"/>
</g>
</g>
<defs>
<linearGradient id="paint0_linear_354_5485" x1="-25.0781" y1="60.5861" x2="169.688" y2="60.5861" gradientUnits="userSpaceOnUse">
<stop offset="0.007" stop-color="#A4D3FF"/>
<stop offset="1" stop-color="#FFE8DC" stop-opacity="0"/>
</linearGradient>
<linearGradient id="paint1_linear_354_5485" x1="-25.0781" y1="60.5858" x2="169.688" y2="60.5858" gradientUnits="userSpaceOnUse">
<stop offset="0.007" stop-color="#A4D3FF"/>
<stop offset="1" stop-color="#FFE8DC" stop-opacity="0"/>
</linearGradient>
<clipPath id="clip0_354_5485">
<rect width="120" height="120" fill="white"/>
</clipPath>
<clipPath id="clip1_354_5485">
<rect width="120" height="120" fill="white"/>
</clipPath>
</defs>
</svg>
