<svg width="12" height="12" viewBox="0 0 12 12" fill="none" xmlns="http://www.w3.org/2000/svg">
<path d="M1.45005 4.4375L5.65005 8.65C5.70005 8.7 5.75422 8.7355 5.81255 8.7565C5.87088 8.7775 5.93338 8.78783 6.00005 8.7875C6.06672 8.7875 6.12922 8.77717 6.18755 8.7565C6.24588 8.73583 6.30005 8.70033 6.35005 8.65L10.5625 4.4375C10.6792 4.32083 10.7375 4.175 10.7375 4C10.7375 3.825 10.675 3.675 10.55 3.55C10.425 3.425 10.2792 3.3625 10.1125 3.3625C9.94588 3.3625 9.80005 3.425 9.67505 3.55L6.00005 7.225L2.32505 3.55C2.20838 3.43333 2.06455 3.375 1.89355 3.375C1.72255 3.375 1.57472 3.4375 1.45005 3.5625C1.32505 3.6875 1.26255 3.83333 1.26255 4C1.26255 4.16666 1.32505 4.3125 1.45005 4.4375Z" fill="#E60058"/>
</svg>
