<svg width="12" height="20" viewBox="0 0 12 20" fill="none" xmlns="http://www.w3.org/2000/svg">
<path d="M2.8742 0.89961L11.2992 9.29961C11.3992 9.39961 11.4702 9.50794 11.5122 9.62461C11.5542 9.74128 11.5749 9.86628 11.5742 9.99961C11.5742 10.1329 11.5535 10.2579 11.5122 10.3746C11.4709 10.4913 11.3999 10.5996 11.2992 10.6996L2.8742 19.1246C2.64087 19.3579 2.3492 19.4746 1.9992 19.4746C1.6492 19.4746 1.3492 19.3496 1.0992 19.0996C0.849203 18.8496 0.724203 18.5579 0.724203 18.2246C0.724203 17.8913 0.849203 17.5996 1.0992 17.3496L8.4492 9.99961L1.0992 2.64961C0.865871 2.41628 0.749204 2.12861 0.749204 1.78661C0.749204 1.44461 0.874204 1.14894 1.1242 0.89961C1.3742 0.64961 1.66587 0.52461 1.9992 0.52461C2.33254 0.52461 2.6242 0.64961 2.8742 0.89961Z" fill="#E60058"/>
</svg>
