<svg width="24" height="24" viewBox="0 0 24 24" fill="none" xmlns="http://www.w3.org/2000/svg">
<path d="M21.2488 8.72479L12.8488 17.1498C12.7488 17.2498 12.6405 17.3208 12.5238 17.3628C12.4072 17.4048 12.2822 17.4255 12.1488 17.4248C12.0155 17.4248 11.8905 17.4041 11.7738 17.3628C11.6572 17.3215 11.5488 17.2505 11.4488 17.1498L3.02383 8.72479C2.79049 8.49146 2.67383 8.19979 2.67383 7.84979C2.67383 7.49979 2.79883 7.19979 3.04883 6.94979C3.29883 6.69979 3.59049 6.57479 3.92383 6.57479C4.25716 6.57479 4.54883 6.69979 4.79883 6.94979L12.1488 14.2998L19.4988 6.94979C19.7322 6.71645 20.0198 6.59979 20.3618 6.59979C20.7038 6.59979 20.9995 6.72479 21.2488 6.97479C21.4988 7.22479 21.6238 7.51645 21.6238 7.84979C21.6238 8.18312 21.4988 8.47479 21.2488 8.72479Z" fill="#E60058"/>
</svg>
