<svg width="160" height="160" viewBox="0 0 160 160" fill="none" xmlns="http://www.w3.org/2000/svg">
<circle cx="80" cy="80" r="79.5" fill="white" stroke="url(#paint0_linear_23_71)"/>
<path d="M112.722 58.1851V109.662C112.722 113.129 109.911 115.94 106.445 115.94H53.5553C50.0885 115.94 47.2776 113.129 47.2776 109.662V58.1851H112.722Z" fill="#E2F1FF"/>
<path d="M56.6941 115.94H53.5553C50.0885 115.94 47.2776 113.129 47.2776 109.662V58.1851H50.4165V109.662C50.4165 113.129 53.2273 115.94 56.6941 115.94Z" fill="#DAEDFF"/>
<path d="M112.722 61.0103V81.4645C112.314 81.5335 111.895 81.5696 111.467 81.5696H110.368C108.287 81.5696 106.404 80.7268 105.042 79.363C103.678 78.0008 102.835 76.1175 102.835 74.0364C102.835 76.1175 101.992 78.0008 100.628 79.363C99.2661 80.7268 97.3828 81.5696 95.3018 81.5696C91.1413 81.5696 87.7686 78.1969 87.7686 74.0364C87.7686 78.1969 84.3959 81.5696 80.2354 81.5696H80.0785C77.9974 81.5696 76.1141 80.7268 74.7519 79.363C73.388 78.0008 72.5453 76.1175 72.5453 74.0364C72.5453 78.1969 69.1726 81.5696 65.0121 81.5696H64.6982C62.6171 81.5696 60.7338 80.7268 59.3716 79.363C58.0077 78.0008 57.165 76.1175 57.165 74.0364C57.165 78.1969 53.7923 81.5696 49.6318 81.5696H48.5332C48.1047 81.5696 47.6857 81.5335 47.2776 81.4645V61.0103H112.722Z" fill="#F0E6CE"/>
<path d="M58.8568 58.1851L57.3235 68.7096C57.2184 69.5399 57.165 70.3748 57.165 71.2113C57.165 71.3431 57.1619 71.4734 57.1556 71.6036C56.9515 75.5821 53.6605 78.7445 49.6318 78.7445H48.5332C46.4522 78.7445 44.5689 77.9017 43.2066 76.5379C41.9291 75.262 41.1083 73.5293 41.0094 71.6036C41.0031 71.4734 41 71.3431 41 71.2113C41 70.3842 41.1821 69.5681 41.5352 68.8195L47.2777 58.1851L52.5553 56.6157L58.8568 58.1851Z" fill="#E60058"/>
<path d="M72.5453 58.1851V71.2113C72.5453 71.3431 72.5421 71.4734 72.5358 71.6036C72.3318 75.5821 69.0408 78.7445 65.0121 78.7445H64.6982C62.6171 78.7445 60.7338 77.9017 59.3716 76.5379C58.0941 75.262 57.2733 73.5293 57.1744 71.6036C57.1681 71.4734 57.165 71.3431 57.165 71.2113C57.165 70.3748 57.2183 69.5399 57.3235 68.7096L58.8568 58.1851L65.4846 56.6157L72.5453 58.1851Z" fill="#F9D05E"/>
<path d="M87.7686 58.1851V71.2113C87.7686 71.3431 87.7655 71.4734 87.7592 71.6036C87.5552 75.5821 84.2641 78.7445 80.2354 78.7445H80.0785C76.0498 78.7445 72.7587 75.5821 72.5547 71.6036C72.5484 71.4734 72.5453 71.3431 72.5453 71.2113V58.1851L80.3139 56.6157L87.7686 58.1851Z" fill="#E60058"/>
<path d="M102.835 71.2113C102.835 71.3431 102.832 71.4734 102.826 71.6036C102.727 73.5293 101.906 75.262 100.628 76.5379C99.2662 77.9017 97.3829 78.7445 95.3018 78.7445C91.2731 78.7445 87.9821 75.5821 87.778 71.6036C87.7718 71.4734 87.7686 71.3431 87.7686 71.2113V58.1851L94.7525 56.6157L101.3 58.1851L102.692 68.7081C102.786 69.5399 102.835 70.3748 102.835 71.2113Z" fill="#F9D05E"/>
<path d="M119 71.2113C119 71.3431 118.997 71.4734 118.991 71.6036C118.787 75.5821 115.495 78.7445 111.467 78.7445H110.368C108.287 78.7445 106.404 77.9017 105.042 76.5379C103.764 75.262 102.943 73.5293 102.844 71.6036C102.838 71.4734 102.835 71.3431 102.835 71.2113C102.835 70.3748 102.786 69.5399 102.692 68.7081L101.3 58.1851L106.997 56.6157L112.722 58.1851L118.465 68.8195C118.642 69.193 118.776 69.5854 118.865 69.9856C118.954 70.3874 119 70.797 119 71.2113Z" fill="#E60058"/>
<path d="M95.357 88.08C95.4269 87.734 95.3376 87.3749 95.1141 87.1018C94.8905 86.8287 94.5562 86.6702 94.2032 86.6702H67.6718L67.632 86.4828C67.2124 84.4999 65.4366 83.0605 63.4098 83.0605H61.4024C60.7524 83.0605 60.2253 83.5874 60.2253 84.2376C60.2253 84.8878 60.7524 85.4147 61.4024 85.4147H63.4098C64.3311 85.4147 65.1382 86.0688 65.3291 86.9701L68.8267 103.493C69.157 105.054 70.3291 106.275 71.8009 106.725C71.6234 107.146 71.5251 107.608 71.5251 108.093C71.5251 110.04 73.1092 111.624 75.0563 111.624C77.0035 111.624 78.5875 110.04 78.5875 108.093C78.5875 107.68 78.5156 107.284 78.3851 106.916H83.6552C83.5244 107.284 83.4527 107.68 83.4527 108.093C83.4527 110.04 85.0367 111.624 86.9839 111.624C88.9311 111.624 90.5151 110.04 90.5151 108.093C90.5151 107.68 90.4432 107.284 90.3126 106.916H90.5936C91.2436 106.916 91.7706 106.389 91.7706 105.739C91.7706 105.088 91.2436 104.562 90.5936 104.562H73.0489C72.1276 104.562 71.3205 103.907 71.1296 103.006L70.8279 101.58H76.778C76.7791 101.58 76.7802 101.58 76.7813 101.58C76.7821 101.58 76.7828 101.58 76.7838 101.58H84.3149C84.3157 101.58 84.3165 101.58 84.3175 101.58C84.3186 101.58 84.3197 101.58 84.3208 101.58H91.6703C92.2306 101.58 92.7134 101.185 92.8242 100.635L94.061 94.505C94.093 94.4112 94.1134 94.3122 94.1207 94.2092L95.357 88.08ZM76.2334 108.093C76.2334 108.742 75.7054 109.27 75.0563 109.27C74.4072 109.27 73.8793 108.742 73.8793 108.093C73.8793 107.444 74.4072 106.916 75.0563 106.916C75.7054 106.916 76.2334 107.444 76.2334 108.093ZM88.161 108.093C88.161 108.742 87.633 109.27 86.9839 109.27C86.3348 109.27 85.8068 108.742 85.8068 108.093C85.8068 107.444 86.3348 106.916 86.9839 106.916C87.633 106.916 88.161 107.444 88.161 108.093ZM91.9734 92.9479H86.434L86.9244 89.0243H92.765L91.9734 92.9479ZM77.8218 99.2255L77.3314 95.302H83.7674L83.2769 99.2255H77.8218ZM77.0371 92.9479L76.5466 89.0243H84.5521L84.0616 92.9479H77.0371ZM74.1742 89.0243L74.6646 92.9479H69.0006L68.17 89.0243H74.1742ZM69.4989 95.302H74.9589L75.4493 99.2255H70.3294L69.4989 95.302ZM85.6493 99.2255L86.1397 95.302H91.4985L90.7069 99.2255H85.6493Z" fill="#002481"/>
<path d="M41.0094 71.604H57.1556C56.9515 75.5825 53.6605 78.7448 49.6318 78.7448H48.5332C46.4521 78.7448 44.5688 77.9021 43.2066 76.5382C41.9291 75.2623 41.1083 73.5297 41.0094 71.604Z" fill="#FF3280"/>
<path d="M57.1744 71.604H72.5358C72.3318 75.5825 69.0407 78.7448 65.012 78.7448H64.6982C62.6171 78.7448 60.7338 77.9021 59.3716 76.5382C58.0941 75.2623 57.2733 73.5297 57.1744 71.604Z" fill="#FFD600"/>
<path d="M72.5547 71.604H87.7592C87.5552 75.5825 84.2641 78.7448 80.2354 78.7448H80.0785C76.0498 78.7448 72.7587 75.5825 72.5547 71.604Z" fill="#FF3280"/>
<path d="M87.778 71.604H102.826C102.727 73.5297 101.906 75.2623 100.628 76.5382C99.2661 77.9021 97.3828 78.7448 95.3018 78.7448C91.2731 78.7448 87.982 75.5825 87.778 71.604Z" fill="#FFD600"/>
<path d="M118.991 71.604C118.787 75.5825 115.495 78.7448 111.467 78.7448H110.368C108.287 78.7448 106.404 77.9021 105.042 76.5382C103.764 75.2623 102.943 73.5297 102.844 71.604H118.991Z" fill="#FF3280"/>
<path d="M47.2776 58.1853V50.3382C47.2776 46.8712 50.0883 44.0605 53.5553 44.0605H106.445C109.912 44.0605 112.722 46.8712 112.722 50.3382V58.1853H47.2776Z" fill="#002481"/>
<path d="M57.1415 53.375C57.6691 52.7577 57.9889 51.9576 57.9889 51.0839C57.9889 49.1369 56.4049 47.5527 54.4578 47.5527C53.3598 47.5527 52.3773 48.0565 51.7292 48.8451C51.43 49.1939 51.1311 49.5426 50.8323 49.8915C50.3046 50.5087 49.9849 51.3087 49.9849 52.1825C49.9849 54.1295 51.5689 55.7137 53.5161 55.7137C54.6142 55.7137 55.5967 55.2098 56.2449 54.4211C56.2598 54.4037 56.8577 53.7064 57.1415 53.375Z" fill="#001963"/>
<path d="M66.4402 53.414C66.9679 52.7968 67.2877 51.9967 67.2877 51.123C67.2877 49.176 65.7037 47.5918 63.7565 47.5918C62.6586 47.5918 61.6761 48.0956 61.0279 48.8842C60.7288 49.2329 60.4298 49.5817 60.131 49.9305C59.6034 50.5478 59.2837 51.3477 59.2837 52.2216C59.2837 54.1686 60.8677 55.7528 62.8149 55.7528C63.913 55.7528 64.8955 55.2488 65.5436 54.4602C65.5585 54.4428 66.1565 53.7455 66.4402 53.414Z" fill="#001963"/>
<path d="M75.6998 53.414C76.2275 52.7968 76.5473 51.9967 76.5473 51.123C76.5473 49.176 74.9633 47.5918 73.0161 47.5918C71.9181 47.5918 70.9357 48.0956 70.2875 48.8842C69.9884 49.2329 69.6894 49.5817 69.3906 49.9305C68.863 50.5478 68.5433 51.3477 68.5433 52.2216C68.5433 54.1686 70.1273 55.7528 72.0745 55.7528C73.1726 55.7528 74.155 55.2488 74.8032 54.4602C74.8181 54.4428 75.4161 53.7455 75.6998 53.414Z" fill="#001963"/>
<path d="M54.4578 54.6151C52.5106 54.6151 50.9266 53.0309 50.9266 51.0839C50.9266 49.1369 52.5106 47.5527 54.4578 47.5527C56.4049 47.5527 57.9889 49.1369 57.9889 51.0839C57.9889 53.0309 56.4049 54.6151 54.4578 54.6151Z" fill="#E60058"/>
<path d="M63.7565 54.6542C61.8094 54.6542 60.2253 53.07 60.2253 51.123C60.2253 49.176 61.8094 47.5918 63.7565 47.5918C65.7037 47.5918 67.2877 49.176 67.2877 51.123C67.2877 53.07 65.7037 54.6542 63.7565 54.6542Z" fill="#F9D05E"/>
<path d="M73.0161 54.6542C71.0689 54.6542 69.4849 53.07 69.4849 51.123C69.4849 49.176 71.0689 47.5918 73.0161 47.5918C74.9633 47.5918 76.5473 49.176 76.5473 51.123C76.5473 53.07 74.9633 54.6542 73.0161 54.6542Z" fill="#4BEB87"/>
<path d="M108.344 53.414C108.871 52.7968 109.191 51.9967 109.191 51.123C109.191 49.176 107.607 47.5918 105.66 47.5918H84.7867C83.6888 47.5918 82.7063 48.0956 82.0582 48.8842C81.759 49.2329 81.46 49.5817 81.1612 49.9305C80.6336 50.5478 80.3139 51.3477 80.3139 52.2216C80.3139 54.1686 81.8979 55.7528 83.8451 55.7528H104.718C105.816 55.7528 106.799 55.2488 107.447 54.4602C107.462 54.4428 108.06 53.7455 108.344 53.414Z" fill="#001963"/>
<path d="M105.66 54.6542H84.7867C82.8396 54.6542 81.2556 53.07 81.2556 51.123C81.2556 49.176 82.8396 47.5918 84.7867 47.5918H105.66C107.607 47.5918 109.191 49.176 109.191 51.123C109.191 53.07 107.607 54.6542 105.66 54.6542Z" fill="#F5F5F5"/>
<path d="M63.7565 54.6542C61.8094 54.6542 60.2253 53.07 60.2253 51.123C60.2253 49.176 61.8094 47.5918 63.7565 47.5918C65.7037 47.5918 67.2877 49.176 67.2877 51.123C67.2877 53.07 65.7037 54.6542 63.7565 54.6542Z" fill="#F9D05E"/>
<path d="M73.0161 54.6542C71.0689 54.6542 69.4849 53.07 69.4849 51.123C69.4849 49.176 71.0689 47.5918 73.0161 47.5918C74.9633 47.5918 76.5473 49.176 76.5473 51.123C76.5473 53.07 74.9633 54.6542 73.0161 54.6542Z" fill="#4BEB87"/>
<defs>
<linearGradient id="paint0_linear_23_71" x1="-7.95087e-07" y1="14.5986" x2="162.413" y2="21.202" gradientUnits="userSpaceOnUse">
<stop stop-color="white"/>
<stop offset="1" stop-color="#F5FAFF"/>
</linearGradient>
</defs>
</svg>
