<svg width="54" height="44" viewBox="0 0 54 44" fill="none" xmlns="http://www.w3.org/2000/svg">
<g opacity="0.8">
<rect width="54" height="44" rx="22" fill="#D8D8D8"/>
<path d="M27.5 25.4286C27.1769 25.4286 26.9231 25.1771 26.9231 24.8571V14.5714C26.9231 14.2514 27.1769 14 27.5 14C27.8231 14 28.0769 14.2514 28.0769 14.5714V24.8571C28.0769 25.1771 27.8231 25.4286 27.5 25.4286ZM34.4231 30H20.5769C20.2538 30 20 29.7486 20 29.4286V27.1429C20 26.8229 20.2538 26.5714 20.5769 26.5714C20.9 26.5714 21.1538 26.8229 21.1538 27.1429V28.8571H33.8462V27.1429C33.8462 26.8229 34.1 26.5714 34.4231 26.5714C34.7462 26.5714 35 26.8229 35 27.1429V29.4286C35 29.7486 34.7462 30 34.4231 30Z" fill="white"/>
<path d="M27.5 26.5714C27.4243 26.5723 27.3493 26.5576 27.2798 26.528C27.2102 26.4985 27.1477 26.4549 27.0962 26.4L23.0577 22.4C22.8269 22.1714 22.8269 21.8171 23.0577 21.5886C23.2885 21.36 23.6462 21.36 23.8769 21.5886L27.5115 25.1886L31.1462 21.5886C31.3769 21.36 31.7346 21.36 31.9654 21.5886C32.1962 21.8171 32.1962 22.1714 31.9654 22.4L27.9269 26.4C27.8115 26.5143 27.6615 26.5714 27.5231 26.5714H27.5Z" fill="white"/>
</g>
</svg>
