<svg width="160" height="160" viewBox="0 0 160 160" fill="none" xmlns="http://www.w3.org/2000/svg">
<g clip-path="url(#clip0_143_1501)">
<path d="M19.2273 15.0753C-8.25868 31.6219 -9.34525 124.415 36.2041 86.3819C58.1126 68.0881 61.1763 93.7335 75.6263 80.5394C79.7513 76.7728 83.1676 68.3906 89.021 70.1331C112.284 77.0588 76.1848 101.876 68.9223 113.866C57.0438 133.477 77.2235 154.784 99.0048 151.341C111.964 149.292 116.835 135.618 135.572 138.951C148.644 141.276 163.216 131.093 159.374 118.715C153.721 100.503 132.514 86.805 134.546 66.2619C136.18 49.7359 125.371 24.8135 112.573 22.6947C92.2576 19.3313 69.6973 60.9522 58.1263 29.4197C53.7335 17.4491 40.0376 29.8375 35.4738 23.8416C30.8019 17.7025 27.0507 10.3656 19.2273 15.0753Z" fill="url(#paint0_linear_143_1501)"/>
<path opacity="0.1" d="M135.885 28.15H29.3667C25.9167 28.15 23.1167 30.9469 23.1167 34.4V100.887C17.2195 105.443 13.418 112.58 13.418 120.609C13.418 134.37 24.5733 145.525 38.3339 145.525C45.763 145.525 52.4286 142.27 56.9936 137.112H135.885C139.335 137.112 142.135 134.316 142.135 130.862V34.4C142.135 30.9469 139.335 28.15 135.885 28.15Z" fill="#002481"/>
<path d="M142.136 26.9002V123.363C142.136 126.816 139.336 129.613 135.886 129.613H29.3672C25.9172 129.613 23.1172 126.816 23.1172 123.363V26.9002C23.1172 23.4471 25.9172 20.6502 29.3672 20.6502H135.886C139.336 20.6502 142.136 23.4471 142.136 26.9002Z" fill="white"/>
<path d="M131.579 120.855H34.2988C33.436 120.855 32.7363 120.156 32.7363 119.293V46.226C32.7363 45.3631 33.436 44.6635 34.2988 44.6635H131.579C132.441 44.6635 133.141 45.3631 133.141 46.226V119.293C133.141 120.156 132.442 120.855 131.579 120.855Z" fill="#CFE8FF"/>
<path d="M142.135 37.1847V26.8997C142.135 23.4478 139.337 20.6497 135.885 20.6497H29.3672C25.9153 20.6497 23.1172 23.4478 23.1172 26.8997V37.1847H142.135Z" fill="#3DA2FF"/>
<path d="M34.2988 31.2391C35.1618 31.2391 35.8613 30.5395 35.8613 29.6766C35.8613 28.8136 35.1618 28.1141 34.2988 28.1141C33.4359 28.1141 32.7363 28.8136 32.7363 29.6766C32.7363 30.5395 33.4359 31.2391 34.2988 31.2391Z" fill="#2D58E0"/>
<path d="M39.584 31.2391C40.4469 31.2391 41.1465 30.5395 41.1465 29.6766C41.1465 28.8136 40.4469 28.1141 39.584 28.1141C38.721 28.1141 38.0215 28.8136 38.0215 29.6766C38.0215 30.5395 38.721 31.2391 39.584 31.2391Z" fill="#2D58E0"/>
<path d="M44.8691 31.2391C45.7321 31.2391 46.4316 30.5395 46.4316 29.6766C46.4316 28.8136 45.7321 28.1141 44.8691 28.1141C44.0062 28.1141 43.3066 28.8136 43.3066 29.6766C43.3066 30.5395 44.0062 31.2391 44.8691 31.2391Z" fill="#2D58E0"/>
<path d="M130.954 31.2391H53.7686C52.9057 31.2391 52.2061 30.5394 52.2061 29.6766C52.2061 28.8138 52.9057 28.1141 53.7686 28.1141H130.954C131.817 28.1141 132.516 28.8138 132.516 29.6766C132.516 30.5394 131.817 31.2391 130.954 31.2391Z" fill="#9FB0FE"/>
<path d="M110.042 78.1859H80.0242C78.8005 78.1859 77.8086 77.1941 77.8086 75.9703V68.4459C77.8086 67.2222 78.8005 66.2303 80.0242 66.2303H110.042C111.266 66.2303 112.258 67.2222 112.258 68.4459V75.9703C112.258 77.1941 111.266 78.1859 110.042 78.1859Z" fill="#FFA8CF"/>
<path d="M84.2916 74.0544C85.3112 74.0544 86.1378 73.2278 86.1378 72.2081C86.1378 71.1885 85.3112 70.3619 84.2916 70.3619C83.2719 70.3619 82.4453 71.1885 82.4453 72.2081C82.4453 73.2278 83.2719 74.0544 84.2916 74.0544Z" fill="#FFDBED"/>
<path d="M91.3404 74.0544C92.3601 74.0544 93.1866 73.2278 93.1866 72.2081C93.1866 71.1885 92.3601 70.3619 91.3404 70.3619C90.3207 70.3619 89.4941 71.1885 89.4941 72.2081C89.4941 73.2278 90.3207 74.0544 91.3404 74.0544Z" fill="#FFDBED"/>
<path d="M98.3892 74.0544C99.4089 74.0544 100.235 73.2278 100.235 72.2081C100.235 71.1885 99.4089 70.3619 98.3892 70.3619C97.3696 70.3619 96.543 71.1885 96.543 72.2081C96.543 73.2278 97.3696 74.0544 98.3892 74.0544Z" fill="#FFDBED"/>
<path d="M105.437 74.0544C106.457 74.0544 107.283 73.2278 107.283 72.2081C107.283 71.1885 106.457 70.3619 105.437 70.3619C104.417 70.3619 103.591 71.1885 103.591 72.2081C103.591 73.2278 104.417 74.0544 105.437 74.0544Z" fill="#FFDBED"/>
<path d="M110.042 94.9672H80.0242C78.8005 94.9672 77.8086 93.9753 77.8086 92.7516V85.2272C77.8086 84.0034 78.8005 83.0116 80.0242 83.0116H110.042C111.266 83.0116 112.258 84.0034 112.258 85.2272V92.7516C112.258 93.9753 111.266 94.9672 110.042 94.9672Z" fill="#FFA8CF"/>
<path d="M84.2916 90.8356C85.3112 90.8356 86.1378 90.009 86.1378 88.9894C86.1378 87.9697 85.3112 87.1431 84.2916 87.1431C83.2719 87.1431 82.4453 87.9697 82.4453 88.9894C82.4453 90.009 83.2719 90.8356 84.2916 90.8356Z" fill="#FFDBED"/>
<path d="M91.3404 90.8356C92.3601 90.8356 93.1866 90.009 93.1866 88.9894C93.1866 87.9697 92.3601 87.1431 91.3404 87.1431C90.3207 87.1431 89.4941 87.9697 89.4941 88.9894C89.4941 90.009 90.3207 90.8356 91.3404 90.8356Z" fill="#FFDBED"/>
<path d="M98.3892 90.8356C99.4089 90.8356 100.235 90.009 100.235 88.9894C100.235 87.9697 99.4089 87.1431 98.3892 87.1431C97.3696 87.1431 96.543 87.9697 96.543 88.9894C96.543 90.009 97.3696 90.8356 98.3892 90.8356Z" fill="#FFDBED"/>
<path d="M105.437 90.8356C106.457 90.8356 107.283 90.009 107.283 88.9894C107.283 87.9697 106.457 87.1431 105.437 87.1431C104.417 87.1431 103.591 87.9697 103.591 88.9894C103.591 90.009 104.417 90.8356 105.437 90.8356Z" fill="#FFDBED"/>
<path d="M67.1712 81.1634C66.2049 81.1634 65.4215 80.38 65.4215 79.4137V72.5853C65.4215 70.6441 63.8421 69.0647 61.9009 69.0647C59.9596 69.0647 58.3802 70.6441 58.3802 72.5853V73.8144C58.3802 74.7806 57.5968 75.5641 56.6305 75.5641C55.6643 75.5641 54.8809 74.7806 54.8809 73.8144V72.5853C54.8809 68.7144 58.0302 65.5653 61.9012 65.5653C65.7721 65.5653 68.9212 68.7147 68.9212 72.5853V79.4137C68.9209 80.38 68.1374 81.1634 67.1712 81.1634Z" fill="#B7C5FF"/>
<path d="M67.3073 95.6322H56.4938C54.561 95.6322 52.9941 94.0653 52.9941 92.1325V82.8787C52.9941 80.9459 54.561 79.3791 56.4938 79.3791H67.3073C69.2401 79.3791 70.807 80.9459 70.807 82.8787V92.1325C70.8066 94.0656 69.2401 95.6322 67.3073 95.6322Z" fill="#3DA2FF"/>
<path d="M61.9005 91.5081C60.8109 91.5081 59.9277 90.6247 59.9277 89.5353V87.6188C59.9277 86.5291 60.8112 85.6459 61.9005 85.6459C62.9902 85.6459 63.8734 86.5294 63.8734 87.6188V89.5353C63.8737 90.6247 62.9902 91.5081 61.9005 91.5081Z" fill="#2D58E0"/>
<path d="M38.3339 138.025C52.0946 138.025 63.2498 126.87 63.2498 113.109C63.2498 99.3487 52.0946 88.1934 38.3339 88.1934C24.5732 88.1934 13.418 99.3487 13.418 113.109C13.418 126.87 24.5732 138.025 38.3339 138.025Z" fill="#8399FE"/>
<path d="M38.334 133.25C49.4573 133.25 58.4746 124.233 58.4746 113.109C58.4746 101.986 49.4573 92.9688 38.334 92.9688C27.2106 92.9688 18.1934 101.986 18.1934 113.109C18.1934 124.233 27.2106 133.25 38.334 133.25Z" fill="#3DA2FF"/>
<path d="M53.3359 130.044V133.004C49.1609 136.157 43.9672 138.026 38.3359 138.026C32.7047 138.026 27.5078 136.157 23.3359 133.007V130.044C23.3359 124.76 27.6203 120.476 32.9047 120.476H34.8109V114.416H41.8578V120.476H43.7641C49.0516 120.475 53.3359 124.76 53.3359 130.044Z" fill="#E60058"/>
<path d="M38.3346 119.291C32.7849 119.291 28.2861 114.792 28.2861 109.242V106.603C28.2861 101.053 32.7849 96.5541 38.3346 96.5541C43.8843 96.5541 48.383 101.053 48.383 106.603V109.242C48.383 114.792 43.8843 119.291 38.3346 119.291Z" fill="#FEF1DF"/>
<path d="M32.1426 129.466V137.251C31.0707 136.976 30.027 136.632 29.0176 136.222V129.466C29.0176 128.604 29.7176 127.904 30.5801 127.904C31.0113 127.904 31.402 128.079 31.6832 128.36C31.9676 128.644 32.1426 129.035 32.1426 129.466Z" fill="#E60058"/>
<path d="M47.6523 129.466V136.226C46.643 136.632 45.5992 136.976 44.5273 137.251V129.466C44.5273 128.604 45.2273 127.904 46.0898 127.904C46.5211 127.904 46.9148 128.079 47.1961 128.36C47.4773 128.644 47.6523 129.035 47.6523 129.466Z" fill="#E60058"/>
<path d="M142.135 66.9734C141.272 66.9734 140.572 67.6728 140.572 68.5359V123.364C140.572 125.948 138.469 128.051 135.885 128.051H60.1792C63.0995 123.795 64.8127 118.649 64.8127 113.109C64.8127 98.5091 52.9345 86.6309 38.3342 86.6309C33.3417 86.6309 28.6683 88.0212 24.6783 90.4331V26.8984C24.6783 24.3137 26.7811 22.2109 29.3658 22.2109H59.6345C60.4973 22.2109 61.197 21.5116 61.197 20.6484C61.197 19.7853 60.4973 19.0859 59.6345 19.0859H29.3658C25.058 19.0859 21.5533 22.5906 21.5533 26.8984V92.6437C15.6367 97.5037 11.8555 104.873 11.8555 113.109C11.8555 127.71 23.7336 139.588 38.3339 139.588C45.9552 139.588 52.8302 136.347 57.6655 131.176H135.884C140.192 131.176 143.697 127.672 143.697 123.364V68.5359C143.697 67.6728 142.997 66.9734 142.135 66.9734ZM38.3342 136.463C25.457 136.463 14.9808 125.987 14.9808 113.109C14.9808 100.232 25.457 89.7559 38.3342 89.7559C51.2114 89.7559 61.6877 100.232 61.6877 113.109C61.6877 125.987 51.2114 136.463 38.3342 136.463Z" fill="#002481"/>
<path d="M135.886 19.0872H68.8193C67.9565 19.0872 67.2568 19.7866 67.2568 20.6497C67.2568 21.5128 67.9565 22.2122 68.8193 22.2122H135.886C138.471 22.2122 140.573 24.315 140.573 26.8997V59.3503C140.573 60.2134 141.273 60.9128 142.136 60.9128C142.999 60.9128 143.698 60.2134 143.698 59.3503V26.8997C143.698 22.5919 140.194 19.0872 135.886 19.0872Z" fill="#002481"/>
<path d="M67.6924 146.877C67.5486 146.877 67.4049 146.857 67.2652 146.818C63.1683 145.653 62.8614 139.775 62.8502 139.525C62.8186 138.816 63.2702 138.174 63.9489 137.963L67.2302 136.947C67.5311 136.854 67.8536 136.854 68.1546 136.947L71.4358 137.963C72.1146 138.174 72.5661 138.816 72.5346 139.525C72.5233 139.775 72.2164 145.653 68.1196 146.818C67.9799 146.857 67.8361 146.877 67.6924 146.877ZM66.1274 140.56C66.3452 141.66 66.8127 143.054 67.6921 143.617C68.5708 143.054 69.0389 141.661 69.2568 140.56L67.6921 140.075L66.1274 140.56Z" fill="#8399FE"/>
<path d="M151.673 105.693C151.529 105.693 151.385 105.673 151.246 105.634C147.148 104.469 146.842 98.5909 146.831 98.3413C146.799 97.6316 147.251 96.9897 147.929 96.7794L151.211 95.7631C151.512 95.6697 151.834 95.6697 152.135 95.7631L155.416 96.7794C156.095 96.9897 156.547 97.6316 156.515 98.3413C156.504 98.5909 156.197 104.469 152.1 105.634C151.96 105.673 151.817 105.693 151.673 105.693ZM150.108 99.3759C150.326 100.476 150.793 101.87 151.673 102.433C152.552 101.87 153.02 100.477 153.238 99.3759L151.673 98.8913L150.108 99.3759Z" fill="#E60058"/>
<path d="M58.3349 149.69C57.9349 149.69 57.5352 149.537 57.2299 149.232L55.5224 147.524L53.8149 149.232C53.2046 149.842 52.2155 149.842 51.6052 149.232C50.9949 148.622 50.9949 147.632 51.6052 147.022L54.4177 144.21C55.028 143.6 56.0171 143.6 56.6274 144.21L59.4399 147.022C60.0502 147.632 60.0502 148.622 59.4399 149.232C59.1346 149.537 58.7349 149.69 58.3349 149.69Z" fill="#01ECA5"/>
<path d="M40.8339 14.2284C40.4339 14.2284 40.0342 14.0759 39.7289 13.7706L38.0214 12.0631L36.3139 13.7706C35.7036 14.3809 34.7145 14.3809 34.1042 13.7706C33.4939 13.1606 33.4939 12.1712 34.1042 11.5612L36.9167 8.74875C37.527 8.13844 38.5161 8.13844 39.1264 8.74875L41.9389 11.5612C42.5492 12.1712 42.5492 13.1606 41.9389 13.7706C41.6336 14.0756 41.2339 14.2284 40.8339 14.2284Z" fill="#E60058"/>
<path d="M15.2929 86.7394C14.8929 86.7394 14.4932 86.5869 14.1879 86.2816L12.4804 84.5741L10.7729 86.2816C10.1626 86.8919 9.17352 86.8919 8.5632 86.2816C7.95289 85.6716 7.95289 84.6822 8.5632 84.0722L11.3757 81.2597C11.986 80.6494 12.9751 80.6494 13.5854 81.2597L16.3979 84.0722C17.0082 84.6822 17.0082 85.6716 16.3979 86.2816C16.0926 86.5866 15.6926 86.7394 15.2929 86.7394Z" fill="#8399FE"/>
</g>
<defs>
<linearGradient id="paint0_linear_143_1501" x1="38.6038" y1="122.269" x2="127.222" y2="33.6513" gradientUnits="userSpaceOnUse">
<stop stop-color="#FFBFBE"/>
<stop offset="1" stop-color="#E0F0FF"/>
</linearGradient>
<clipPath id="clip0_143_1501">
<rect width="160" height="160" fill="white"/>
</clipPath>
</defs>
</svg>
