<svg width="160" height="59" viewBox="0 0 160 59" fill="none" xmlns="http://www.w3.org/2000/svg">
<path d="M6.05549 30C5.83258 30 5.69072 29.8987 5.62993 29.696L0.24965 9.11722L0.219253 8.99563C0.219253 8.81325 0.330709 8.72206 0.55362 8.72206H4.32286C4.5255 8.72206 4.65722 8.82338 4.71802 9.02603L7.60574 21.3976C7.626 21.4787 7.6564 21.5192 7.69693 21.5192C7.73746 21.5192 7.76786 21.4787 7.78812 21.3976L10.5847 9.05643C10.6454 8.83351 10.7772 8.72206 10.9798 8.72206H14.6579C14.8808 8.72206 15.0226 8.82338 15.0834 9.02603L18.1231 21.3976C18.1434 21.4584 18.1738 21.499 18.2143 21.5192C18.2548 21.5192 18.2852 21.4787 18.3055 21.3976L21.102 9.05643C21.1628 8.83351 21.2945 8.72206 21.4972 8.72206H25.0841C25.3678 8.72206 25.4792 8.85378 25.4184 9.11722L20.4333 29.696C20.3725 29.8987 20.2307 30 20.0077 30H16.3905C16.1878 30 16.0561 29.8987 15.9953 29.696L12.8948 16.5341C12.8746 16.453 12.8442 16.4125 12.8036 16.4125C12.7631 16.4125 12.7327 16.453 12.7124 16.5341L9.82472 29.6656C9.78419 29.8885 9.65247 30 9.42956 30H6.05549ZM42.5956 12.0353C42.5956 12.1367 42.5551 12.2279 42.474 12.3089C42.4132 12.3697 42.3322 12.4001 42.2308 12.4001H32.2606C32.1593 12.4001 32.1086 12.4508 32.1086 12.5521V17.2636C32.1086 17.365 32.1593 17.4156 32.2606 17.4156H38.796C38.8973 17.4156 38.9784 17.4561 39.0391 17.5372C39.1202 17.598 39.1607 17.6791 39.1607 17.7804V20.7289C39.1607 20.8302 39.1202 20.9214 39.0391 21.0025C38.9784 21.0633 38.8973 21.0937 38.796 21.0937H32.2606C32.1593 21.0937 32.1086 21.1443 32.1086 21.2456V26.17C32.1086 26.2713 32.1593 26.322 32.2606 26.322H42.2308C42.3322 26.322 42.4132 26.3625 42.474 26.4435C42.5551 26.5043 42.5956 26.5854 42.5956 26.6867V29.6352C42.5956 29.7366 42.5551 29.8277 42.474 29.9088C42.4132 29.9696 42.3322 30 42.2308 30H28.1874C28.0861 30 27.9949 29.9696 27.9138 29.9088C27.853 29.8277 27.8226 29.7366 27.8226 29.6352V9.08682C27.8226 8.9855 27.853 8.90444 27.9138 8.84364C27.9949 8.76259 28.0861 8.72206 28.1874 8.72206H42.2308C42.3322 8.72206 42.4132 8.76259 42.474 8.84364C42.5551 8.90444 42.5956 8.9855 42.5956 9.08682V12.0353ZM58.1888 18.9051C58.0672 18.9659 58.0672 19.0267 58.1888 19.0875C60.114 20.0804 61.0765 21.732 61.0765 24.0422C61.0765 26.0079 60.4078 27.4973 59.0703 28.5105C57.7329 29.5035 55.98 30 53.8116 30H45.9388C45.8375 30 45.7463 29.9696 45.6652 29.9088C45.6044 29.8277 45.574 29.7366 45.574 29.6352V9.08682C45.574 8.9855 45.6044 8.90444 45.6652 8.84364C45.7463 8.76259 45.8375 8.72206 45.9388 8.72206H53.5685C58.3712 8.72206 60.7726 10.6675 60.7726 14.5583C60.7726 16.5848 59.9113 18.0337 58.1888 18.9051ZM50.012 12.4001C49.9107 12.4001 49.86 12.4508 49.86 12.5521V17.294C49.86 17.3954 49.9107 17.446 50.012 17.446H53.5685C54.5209 17.446 55.2606 17.2231 55.7875 16.7773C56.3143 16.3315 56.5778 15.7235 56.5778 14.9535C56.5778 14.1631 56.3143 13.5451 55.7875 13.0992C55.2606 12.6331 54.5209 12.4001 53.5685 12.4001H50.012ZM53.8116 26.2916C54.7438 26.2916 55.4733 26.0585 56.0002 25.5924C56.5271 25.1061 56.7906 24.4475 56.7906 23.6166C56.7906 22.7858 56.5271 22.1373 56.0002 21.6712C55.4733 21.1849 54.7337 20.9417 53.7812 20.9417H50.012C49.9107 20.9417 49.86 20.9923 49.86 21.0937V26.1396C49.86 26.2409 49.9107 26.2916 50.012 26.2916H53.8116Z" fill="#E60058"/>
<path d="M71.9015 30.2432C70.3411 30.2432 68.9631 29.9291 67.7675 29.3009C66.5718 28.6727 65.6397 27.8013 64.9709 26.6867C64.3225 25.5519 63.9982 24.2448 63.9982 22.7655V15.9566C63.9982 14.4772 64.3225 13.1702 64.9709 12.0353C65.6397 10.9005 66.5718 10.0291 67.7675 9.42119C68.9631 8.79298 70.3411 8.47888 71.9015 8.47888C73.4416 8.47888 74.7993 8.78285 75.9747 9.39079C77.1703 9.99873 78.0923 10.8296 78.7408 11.8834C79.4095 12.9169 79.7439 14.0719 79.7439 15.3486V15.5614C79.7439 15.6627 79.7034 15.7539 79.6223 15.835C79.5615 15.8958 79.4805 15.9262 79.3791 15.9262H75.8227C75.7214 15.9262 75.6302 15.8958 75.5491 15.835C75.4883 15.7539 75.4579 15.6627 75.4579 15.5614V15.4702C75.4579 14.538 75.1337 13.7578 74.4852 13.1296C73.8367 12.4812 72.9755 12.1569 71.9015 12.1569C70.8072 12.1569 69.9256 12.5014 69.2569 13.1904C68.6084 13.8592 68.2842 14.7407 68.2842 15.835V22.8871C68.2842 23.9814 68.6388 24.873 69.3481 25.562C70.0574 26.2308 70.9591 26.5651 72.0534 26.5651C73.1072 26.5651 73.9482 26.2916 74.5764 25.7444C75.2046 25.177 75.5187 24.3968 75.5187 23.4038V22.036C75.5187 21.9346 75.468 21.884 75.3667 21.884H71.9622C71.8609 21.884 71.7697 21.8536 71.6887 21.7928C71.6279 21.7117 71.5975 21.6205 71.5975 21.5192V18.7227C71.5975 18.6214 71.6279 18.5403 71.6887 18.4795C71.7697 18.3985 71.8609 18.3579 71.9622 18.3579H79.3791C79.4805 18.3579 79.5615 18.3985 79.6223 18.4795C79.7034 18.5403 79.7439 18.6214 79.7439 18.7227V22.7351C79.7439 24.2752 79.4197 25.6127 78.7712 26.7475C78.1227 27.8823 77.2007 28.7537 76.0051 29.3617C74.8297 29.9493 73.4618 30.2432 71.9015 30.2432ZM96.0878 30C95.8851 30 95.7534 29.8987 95.6926 29.696L94.7807 26.7171C94.7402 26.6361 94.6895 26.5955 94.6287 26.5955H87.151C87.0903 26.5955 87.0396 26.6361 86.9991 26.7171L86.1175 29.696C86.0568 29.8987 85.925 30 85.7224 30H81.862C81.7404 30 81.6492 29.9696 81.5884 29.9088C81.5276 29.8277 81.5175 29.7163 81.558 29.5744L88.1238 9.02603C88.1845 8.82338 88.3163 8.72206 88.5189 8.72206H93.2913C93.4939 8.72206 93.6256 8.82338 93.6864 9.02603L100.252 29.5744C100.272 29.615 100.283 29.6656 100.283 29.7264C100.283 29.9088 100.171 30 99.9482 30H96.0878ZM88.0934 23.0999C88.0731 23.2215 88.1136 23.2822 88.2149 23.2822H93.5648C93.6864 23.2822 93.7269 23.2215 93.6864 23.0999L90.9507 14.0719C90.9304 13.9909 90.9 13.9605 90.8595 13.9807C90.819 13.9807 90.7886 14.0111 90.7683 14.0719L88.0934 23.0999ZM109.779 30.2432C108.198 30.2432 106.81 29.9392 105.615 29.3313C104.419 28.7031 103.497 27.8317 102.849 26.7171C102.2 25.6026 101.876 24.3157 101.876 22.8567V15.835C101.876 14.3759 102.2 13.0891 102.849 11.9745C103.497 10.86 104.419 9.99873 105.615 9.39079C106.81 8.78285 108.198 8.47888 109.779 8.47888C111.339 8.47888 112.707 8.77272 113.883 9.3604C115.078 9.92781 116 10.7485 116.649 11.8226C117.318 12.8763 117.652 14.1023 117.652 15.5006C117.652 15.683 117.53 15.7944 117.287 15.835L113.731 16.0477H113.67C113.467 16.0477 113.366 15.9363 113.366 15.7134C113.366 14.6394 113.032 13.7781 112.363 13.1296C111.714 12.4812 110.853 12.1569 109.779 12.1569C108.685 12.1569 107.803 12.4812 107.134 13.1296C106.486 13.7781 106.162 14.6394 106.162 15.7134V23.0391C106.162 24.0928 106.486 24.944 107.134 25.5924C107.803 26.2409 108.685 26.5651 109.779 26.5651C110.853 26.5651 111.714 26.2409 112.363 25.5924C113.032 24.944 113.366 24.0928 113.366 23.0391C113.366 22.8162 113.487 22.7047 113.731 22.7047L117.287 22.8567C117.388 22.8567 117.469 22.8871 117.53 22.9479C117.611 23.0087 117.652 23.0796 117.652 23.1607C117.652 24.5589 117.318 25.7951 116.649 26.8691C116 27.9431 115.078 28.774 113.883 29.3617C112.707 29.9493 111.339 30.2432 109.779 30.2432ZM132.103 9.08682C132.103 8.9855 132.133 8.90444 132.194 8.84364C132.275 8.76259 132.366 8.72206 132.467 8.72206H136.024C136.125 8.72206 136.206 8.76259 136.267 8.84364C136.348 8.90444 136.389 8.9855 136.389 9.08682V29.6352C136.389 29.7366 136.348 29.8277 136.267 29.9088C136.206 29.9696 136.125 30 136.024 30H132.467C132.366 30 132.275 29.9696 132.194 29.9088C132.133 29.8277 132.103 29.7366 132.103 29.6352V21.2456C132.103 21.1443 132.052 21.0937 131.951 21.0937H125.233C125.132 21.0937 125.081 21.1443 125.081 21.2456V29.6352C125.081 29.7366 125.04 29.8277 124.959 29.9088C124.898 29.9696 124.817 30 124.716 30H121.16C121.058 30 120.967 29.9696 120.886 29.9088C120.825 29.8277 120.795 29.7366 120.795 29.6352V9.08682C120.795 8.9855 120.825 8.90444 120.886 8.84364C120.967 8.76259 121.058 8.72206 121.16 8.72206H124.716C124.817 8.72206 124.898 8.76259 124.959 8.84364C125.04 8.90444 125.081 8.9855 125.081 9.08682V17.2636C125.081 17.365 125.132 17.4156 125.233 17.4156H131.951C132.052 17.4156 132.103 17.365 132.103 17.2636V9.08682ZM153.498 30C153.295 30 153.163 29.8987 153.103 29.696L152.191 26.7171C152.15 26.6361 152.1 26.5955 152.039 26.5955H144.561C144.5 26.5955 144.45 26.6361 144.409 26.7171L143.528 29.696C143.467 29.8987 143.335 30 143.132 30H139.272C139.15 30 139.059 29.9696 138.998 29.9088C138.938 29.8277 138.928 29.7163 138.968 29.5744L145.534 9.02603C145.595 8.82338 145.726 8.72206 145.929 8.72206H150.701C150.904 8.72206 151.036 8.82338 151.096 9.02603L157.662 29.5744C157.683 29.615 157.693 29.6656 157.693 29.7264C157.693 29.9088 157.581 30 157.358 30H153.498ZM145.503 23.0999C145.483 23.2215 145.524 23.2822 145.625 23.2822H150.975C151.096 23.2822 151.137 23.2215 151.096 23.0999L148.361 14.0719C148.34 13.9909 148.31 13.9605 148.27 13.9807C148.229 13.9807 148.199 14.0111 148.178 14.0719L145.503 23.0999Z" fill="#2EB3FF"/>
<path d="M43.0765 43.5171C42.9853 44.1707 42.9701 44.4746 42.9701 44.9154C42.9701 45.3106 42.9701 46.5264 42.9701 47.104H40.8423C40.8423 46.4352 40.8423 45.3106 40.8423 44.9154C40.8423 44.4746 40.8271 44.1707 40.7359 43.5171H43.0765ZM48.1832 46.724C48.0768 47.0584 47.9552 47.6359 47.8944 47.9247C47.6208 49.3838 47.2257 50.858 46.4658 52.2411C45.2651 54.4753 42.9701 56.0863 40.2648 56.8006L38.6841 54.9768C39.3832 54.8552 40.204 54.6273 40.8423 54.3689C42.0886 53.8977 43.426 53.001 44.2924 51.7851C45.0523 50.6604 45.4474 49.2166 45.6298 47.8639H38.0914C38.0914 48.3959 38.0914 49.6269 38.0914 50.0981C38.0914 50.4325 38.1066 50.9188 38.1522 51.2228H36.0548C36.1004 50.8428 36.1156 50.3565 36.1156 49.9461C36.1156 49.4446 36.1156 47.8791 36.1156 47.3016C36.1156 46.9672 36.1156 46.3593 36.0548 46.0097C36.5715 46.0553 37.0275 46.0705 37.605 46.0705H45.6146C46.2378 46.0705 46.6025 46.0097 46.8761 45.9185L48.1832 46.724ZM52.5604 47.6967C52.8947 47.7423 53.4419 47.7727 53.7762 47.7727H60.722C61.1019 47.7727 61.5427 47.7423 61.9075 47.6967V49.5965C61.5275 49.5661 61.0715 49.5509 60.722 49.5509H53.7762C53.4419 49.5509 52.8947 49.5661 52.5604 49.5965V47.6967ZM56.132 55.4632V48.7302H58.123V55.4632H56.132ZM51.8004 54.3385C52.1804 54.3993 52.6516 54.4297 53.0467 54.4297H61.4363C61.8619 54.4297 62.2722 54.3841 62.5914 54.3385V56.3295C62.2722 56.2839 61.7099 56.2687 61.4363 56.2687H53.0467C52.6668 56.2687 52.1956 56.2839 51.8004 56.3295V54.3385ZM76.3157 43.122C76.6956 43.6995 77.1972 44.5658 77.4708 45.1282L76.2093 45.6601C75.9053 45.0218 75.4493 44.2467 75.0542 43.6387L76.3157 43.122ZM78.4283 42.7268C78.8234 43.2891 79.3554 44.2011 79.6441 44.7482L78.3827 45.2802C78.0635 44.657 77.5923 43.8059 77.1668 43.2436L78.4283 42.7268ZM77.8811 45.9793C77.7443 46.2681 77.6227 46.7088 77.5467 47.028C77.1972 48.5174 76.5284 50.8884 75.267 52.5755C73.8839 54.3993 71.8625 55.9039 69.1572 56.7702L67.5005 54.9464C70.5098 54.2473 72.2273 52.925 73.4431 51.39C74.4614 50.1285 75.039 48.3959 75.2366 47.0888C74.3247 47.0888 69.2939 47.0888 68.1541 47.0888C67.4701 47.0888 66.7406 47.1344 66.3454 47.1648V45.0066C66.8014 45.0674 67.6525 45.1434 68.1541 45.1434C69.2939 45.1434 74.3399 45.1434 75.191 45.1434C75.4949 45.1434 75.9813 45.1282 76.3765 45.0218L77.8811 45.9793ZM91.651 43.7603C92.0309 44.3226 92.5781 45.2802 92.8669 45.8425L91.651 46.3593C91.3318 45.7361 90.8607 44.8394 90.4503 44.2467L91.651 43.7603ZM93.4596 43.0764C93.8548 43.6387 94.4171 44.6114 94.6755 45.1434L93.4748 45.6601C93.1556 45.0218 92.6693 44.1403 92.2589 43.5627L93.4596 43.0764ZM87.7602 43.8971C87.7146 44.2467 87.669 44.885 87.6538 45.2498C87.4866 51.2988 86.0579 54.3689 82.699 56.7702L80.9208 55.3416C81.5592 54.992 82.3191 54.4753 82.927 53.8521C84.918 51.8763 85.6172 49.2926 85.6324 45.2954C85.6324 44.9458 85.5716 44.2619 85.5108 43.8971H87.7602ZM92.9125 47.1496C92.8669 47.3928 92.8213 47.7879 92.8213 47.9551C92.7605 49.5965 92.5629 53.8369 91.9094 55.3872C91.5902 56.1623 90.9974 56.5575 89.9639 56.5575C89.0824 56.5575 88.1857 56.4967 87.441 56.4359L87.1978 54.3993C87.9577 54.5361 88.7329 54.6121 89.3408 54.6121C89.8272 54.6121 90.0399 54.4449 90.1919 54.0801C90.6327 53.1226 90.8455 50.0829 90.8455 48.4415H83.4286C82.9118 48.4415 82.0607 48.4415 81.4224 48.5022V46.5112C82.0607 46.572 82.8358 46.6176 83.4134 46.6176H90.4503C90.8455 46.6176 91.2406 46.572 91.6054 46.5112L92.9125 47.1496ZM97.4872 45.0066C98.6575 45.037 100.998 45.0218 102.67 44.7786C104.205 44.5506 105.74 44.2163 106.5 43.8515L107.761 45.5233C107.245 45.6601 106.834 45.7665 106.591 45.8273C105.649 46.0705 104.433 46.2681 103.263 46.4352C101.53 46.6784 99.2958 46.7392 97.9736 46.7696L97.4872 45.0066ZM98.1408 55.4936C100.831 54.2625 102.032 52.2563 102.032 49.4142C102.032 49.4142 102.032 48.4263 102.032 46.2681L104.023 46.0401C104.023 47.3472 104.023 49.3686 104.023 49.3686C104.023 52.4387 103.019 55.0376 100.086 56.8006L98.1408 55.4936ZM96.3473 48.6542C96.7729 48.6846 97.2744 48.7302 97.7608 48.7302C98.7183 48.7302 106.85 48.7302 107.868 48.7302C108.187 48.7302 108.901 48.6846 109.236 48.6542V50.6148C108.825 50.5844 108.324 50.554 107.898 50.554C106.941 50.554 98.6727 50.554 97.776 50.554C97.3048 50.554 96.7425 50.5844 96.3473 50.6148V48.6542ZM116.307 46.2681C116.352 46.6328 116.459 47.028 116.55 47.4231C117.066 49.247 118.495 54.4753 118.875 55.7367C118.951 56.0103 119.164 56.6791 119.27 56.983L117.218 57.4998C117.158 57.0894 117.066 56.5879 116.945 56.1623C116.565 54.84 115.182 49.4142 114.696 47.8335C114.589 47.4535 114.422 47.0736 114.255 46.7544L116.307 46.2681ZM123.602 48.6238C122.948 49.9461 121.428 52.2411 120.365 53.3658L118.678 52.5299C119.468 51.8307 120.517 50.554 120.927 49.8093C120.137 49.9461 113.951 51.238 112.705 51.5116L112.233 49.7029C112.705 49.6573 113.13 49.6117 113.632 49.5205C114.452 49.399 120.532 48.2439 121.611 48.0007C121.869 47.9399 122.173 47.8487 122.371 47.7575L123.602 48.6238Z" fill="#E60058"/>
<line y1="36.9117" x2="159" y2="36.9117" stroke="#D4F0FF"/>
</svg>
