<svg width="120" height="120" viewBox="0 0 120 120" fill="none" xmlns="http://www.w3.org/2000/svg">
<g clip-path="url(#clip0_294_5746)">
<path d="M117.322 47.0155C119.005 43.2177 119.957 39.0238 119.998 34.6122C120.159 17.744 106.824 3.65149 89.97 2.93266C84.4409 2.69688 79.211 3.89149 74.6196 6.17712C65.4038 10.765 54.5956 10.765 45.3797 6.17712C40.7885 3.89149 35.5587 2.69688 30.0296 2.93266C13.1761 3.65172 -0.158652 17.7438 0.00142624 34.6122C0.0433794 39.0238 0.994942 43.2177 2.67775 47.0155C6.34057 55.2817 6.34057 64.7179 2.67775 72.9843C0.994942 76.7821 0.043145 80.9762 0.00142624 85.3879C-0.158652 102.256 13.1761 116.348 30.03 117.067C35.5592 117.303 40.789 116.108 45.3802 113.823C54.596 109.235 65.404 109.235 74.6196 113.823C79.2108 116.108 84.4409 117.303 89.97 117.067C106.824 116.348 120.158 102.256 119.998 85.3879C119.956 80.9762 119.005 76.7823 117.322 72.9845C113.659 64.7179 113.659 55.2817 117.322 47.0155Z" fill="url(#paint0_linear_294_5746)"/>
<path d="M105.859 38.7114H105.156V38.0083C105.156 37.361 104.631 36.8364 103.984 36.8364C103.337 36.8364 102.812 37.361 102.812 38.0083V38.7114H102.109C101.462 38.7114 100.937 39.236 100.937 39.8833C100.937 40.5306 101.462 41.0552 102.109 41.0552H102.812V41.7583C102.812 42.4056 103.337 42.9302 103.984 42.9302C104.631 42.9302 105.156 42.4056 105.156 41.7583V41.0552H105.859C106.506 41.0552 107.031 40.5306 107.031 39.8833C107.031 39.236 106.506 38.7114 105.859 38.7114Z" fill="#E60058"/>
<path d="M23.125 65.1387H22.4219V64.4355C22.4219 63.7882 21.8971 63.2637 21.25 63.2637C20.6029 63.2637 20.0781 63.7882 20.0781 64.4355V65.1387H19.375C18.7279 65.1387 18.2031 65.6632 18.2031 66.3105C18.2031 66.9579 18.7279 67.4824 19.375 67.4824H20.0781V68.1855C20.0781 68.8329 20.6029 69.3574 21.25 69.3574C21.8971 69.3574 22.4219 68.8329 22.4219 68.1855V67.4824H23.125C23.7721 67.4824 24.2969 66.9579 24.2969 66.3105C24.2969 65.6632 23.7723 65.1387 23.125 65.1387Z" fill="#3DA2FF"/>
<path d="M103.639 101.493H102.936V100.79C102.936 100.142 102.411 99.6177 101.764 99.6177C101.117 99.6177 100.592 100.142 100.592 100.79V101.493H99.8893C99.2422 101.493 98.7174 102.017 98.7174 102.665C98.7174 103.312 99.2422 103.836 99.8893 103.836H100.592V104.54C100.592 105.187 101.117 105.711 101.764 105.711C102.411 105.711 102.936 105.187 102.936 104.54V103.836H103.639C104.286 103.836 104.811 103.312 104.811 102.665C104.811 102.017 104.287 101.493 103.639 101.493Z" fill="#3DA2FF"/>
<path d="M21.2499 29.2968C20.9499 29.2968 20.6502 29.1824 20.4212 28.9535L19.3749 27.9072L18.3287 28.9535C17.871 29.4112 17.1292 29.4112 16.6714 28.9535C16.2137 28.496 16.2137 27.7539 16.6714 27.2964L18.5464 25.4214C19.0042 24.9637 19.746 24.9637 20.2037 25.4214L22.0787 27.2964C22.5364 27.7539 22.5364 28.496 22.0787 28.9535C21.8499 29.1824 21.5499 29.2968 21.2499 29.2968Z" fill="#E60058"/>
<path d="M17.4999 38.5729C17.1999 38.5729 16.9002 38.4586 16.6712 38.2296L15.6249 37.1833L14.5787 38.2296C14.121 38.6873 13.3792 38.6873 12.9214 38.2296C12.4637 37.7721 12.4637 37.03 12.9214 36.5725L14.7964 34.6975C15.2542 34.2398 15.996 34.2398 16.4537 34.6975L18.3287 36.5725C18.7864 37.03 18.7864 37.7721 18.3287 38.2296C18.0999 38.4586 17.7999 38.5729 17.4999 38.5729Z" fill="#FF9D33"/>
<path opacity="0.1" d="M99.7644 61.3111C97.5142 61.3533 95.7029 63.1906 95.7029 65.4509V62.7947C95.7029 60.7224 94.179 59.0107 92.1915 58.707V16.7529C92.1915 15.5365 91.2048 14.5498 89.9884 14.5498H30.0118C28.7954 14.5498 27.8087 15.5365 27.8087 16.7529V111.862C27.8087 113.079 28.7954 114.065 30.0118 114.065H89.9884C91.2048 114.065 92.1915 113.079 92.1915 111.862V100.608C98.9828 98.7861 103.984 92.5906 103.984 85.2242V65.5597C103.984 63.2386 102.085 61.2678 99.7644 61.3111Z" fill="#002481"/>
<path d="M92.1917 10.425V105.534C92.1917 106.751 91.2049 107.738 89.9885 107.738H30.012C28.7956 107.738 27.8088 106.751 27.8088 105.534V10.425C27.8088 9.20864 28.7956 8.22192 30.012 8.22192H89.9885C91.2049 8.22192 92.1917 9.20864 92.1917 10.425Z" fill="white"/>
<path d="M92.1915 82.355V105.535C92.1915 106.751 91.2048 107.738 89.9884 107.738H30.0118C28.7954 107.738 27.8087 106.751 27.8087 105.535V82.355H92.1915Z" fill="#FF9D33"/>
<path d="M92.1917 82.355V98.2245C90.8721 98.5784 89.4846 98.7683 88.0549 98.7683H78.5088C69.7104 98.7683 62.5784 91.6362 62.5784 82.8401V82.355H92.1917Z" fill="#FF7300"/>
<path d="M79.2798 98.7683C79.2798 99.4175 78.7548 99.9402 78.108 99.9402H41.8923C41.2455 99.9402 40.7205 99.4175 40.7205 98.7683C40.7205 98.1214 41.2455 97.5964 41.8923 97.5964H78.108C78.7548 97.5964 79.2798 98.1214 79.2798 98.7683Z" fill="white"/>
<path d="M50.432 93.0266H41.8923C41.245 93.0266 40.7205 93.5514 40.7205 94.1985C40.7205 94.8456 41.245 95.3704 41.8923 95.3704H50.432C51.0794 95.3704 51.6039 94.8456 51.6039 94.1985C51.6039 93.5514 51.0794 93.0266 50.432 93.0266Z" fill="white"/>
<path d="M74.972 94.198C74.972 94.5214 74.8408 94.8144 74.6298 95.0253C74.4166 95.2386 74.1236 95.3699 73.8002 95.3699H56.0158C55.3314 95.3699 54.783 94.7816 54.8486 94.0832C54.9072 93.4738 55.4533 93.0261 56.065 93.0261H73.8002C74.447 93.0261 74.972 93.5511 74.972 94.198Z" fill="white"/>
<path d="M73.8002 95.3699H68.6744C67.7908 94.6761 66.9822 93.891 66.2627 93.0261H73.8002C74.4471 93.0261 74.9721 93.5511 74.9721 94.198C74.9721 94.5214 74.8408 94.8144 74.6299 95.0253C74.4166 95.2386 74.1236 95.3699 73.8002 95.3699Z" fill="#FFE8DC"/>
<path d="M46.1085 89.6206C46.7557 89.6206 47.2804 89.0959 47.2804 88.4487C47.2804 87.8015 46.7557 87.2769 46.1085 87.2769C45.4613 87.2769 44.9366 87.8015 44.9366 88.4487C44.9366 89.0959 45.4613 89.6206 46.1085 89.6206Z" fill="white"/>
<path d="M42.2999 89.6206C42.9471 89.6206 43.4718 89.0959 43.4718 88.4487C43.4718 87.8015 42.9471 87.2769 42.2999 87.2769C41.6527 87.2769 41.1281 87.8015 41.1281 88.4487C41.1281 89.0959 41.6527 89.6206 42.2999 89.6206Z" fill="white"/>
<path d="M92.1918 19.6667V10.4269C92.1918 9.20886 91.2043 8.22144 89.9863 8.22144H30.0139C28.7959 8.22144 27.8085 9.20886 27.8085 10.4269V19.6667H92.1918Z" fill="#E60058"/>
<path d="M46.9969 19.6667L55.6296 8.22144H30.0131C28.7958 8.22144 27.8088 9.20839 27.8088 10.4257V19.6664L46.9969 19.6667Z" fill="#3DA2FF"/>
<path d="M84.9975 15.4555H58.4536C57.8449 15.4555 57.3513 14.9619 57.3513 14.3532C57.3513 13.7446 57.8447 13.251 58.4536 13.251H84.9977C85.6064 13.251 86.1 13.7446 86.1 14.3532C86.0998 14.9619 85.6064 15.4555 84.9975 15.4555Z" fill="#FFD9D9"/>
<path d="M74.4333 48.3187C80.9807 48.3187 86.2884 43.011 86.2884 36.4636C86.2884 29.9161 80.9807 24.6084 74.4333 24.6084C67.8859 24.6084 62.5781 29.9161 62.5781 36.4636C62.5781 43.011 67.8859 48.3187 74.4333 48.3187Z" fill="#E60058"/>
<path d="M70.9941 41.1583H69.7446C68.2193 41.1583 66.9783 39.9173 66.9783 38.392V34.5349C66.9783 33.0096 68.2193 31.7688 69.7446 31.7688H70.9941C72.5194 31.7688 73.7604 33.0096 73.7604 34.5349V38.392C73.7604 39.9173 72.5194 41.1583 70.9941 41.1583ZM69.7446 34.1128C69.5116 34.1128 69.322 34.3024 69.322 34.5351V38.3922C69.322 38.6252 69.5116 38.8148 69.7446 38.8148H70.9941C71.227 38.8148 71.4166 38.6252 71.4166 38.3922V34.5351C71.4166 34.3024 71.227 34.1128 70.9941 34.1128H69.7446Z" fill="white"/>
<path d="M80.7162 41.0552H76.4722C75.9748 41.0552 75.5319 40.7411 75.3669 40.2722C75.2016 39.8032 75.3509 39.281 75.7386 38.9693C76.9203 38.02 78.7491 36.2854 79.115 35.4002C79.2556 35.0601 79.2333 34.6849 79.0569 34.4215C78.9197 34.2164 78.7158 34.1125 78.4508 34.1125C78.0059 34.1125 77.644 34.4744 77.644 34.919C77.644 35.5664 77.1193 36.0909 76.4722 36.0909C75.8251 36.0909 75.3003 35.5664 75.3003 34.919C75.3003 33.1821 76.7136 31.7688 78.4508 31.7688C79.5005 31.7688 80.4315 32.2607 81.0052 33.1186C81.62 34.038 81.7231 35.2256 81.2811 36.2955C80.9637 37.0629 80.2503 37.9354 79.5012 38.7115H80.7162C81.3633 38.7115 81.8881 39.236 81.8881 39.8833C81.8881 40.5307 81.3633 41.0552 80.7162 41.0552Z" fill="white"/>
<path d="M45.5672 76.9513C52.1146 76.9513 57.4224 71.6435 57.4224 65.0961C57.4224 58.5487 52.1146 53.241 45.5672 53.241C39.0198 53.241 33.712 58.5487 33.712 65.0961C33.712 71.6435 39.0198 76.9513 45.5672 76.9513Z" fill="#FF9D33"/>
<path d="M42.2747 69.7909H41.0252C39.4999 69.7909 38.2589 68.5499 38.2589 67.0246V63.1675C38.2589 61.6421 39.4999 60.4011 41.0252 60.4011H42.2747C43.8 60.4011 45.041 61.6421 45.041 63.1675V67.0246C45.041 68.5499 43.8 69.7909 42.2747 69.7909ZM41.0252 62.7451C40.7923 62.7451 40.6027 62.9347 40.6027 63.1677V67.0248C40.6027 67.2578 40.7923 67.4474 41.0252 67.4474H42.2747C42.5077 67.4474 42.6973 67.2578 42.6973 67.0248V63.1677C42.6973 62.9347 42.5077 62.7451 42.2747 62.7451H41.0252Z" fill="#8383FF"/>
<path d="M49.9423 66.268H47.7406C47.0935 66.268 46.5687 65.7435 46.5687 65.0961C46.5687 64.4488 47.0935 63.9243 47.7406 63.9243H49.9423C50.2674 63.9243 50.532 63.6596 50.532 63.3346C50.532 63.0095 50.2676 62.7449 49.9423 62.7449H47.7406C47.0935 62.7449 46.5687 62.2203 46.5687 61.573C46.5687 60.9257 47.0935 60.4011 47.7406 60.4011H49.9423C51.5597 60.4011 52.8758 61.7169 52.8758 63.3346C52.8758 64.9522 51.5597 66.268 49.9423 66.268Z" fill="#8383FF"/>
<path d="M49.9423 69.7909H47.7406C47.0935 69.7909 46.5687 69.2664 46.5687 68.6191C46.5687 67.9717 47.0935 67.4472 47.7406 67.4472H49.9423C50.2674 67.4472 50.532 67.1826 50.532 66.8575C50.532 66.5324 50.2676 66.2678 49.9423 66.2678H47.7406C47.0935 66.2678 46.5687 65.7433 46.5687 65.0959C46.5687 64.4486 47.0935 63.9241 47.7406 63.9241H49.9423C51.5597 63.9241 52.8758 65.2399 52.8758 66.8575C52.8758 68.4752 51.5597 69.7909 49.9423 69.7909Z" fill="#8383FF"/>
<path d="M74.4333 76.9513C80.9807 76.9513 86.2884 71.6435 86.2884 65.0961C86.2884 58.5487 80.9807 53.241 74.4333 53.241C67.8859 53.241 62.5781 58.5487 62.5781 65.0961C62.5781 71.6435 67.8859 76.9513 74.4333 76.9513Z" fill="#FF9D33"/>
<path d="M45.5672 48.3187C52.1146 48.3187 57.4224 43.011 57.4224 36.4636C57.4224 29.9161 52.1146 24.6084 45.5672 24.6084C39.0198 24.6084 33.712 29.9161 33.712 36.4636C33.712 43.011 39.0198 48.3187 45.5672 48.3187Z" fill="#FF9D33"/>
<path d="M43.6123 41.1583H42.3626C40.8373 41.1583 39.5963 39.9173 39.5963 38.392V34.5349C39.5963 33.0096 40.8373 31.7688 42.3626 31.7688H43.6123C45.1376 31.7688 46.3787 33.0096 46.3787 34.5349V38.392C46.3787 39.9173 45.1376 41.1583 43.6123 41.1583ZM42.3629 34.1128C42.1299 34.1128 41.9403 34.3024 41.9403 34.5351V38.3922C41.9403 38.6252 42.1299 38.8148 42.3629 38.8148H43.6126C43.8455 38.8148 44.0351 38.6252 44.0351 38.3922V34.5351C44.0351 34.3024 43.8455 34.1128 43.6126 34.1128H42.3629Z" fill="#8383FF"/>
<path d="M50.3661 41.1583C49.719 41.1583 49.1943 40.6338 49.1943 39.9865V34.1125H49.0902C48.4431 34.1125 47.9183 33.588 47.9183 32.9407C47.9183 32.2933 48.4431 31.7688 49.0902 31.7688H50.3661C51.0133 31.7688 51.538 32.2933 51.538 32.9407V39.9865C51.538 40.6338 51.0135 41.1583 50.3661 41.1583Z" fill="#8383FF"/>
<path d="M99.7645 54.983C97.5143 55.0252 95.703 56.8624 95.703 59.1227V56.4666C95.703 54.1798 93.8491 52.3259 91.5623 52.3259C89.2755 52.3259 87.4216 54.1798 87.4216 56.4666V54.7479C87.4216 52.4611 85.5677 50.6072 83.2809 50.6072C80.9941 50.6072 79.1402 52.4611 79.1402 54.7479V41.7314C79.1402 39.4106 77.2411 37.4395 74.9205 37.4831C72.6703 37.5253 70.859 39.3626 70.859 41.6231V66.3106C70.859 64.0238 69.0051 62.1699 66.7183 62.1699C64.4315 62.1699 62.5776 64.0238 62.5776 66.3106V78.896C62.5776 87.694 69.7099 94.8263 78.5079 94.8263H88.0537C96.8517 94.8263 103.984 87.694 103.984 78.896V59.2315C103.984 56.9105 102.085 54.9396 99.7645 54.983Z" fill="#3DA2FF"/>
<path d="M44.9298 106.566H30.013C29.4437 106.566 28.9806 106.102 28.9806 105.533V10.4257C28.9806 9.85644 29.4437 9.39331 30.013 9.39331H89.9875C90.5568 9.39331 91.0199 9.85667 91.0199 10.4257V32.5859C91.0199 33.2332 91.5447 33.7578 92.1918 33.7578C92.8389 33.7578 93.3636 33.2332 93.3636 32.5859V10.4257C93.3636 8.56409 91.8491 7.04956 89.9875 7.04956H30.013C28.1514 7.04956 26.6368 8.56409 26.6368 10.4257V105.533C26.6368 107.395 28.1514 108.909 30.013 108.909H44.9298C45.5769 108.909 46.1017 108.385 46.1017 107.737C46.1017 107.09 45.5769 106.566 44.9298 106.566Z" fill="#002481"/>
<path d="M103.512 55.331C102.487 54.3248 101.145 53.7754 99.7425 53.8115C98.5805 53.8333 97.5061 54.2362 96.6385 54.8981C96.1458 53.3069 94.9224 52.0361 93.3638 51.4722V39.7582C93.3638 39.1108 92.839 38.5863 92.1919 38.5863C91.5448 38.5863 91.02 39.1108 91.02 39.7582V51.184C89.8999 51.2981 88.8813 51.7598 88.076 52.4615C87.2199 50.6735 85.3924 49.4355 83.2812 49.4355C82.1824 49.4355 81.1606 49.7709 80.3124 50.3444V41.7316C80.3124 40.2783 79.7131 38.8565 78.6684 37.8311C77.6431 36.825 76.3081 36.2822 74.8988 36.3117C72.0251 36.3654 69.6874 38.7483 69.6874 41.6231V61.9071C68.8392 61.3336 67.8174 60.9982 66.7186 60.9982C63.7892 60.9982 61.406 63.3813 61.406 66.3105V78.896C61.406 88.3261 69.0781 95.9981 78.5081 95.9981H88.054C89.0658 95.9981 90.0558 95.9048 91.0198 95.7354V105.533C91.0198 106.103 90.5567 106.566 89.9874 106.566H52.1018C51.4547 106.566 50.9299 107.09 50.9299 107.738C50.9299 108.385 51.4547 108.91 52.1018 108.91H89.9874C91.849 108.91 93.3635 107.395 93.3635 105.533V95.1501C100.201 92.9107 105.156 86.4729 105.156 78.896V59.2317C105.156 57.7781 104.557 56.3564 103.512 55.331ZM102.812 78.896C102.812 87.0337 96.1917 93.6544 88.054 93.6544H78.5081C70.3704 93.6544 63.7498 87.0337 63.7498 78.896V66.3105C63.7498 64.6737 65.0815 63.3419 66.7186 63.3419C68.3555 63.3419 69.6874 64.6737 69.6874 66.3105V77.0524C69.6874 77.6997 70.2122 78.2243 70.8593 78.2243C71.5064 78.2243 72.0312 77.6997 72.0312 77.0524V66.3105V41.6231C72.0312 40.0167 73.3374 38.685 74.9428 38.655C75.7132 38.6475 76.4543 38.9423 77.0269 39.5039C77.6255 40.0915 77.9688 40.9036 77.9688 41.7316V54.7481V66.1544C77.9688 66.8018 78.4936 67.3263 79.1407 67.3263C79.7878 67.3263 80.3126 66.8018 80.3126 66.1544V54.7481C80.3126 53.1112 81.6443 51.7793 83.2814 51.7793C84.9185 51.7793 86.2502 53.1112 86.2502 54.7481V56.4668V66.1544C86.2502 66.8018 86.775 67.3263 87.4221 67.3263C88.0692 67.3263 88.594 66.8018 88.594 66.1544V56.4668C88.594 54.8299 89.9257 53.4982 91.5628 53.4982C93.1997 53.4982 94.5317 54.8299 94.5317 56.4668V59.1232V66.1544C94.5317 66.8018 95.0564 67.3263 95.7035 67.3263C96.3506 67.3263 96.8754 66.8018 96.8754 66.1544V59.1232C96.8754 57.5168 98.1816 56.1851 99.787 56.1548C100.557 56.1501 101.298 56.4422 101.871 57.0037C102.47 57.5915 102.813 58.4034 102.813 59.2317V78.896H102.812Z" fill="#002481"/>
<path d="M79.2799 98.7681H78.5088C76.3831 98.7681 74.3581 98.3532 72.5042 97.5962H78.1081C78.7549 97.5962 79.2799 98.1212 79.2799 98.7681Z" fill="#FFE8DC"/>
</g>
<defs>
<linearGradient id="paint0_linear_294_5746" x1="118.001" y1="126.647" x2="4.78692" y2="-3.44376" gradientUnits="userSpaceOnUse">
<stop stop-color="#FFD9D9" stop-opacity="0"/>
<stop offset="0.9981" stop-color="#FFB3B3"/>
</linearGradient>
<clipPath id="clip0_294_5746">
<rect width="120" height="120" fill="white"/>
</clipPath>
</defs>
</svg>
