<svg width="120" height="120" viewBox="0 0 120 120" fill="none" xmlns="http://www.w3.org/2000/svg">
<g clip-path="url(#clip0_294_5990)">
<path d="M114.249 108.293C99.7752 136.607 61.798 104.051 37.7624 101.148C27.6331 99.9243 25.0417 110.453 11.8487 110.453C0.0183667 110.453 -6.53523 90.5578 9.67766 84.9016C49.3724 71.0531 31.0281 16.8375 49.303 3.18209C54.999 -1.07416 63.3739 -0.430095 69.5579 3.08178C84.6927 11.6768 67.0616 32.9571 72.3749 46.2337C84.2762 75.9729 137.329 63.1453 114.249 108.293Z" fill="url(#paint0_linear_294_5990)"/>
<path opacity="0.1" d="M107.898 45.6676C107.898 41.0877 105.843 36.9901 102.608 34.2388C105.591 32.8775 107.665 29.8707 107.665 26.3776C107.665 21.6064 103.797 17.7385 99.0263 17.7385C94.2551 17.7385 90.3872 21.6064 90.3872 26.3776C90.3872 27.9652 90.8173 29.4517 91.5647 30.7299C89.2831 30.931 87.1487 31.6421 85.2753 32.75L60.4697 21.9003C60.1704 21.7693 59.8299 21.7693 59.5306 21.9003L17.6368 40.2238C17.2102 40.4103 16.9346 40.8317 16.9346 41.2974V67.4706C10.009 69.181 4.87271 75.4327 4.87271 82.8866C4.87271 92.1125 16.8357 105.607 19.9962 109.011C20.4064 109.453 21.1027 109.453 21.5126 109.011C23.2219 107.17 27.5049 102.378 31.0787 96.9057L59.5306 109.35C59.8299 109.481 60.1704 109.481 60.4697 109.35L102.363 91.0267C102.79 90.8401 103.066 90.4187 103.066 89.953V56.6931C106.036 53.9523 107.898 50.0281 107.898 45.6676Z" fill="#002481"/>
<path d="M60.0004 16.0698L40.9344 24.4089L41.0844 25.6614L38.0113 25.6874L16.9349 34.9056L18.1068 36.6972L60.0004 54.9133L101.894 36.7L103.066 34.9056L60.0004 16.0698Z" fill="#FFAA66"/>
<path d="M84.0047 43.2423L81.082 44.522L38.0109 25.6876L40.9336 24.408L84.0047 43.2423Z" fill="#FF8A00"/>
<path d="M90.2415 40.5142L84.005 43.2428L81.8732 43.2674L81.0822 44.5218L73.7415 47.733L63.2593 43.1488C62.3228 42.7394 62.323 41.4109 63.2593 41.0015L68.1451 38.8649L71.0771 38.9008L71.0694 37.5859L76.4263 35.2434C76.9637 35.0083 77.5745 35.0078 78.1124 35.2415L90.2415 40.5142Z" fill="#FFC498"/>
<path d="M84.0048 43.2421L81.0821 44.5218L68.1446 38.864L71.0696 37.5867L84.0048 43.2421Z" fill="#FF9C33"/>
<path d="M60.0002 53.7415L61.172 54.5082V102.48L60.0002 103.93L16.9347 85.0944V34.9058L60.0002 53.7415Z" fill="#FF9C33"/>
<path d="M36.6352 82.8869C36.6352 85.7955 35.4469 89.1283 33.7196 92.4353L16.9337 85.0947V67.4697C18.1571 67.165 19.4368 67.0056 20.754 67.0056C29.5266 67.0056 36.6352 74.1142 36.6352 82.8869Z" fill="#FF8A00"/>
<path d="M22.7941 81.2618V43.8638L54.1408 57.574V94.972L22.7941 81.2618Z" fill="#FFC498"/>
<path d="M36.6352 82.8866C36.6352 84.1968 36.3938 85.589 35.9719 87.0257L22.793 81.2624V67.1343C30.6024 68.1351 36.6352 74.8054 36.6352 82.8866Z" fill="#FFAA66"/>
<path d="M60.0001 53.7415V103.93L66.1683 101.232L67.34 99.4407L79.8922 93.9507L81.064 94.7173L103.066 85.0944V34.9058L90.2417 40.5146L89.0077 42.2262L74.934 48.3819L73.741 47.7317L60.0001 53.7415Z" fill="#FFC498"/>
<path d="M103.067 34.9055V56.693C100.395 59.161 96.8228 60.668 92.8993 60.668C84.6962 60.668 78.0306 54.0821 77.9017 45.9118L103.067 34.9055Z" fill="#FFAA66"/>
<path d="M90.2415 44.7754V63.6362C90.2415 64.4744 89.7453 65.233 88.9772 65.5689L75.4039 71.5051C74.6298 71.8438 73.7623 71.2764 73.7623 70.4315V51.9848L90.2415 44.7754Z" fill="#FFAA66"/>
<path d="M90.2415 40.5142V59.375C90.2415 60.2131 89.7453 60.9718 88.9772 61.3077L84.0209 63.4754L82.5514 62.9462L81.0819 64.7607L75.4039 67.2439C74.6298 67.5826 73.7623 67.0152 73.7623 66.1703V47.7235L81.0816 44.5215L82.8303 44.9284L84.0045 43.2428L90.2415 40.5142Z" fill="#FFD5BA"/>
<path d="M90.2415 40.5142V59.3743C90.2415 59.7353 90.1501 60.0798 89.9837 60.3845C83.1728 59.0439 78.0142 53.0884 77.9017 45.9118L90.2415 40.5142Z" fill="#FFC498"/>
<path d="M84.0049 43.2422L84.0213 63.4753L81.0822 64.7606V44.5219L84.0049 43.2422Z" fill="#FFAA66"/>
<path d="M84.0166 57.7547C82.9127 56.9437 81.9236 55.9852 81.0822 54.9047V44.5219L84.0049 43.2422L84.0166 57.7547Z" fill="#FF8A00"/>
<path d="M66.1683 86.7678V101.232L81.064 94.7171V80.2545L79.8922 79.595L67.34 85.0836L66.1683 86.7678Z" fill="white"/>
<path d="M95.8732 83.4725C95.4216 83.4725 94.9913 83.21 94.7988 82.7698C94.5396 82.1769 94.8099 81.4859 95.4028 81.2265L97.8197 80.1692C98.4129 79.9095 99.1036 80.1802 99.3631 80.7732C99.6223 81.3662 99.352 82.0571 98.7591 82.3166L96.3422 83.3738C96.1891 83.4409 96.03 83.4725 95.8732 83.4725Z" fill="white"/>
<path d="M95.8732 79.3819C95.4216 79.3819 94.9913 79.1194 94.7988 78.6793C94.5396 78.0863 94.8099 77.3954 95.4028 77.1359L97.8197 76.0786C98.4129 75.819 99.1036 76.0897 99.3631 76.6826C99.6223 77.2756 99.352 77.9665 98.7591 78.226L96.3422 79.2832C96.1891 79.3503 96.03 79.3819 95.8732 79.3819Z" fill="white"/>
<path d="M36.6359 77.2614C36.6359 86.4859 24.6769 99.9775 21.514 103.384C21.1036 103.827 20.4052 103.827 19.9946 103.384C16.8317 99.9775 4.87271 86.4859 4.87271 77.2614C4.87271 68.4901 11.9832 61.3796 20.7544 61.3796C29.5257 61.3796 36.6359 68.4903 36.6359 77.2614Z" fill="#E60058"/>
<path d="M20.7545 87.1408C26.2107 87.1408 30.6339 82.7177 30.6339 77.2615C30.6339 71.8052 26.2107 67.3821 20.7545 67.3821C15.2983 67.3821 10.8751 71.8052 10.8751 77.2615C10.8751 82.7177 15.2983 87.1408 20.7545 87.1408Z" fill="white"/>
<path d="M16.2257 78.4333C16.8729 78.4333 17.3976 77.9087 17.3976 77.2615C17.3976 76.6143 16.8729 76.0896 16.2257 76.0896C15.5785 76.0896 15.0538 76.6143 15.0538 77.2615C15.0538 77.9087 15.5785 78.4333 16.2257 78.4333Z" fill="#FF9C33"/>
<path d="M20.7545 78.4333C21.4017 78.4333 21.9264 77.9087 21.9264 77.2615C21.9264 76.6143 21.4017 76.0896 20.7545 76.0896C20.1073 76.0896 19.5826 76.6143 19.5826 77.2615C19.5826 77.9087 20.1073 78.4333 20.7545 78.4333Z" fill="#FF9C33"/>
<path d="M25.2831 78.4333C25.9303 78.4333 26.4549 77.9087 26.4549 77.2615C26.4549 76.6143 25.9303 76.0896 25.2831 76.0896C24.6358 76.0896 24.1112 76.6143 24.1112 77.2615C24.1112 77.9087 24.6358 78.4333 25.2831 78.4333Z" fill="#FF9C33"/>
<path d="M92.8982 55.0425C101.182 55.0425 107.898 48.3268 107.898 40.0425C107.898 31.7582 101.182 25.0425 92.8982 25.0425C84.6139 25.0425 77.8982 31.7582 77.8982 40.0425C77.8982 48.3268 84.6139 55.0425 92.8982 55.0425Z" fill="#3DA2FF"/>
<path d="M105.572 32.0156C103.988 33.8531 101.641 35.0156 99.0258 35.0156C94.2563 35.0156 90.3867 31.1484 90.3867 26.3766C90.3867 25.9922 90.4125 25.6125 90.4617 25.2422C91.2563 25.1109 92.0695 25.043 92.8992 25.043C98.2312 25.043 102.912 27.825 105.572 32.0156Z" fill="#2B99FF"/>
<path d="M103.903 40.0429C103.903 43.0827 102.67 45.8319 100.68 47.8241L98.7543 47.5387L91.7273 40.5116V30.6777L92.8992 29.0366C98.9765 29.0366 103.903 33.9632 103.903 40.0429Z" fill="white"/>
<path d="M102.326 34.3616C101.309 34.7835 100.195 35.0155 99.0259 35.0155C95.2548 35.0155 92.0439 32.5968 90.8673 29.2241C91.5259 29.0999 92.2056 29.0366 92.8993 29.0366C96.8978 29.0366 100.399 31.1694 102.326 34.3616Z" fill="#E1F1FF"/>
<path d="M100.68 47.8239C98.6877 49.8161 95.9361 51.0465 92.8986 51.0465C86.8213 51.0465 81.8924 46.12 81.8924 40.0426C81.8924 33.9653 86.8213 29.0364 92.8986 29.0364V40.0426L100.68 47.8239Z" fill="#FFAA66"/>
<path d="M92.8993 29.0366V32.4632C91.997 31.5585 91.2962 30.4546 90.8673 29.2241C90.8673 29.2241 90.8697 29.2241 90.872 29.2218C91.5282 29.0999 92.2056 29.0366 92.8993 29.0366Z" fill="#FF9C33"/>
<path d="M92.898 41.4185C93.658 41.4185 94.2741 40.8025 94.2741 40.0425C94.2741 39.2826 93.658 38.6665 92.898 38.6665C92.1381 38.6665 91.522 39.2826 91.522 40.0425C91.522 40.8025 92.1381 41.4185 92.898 41.4185Z" fill="white"/>
<path d="M98.5592 45.5822C99.0149 45.1225 99.0116 44.3805 98.5517 43.9249L95.7606 41.1586C95.9462 40.7154 96.0322 40.2206 95.9905 39.7026C95.874 38.2598 94.5193 36.9349 93.0744 36.8496C91.197 36.7385 89.6504 38.2987 89.7777 40.1749C89.8756 41.6191 91.2123 42.9623 92.6563 43.0661C93.1749 43.1034 93.669 43.0129 94.1108 42.8233L96.902 45.5897C97.3616 46.0451 98.1036 46.0418 98.5592 45.5822ZM92.8824 39.1877C93.3078 39.1858 93.6554 39.5304 93.6573 39.9558C93.6591 40.3811 93.3146 40.7287 92.8892 40.7306C92.4638 40.7325 92.116 40.3879 92.1141 39.9626C92.1123 39.5372 92.4568 39.1896 92.8824 39.1877Z" fill="#3DA2FF"/>
<path d="M99.0266 29.3916C103.798 29.3916 107.666 25.5238 107.666 20.7526C107.666 15.9814 103.798 12.1135 99.0266 12.1135C94.2553 12.1135 90.3875 15.9814 90.3875 20.7526C90.3875 25.5238 94.2553 29.3916 99.0266 29.3916Z" fill="#FF9C33"/>
<path d="M16.2931 33.9252C15.9621 34.1417 15.7627 34.5104 15.7627 34.906V60.9552C8.78745 63.0948 3.70081 69.5947 3.70081 77.2618C3.70081 86.814 15.5149 100.282 19.1356 104.182C19.5521 104.631 20.142 104.888 20.7537 104.888H20.7542C21.3659 104.888 21.9558 104.631 22.3725 104.182C25.9934 100.282 37.8075 86.814 37.8075 77.2618C37.8075 67.8585 30.1573 60.2082 20.7539 60.2082C19.8532 60.2082 18.9692 60.2797 18.106 60.4147V36.6974L58.8282 54.5082V102.139L37.5961 92.852C37.0029 92.5925 36.312 92.8632 36.0528 93.4562C35.7935 94.0492 36.064 94.7401 36.6567 94.9993L59.5303 105.004C59.6808 105.07 59.8407 105.102 60 105.102C60.1599 105.102 60.3188 105.068 60.4671 105.003C60.4676 105.003 60.469 105.004 60.4697 105.004L103.535 86.1681C103.962 85.9815 104.237 85.5601 104.237 85.0944V58.4232C104.237 57.7761 103.713 57.2513 103.065 57.2513C102.418 57.2513 101.894 57.7761 101.894 58.4232V84.3278L61.1719 102.139V54.5082L78.3087 47.0129C80.9168 52.4506 86.4764 56.2149 92.8992 56.2149C101.817 56.2149 109.071 48.9603 109.071 40.0431C109.071 35.8433 107.444 31.8467 104.564 28.8456C107.142 27.076 108.837 24.1088 108.837 20.7524C108.837 15.3425 104.436 10.9417 99.0265 10.9417C93.6169 10.9417 89.2158 15.3427 89.2158 20.7524C89.2158 21.9528 89.4335 23.1031 89.8299 24.167C88.2064 24.4789 86.6501 25.0363 85.2089 25.816L60.4697 14.9949C60.1704 14.8639 59.8299 14.8639 59.5303 14.9949C59.5303 14.9952 16.2961 33.9235 16.2931 33.9252ZM35.464 77.2613C35.464 86.0703 23.4394 99.575 20.7542 102.48C18.068 99.5738 6.04432 86.0699 6.04432 77.2613C6.04432 69.1503 12.6432 62.5515 20.7542 62.5515C28.8652 62.5515 35.464 69.1506 35.464 77.2613ZM99.0265 13.2854C103.144 13.2854 106.493 16.6351 106.493 20.7524C106.493 24.8696 103.144 28.2195 99.0265 28.2195C94.9092 28.2195 91.5596 24.8699 91.5596 20.7524C91.5596 16.6349 94.909 13.2854 99.0265 13.2854ZM99.0265 30.5633C100.202 30.5633 101.33 30.3549 102.376 29.9738C105.149 32.5864 106.727 36.2169 106.727 40.0431C106.727 47.668 100.524 53.8712 92.8992 53.8712C85.2743 53.8712 79.0711 47.668 79.0711 40.0431C79.0711 33.058 84.1416 27.2888 90.9757 26.3495C92.7499 28.8941 95.6963 30.5633 99.0265 30.5633ZM19.8584 34.9056L60 17.3481L82.8776 27.3549C82.2113 27.882 81.5806 28.4609 80.9967 29.0949C78.2438 32.086 76.7274 35.9741 76.7274 40.0431C76.7274 41.709 76.981 43.3166 77.4509 44.8299L60 52.4626L19.8584 34.9056Z" fill="#002481"/>
<path d="M97.9306 24.1324C97.6308 24.1324 97.3306 24.018 97.102 23.7893L94.8771 21.5644C94.4194 21.1066 94.4194 20.3646 94.8771 19.9071C95.3344 19.4496 96.0769 19.4496 96.5341 19.9071L97.9306 21.3035L101.519 17.7157C101.976 17.2582 102.718 17.2582 103.176 17.7157C103.633 18.1734 103.633 18.9154 103.176 19.3729L98.7591 23.7893C98.5306 24.018 98.2306 24.1324 97.9306 24.1324Z" fill="white"/>
<path d="M81.0634 75.7289V80.2547L66.1689 86.768V81.8321C66.1689 80.993 66.6634 80.2336 67.4322 79.8985L79.4228 74.6555C80.1962 74.3157 81.0634 74.8829 81.0634 75.7289Z" fill="#6C6CFF"/>
<path d="M30.5819 36.2134C30.1303 36.2134 29.7002 35.9509 29.5075 35.5108C29.2483 34.9178 29.5186 34.2269 30.1115 33.9677L37.8253 30.5929C38.418 30.333 39.109 30.6039 39.3686 31.1969C39.6279 31.7899 39.3576 32.4808 38.7647 32.74L31.0509 36.1148C30.8981 36.1816 30.7387 36.2134 30.5819 36.2134Z" fill="#FFD5BA"/>
<path d="M35.8582 38.521C35.4066 38.521 34.9763 38.2585 34.7839 37.8183C34.5246 37.2254 34.7949 36.5344 35.3878 36.2752L43.1018 32.9005C43.6948 32.6408 44.386 32.9112 44.6452 33.5044C44.9044 34.0974 44.6342 34.7883 44.0412 35.0476L36.3272 38.4223C36.1744 38.4894 36.015 38.521 35.8582 38.521Z" fill="#FFD5BA"/>
<path d="M41.1329 40.8285C40.6812 40.8285 40.2512 40.566 40.0585 40.1258C39.7993 39.5328 40.0695 38.8419 40.6625 38.5827L48.3762 35.2079C48.9694 34.948 49.6599 35.2187 49.9196 35.8119C50.1788 36.4049 49.9086 37.0958 49.3156 37.355L41.6019 40.7298C41.4491 40.7968 41.2897 40.8285 41.1329 40.8285Z" fill="#FFD5BA"/>
<path d="M86.4754 12.9828C86.0182 12.5253 85.2757 12.5253 84.8184 12.9828L84.0827 13.7185C83.0097 13.2905 81.7366 13.5096 80.8699 14.3766C79.7086 15.5379 79.7086 17.4272 80.8699 18.5886C81.4504 19.1691 82.2129 19.4595 82.9758 19.4595C83.7384 19.4595 84.5011 19.1691 85.0814 18.5886C85.9486 17.7214 86.1675 16.4485 85.7397 15.3757L86.4754 14.64C86.9332 14.1823 86.9332 13.4403 86.4754 12.9828ZM83.4243 16.9311C83.1766 17.1788 82.7747 17.1783 82.5269 16.9311C82.2797 16.6838 82.2797 16.2811 82.5269 16.0339C82.6507 15.9101 82.8133 15.8482 82.9758 15.8482C83.1379 15.8482 83.3006 15.9101 83.4243 16.0339C83.6716 16.2811 83.6716 16.6838 83.4243 16.9311Z" fill="#F12372"/>
<path d="M99.9836 101.476C99.3362 101.476 98.8117 100.951 98.8117 100.304C98.8117 99.4856 98.1458 98.8197 97.3274 98.8197C96.68 98.8197 96.1555 98.295 96.1555 97.6479C96.1555 97.0008 96.68 96.476 97.3274 96.476C98.1458 96.476 98.8117 95.8101 98.8117 94.9917C98.8117 94.3446 99.3362 93.8198 99.9836 93.8198C100.631 93.8198 101.155 94.3446 101.155 94.9917C101.155 95.8101 101.822 96.476 102.64 96.476C103.287 96.476 103.812 97.0008 103.812 97.6479C103.812 98.295 103.287 98.8197 102.64 98.8197C101.822 98.8197 101.155 99.4856 101.155 100.304C101.155 100.951 100.631 101.476 99.9836 101.476Z" fill="#F12372"/>
<path d="M73.4359 12.609C72.7886 12.609 72.2641 12.0842 72.2641 11.4371C72.2641 10.6187 71.598 9.9528 70.7795 9.9528C70.1322 9.9528 69.6077 9.42804 69.6077 8.78093C69.6077 8.13382 70.1322 7.60905 70.7795 7.60905C71.598 7.60905 72.2641 6.94319 72.2641 6.12476C72.2641 5.47765 72.7886 4.95288 73.4359 4.95288C74.0833 4.95288 74.6078 5.47765 74.6078 6.12476C74.6078 6.94319 75.2737 7.60905 76.0921 7.60905C76.7395 7.60905 77.264 8.13382 77.264 8.78093C77.264 9.42804 76.7395 9.9528 76.0921 9.9528C75.2737 9.9528 74.6078 10.6187 74.6078 11.4371C74.6078 12.0842 74.0833 12.609 73.4359 12.609Z" fill="#6C6CFF"/>
<path d="M7.52885 59.8314C6.88151 59.8314 6.35698 59.3066 6.35698 58.6595C6.35698 57.8411 5.69112 57.1752 4.87268 57.1752C4.22534 57.1752 3.70081 56.6505 3.70081 56.0033C3.70081 55.3562 4.22534 54.8315 4.87268 54.8315C5.69112 54.8315 6.35698 54.1656 6.35698 53.3472C6.35698 52.7001 6.88151 52.1753 7.52885 52.1753C8.1762 52.1753 8.70073 52.7001 8.70073 53.3472C8.70073 54.1656 9.36682 54.8315 10.1853 54.8315C10.8326 54.8315 11.3571 55.3562 11.3571 56.0033C11.3571 56.6505 10.8326 57.1752 10.1853 57.1752C9.36682 57.1752 8.70073 57.8411 8.70073 58.6595C8.70073 59.3066 8.1762 59.8314 7.52885 59.8314Z" fill="#FF9C33"/>
<path d="M45.8506 112.004C45.2033 112.004 44.6787 111.479 44.6787 110.832C44.6787 110.013 44.0127 109.348 43.1942 109.348C42.5469 109.348 42.0223 108.823 42.0223 108.176C42.0223 107.529 42.5469 107.004 43.1942 107.004C44.0127 107.004 44.6787 106.338 44.6787 105.52C44.6787 104.872 45.2033 104.348 45.8506 104.348C46.498 104.348 47.0225 104.872 47.0225 105.52C47.0225 106.338 47.6884 107.004 48.5068 107.004C49.1541 107.004 49.6787 107.529 49.6787 108.176C49.6787 108.823 49.1541 109.348 48.5068 109.348C47.6884 109.348 47.0225 110.013 47.0225 110.832C47.0225 111.479 46.498 112.004 45.8506 112.004Z" fill="#FF9C33"/>
</g>
<defs>
<linearGradient id="paint0_linear_294_5990" x1="17.6389" y1="120.659" x2="102.755" y2="35.5422" gradientUnits="userSpaceOnUse">
<stop stop-color="white" stop-opacity="0"/>
<stop offset="0.2617" stop-color="#A4D4FF" stop-opacity="0.24"/>
<stop offset="0.629" stop-color="#A4D3FF"/>
</linearGradient>
<clipPath id="clip0_294_5990">
<rect width="120" height="120" fill="white"/>
</clipPath>
</defs>
</svg>
