<svg width="123" height="123" viewBox="0 0 123 123" fill="none" xmlns="http://www.w3.org/2000/svg">
<g clip-path="url(#clip0_294_6159)">
<path d="M122.465 92.0237C119.919 78.8468 103.764 72.8487 94.4694 64.0421C79.9662 50.3005 128.844 46.0056 117.934 21.3093C110.79 5.1374 92.8002 9.16276 72.5715 9.96371C50.4279 10.8401 23.8597 -6.00395 6.28942 14.7566C-8.84895 32.6438 6.68437 52.4806 17.8606 67.2661C30.2977 83.7195 9.73126 101.185 33.4371 115.503C51.712 126.541 65.4214 105.266 81.6764 102.787C96.3081 100.557 127.453 117.839 122.465 92.0237Z" fill="url(#paint0_linear_294_6159)"/>
<path opacity="0.1" d="M95.4713 68.521V45.5175C96.4248 45.7611 97.4237 45.8911 98.4528 45.8911C105.087 45.8911 110.465 40.5132 110.465 33.8794C110.465 27.2456 105.087 21.8677 98.4528 21.8677C93.2563 21.8677 88.8312 25.168 87.1572 29.7868H42.909C42.0857 29.7868 41.4181 30.4544 41.4181 31.2777V35.6271C40.018 35.8553 38.6736 36.5076 37.5943 37.5877L35.8117 39.3702L34.0292 37.5877C31.2929 34.849 26.8534 34.849 24.1147 37.5877C22.7454 38.957 22.0631 40.7515 22.0631 42.5437C22.0631 44.3382 22.7454 46.1328 24.1147 47.5021L35.3312 58.7163C35.5955 58.9829 36.0279 58.9829 36.2922 58.7163L40.1724 54.836L44.2716 58.9351C44.3095 58.9731 44.3532 59.0014 44.3999 59.0204V68.5212C44.3999 69.3433 45.0655 70.0099 45.8871 70.0118H36.5197C35.6964 70.0118 35.0288 70.6792 35.0288 71.5027V76.7069C35.0288 77.5302 35.6962 78.1978 36.5197 78.1978H38.0106V93.2512H13.7371C13.0738 93.2512 12.5359 93.789 12.5359 94.4523V113.295C12.5359 113.959 13.0738 114.497 13.7371 114.497H100.37C101.193 114.497 101.861 113.829 101.861 113.006V78.1976H103.351C104.175 78.1976 104.842 77.53 104.842 76.7067V71.5025C104.842 70.6792 104.175 70.0116 103.351 70.0116H93.984C94.8056 70.0097 95.4713 69.343 95.4713 68.521Z" fill="#002481"/>
<path d="M96.9619 32.207H50.1501C49.3268 32.207 48.6592 31.5396 48.6592 30.7161V25.5119C48.6592 24.6886 49.3265 24.021 50.1501 24.021H96.9619C97.7852 24.021 98.4528 24.6884 98.4528 25.5119V30.7161C98.4528 31.5396 97.7854 32.207 96.9619 32.207Z" fill="#4BEB87"/>
<path d="M83.544 25.5126V30.7156C83.544 31.5399 82.8774 32.2065 82.0531 32.2065H42.9081C42.086 32.2065 41.4172 31.5399 41.4172 30.7156V25.5126C41.4172 24.6884 42.086 24.0217 42.9081 24.0217H82.0531C82.8774 24.0217 83.544 24.6884 83.544 25.5126Z" fill="#04FFB3"/>
<path d="M67.8093 24.0215H57.152V32.2063H67.8093V24.0215Z" fill="#3DA2FF"/>
<path d="M95.4714 32.2065V62.7547C95.4714 63.5812 94.8035 64.2466 93.9795 64.2466H76.6995V32.2065H95.4714Z" fill="#02D998"/>
<path d="M95.4713 32.2065V45.5179C90.2799 44.1918 86.4409 39.4832 86.4409 33.8786C86.4409 33.3116 86.4794 32.7543 86.5586 32.2065H95.4713Z" fill="#00BE85"/>
<path d="M95.4714 32.2065H76.6995V37.9722H95.4714V32.2065Z" fill="#00BE85"/>
<path d="M80.5624 32.2065V62.7547C80.5624 63.5812 79.8969 64.2466 79.0705 64.2466H45.8894C45.0678 64.2466 44.3999 63.5812 44.3999 62.7547V32.2065H80.5624Z" fill="#4BEB87"/>
<path d="M51.2466 52.5109L44.8227 58.9348C44.7098 59.0477 44.5416 59.0765 44.3999 59.0213V35.781C45.5386 36.0909 46.6149 36.6939 47.5085 37.5876C49.6971 39.7785 50.1343 43.0529 48.8226 45.6787C49.7067 45.77 50.5667 46.1543 51.2466 46.8318C52.8153 48.4005 52.8153 50.9422 51.2466 52.5109Z" fill="#02D998"/>
<path d="M80.5624 32.2065H44.3999V37.9722H80.5624V32.2065Z" fill="#02D998"/>
<path d="M66.9578 32.2065H58.0043V64.2466H66.9578V32.2065Z" fill="#3DA2FF"/>
<path d="M66.9578 32.2065H58.0043V37.9722H66.9578V32.2065Z" fill="#0085FF"/>
<path d="M44.3999 60.2124V62.7555C44.3999 63.5788 45.0673 64.2464 45.8908 64.2464H93.9804C94.8037 64.2464 95.4713 63.5788 95.4713 62.7555V32.207" stroke="#002481" stroke-width="3.125" stroke-miterlimit="10" stroke-linecap="round" stroke-linejoin="round"/>
<path d="M96.962 24.0212H42.909C42.0857 24.0212 41.4181 24.6889 41.4181 25.5121V30.7163C41.4181 31.5396 42.0855 32.2072 42.909 32.2072H96.962C97.7852 32.2072 98.4528 31.5399 98.4528 30.7163V25.5121C98.4528 24.6886 97.7855 24.0212 96.962 24.0212Z" stroke="#002481" stroke-width="3.125" stroke-miterlimit="10" stroke-linecap="round" stroke-linejoin="round"/>
<path d="M91.0028 57.8615L89.9325 56.3026C89.5941 55.8096 88.8664 55.8096 88.5279 56.3026L87.4577 57.8615C87.0697 58.4267 87.4742 59.1955 88.1599 59.1955H90.3001C90.9862 59.1955 91.3908 58.4267 91.0028 57.8615Z" fill="white"/>
<path d="M91.0028 52.0983L89.9325 50.5394C89.5941 50.0464 88.8664 50.0464 88.5279 50.5394L87.4577 52.0983C87.0697 52.6636 87.4742 53.4323 88.1599 53.4323H90.3001C90.9862 53.4323 91.3908 52.6636 91.0028 52.0983Z" fill="white"/>
<path d="M91.0029 46.3351L89.9327 44.7762C89.5942 44.2833 88.8665 44.2833 88.528 44.7762L87.4578 46.3351C87.0698 46.9004 87.4744 47.6691 88.16 47.6691H90.3002C90.9863 47.6691 91.3909 46.9004 91.0029 46.3351Z" fill="white"/>
<path d="M103.352 72.4321H43.761C42.9378 72.4321 42.2701 71.7647 42.2701 70.9412V65.737C42.2701 64.9137 42.9375 64.2461 43.761 64.2461H103.352C104.175 64.2461 104.843 64.9135 104.843 65.737V70.9412C104.842 71.7645 104.175 72.4321 103.352 72.4321Z" fill="#E60058"/>
<path d="M85.674 65.7375V70.9405C85.674 71.7647 85.0074 72.4314 84.1832 72.4314H36.519C35.6969 72.4314 35.0281 71.7647 35.0281 70.9405V65.7375C35.0281 64.9132 35.6969 64.2466 36.519 64.2466H84.1832C85.0074 64.2466 85.674 64.9132 85.674 65.7375Z" fill="#FD438B"/>
<path d="M65.6799 64.2466H55.0226V72.4314H65.6799V64.2466Z" fill="#02D998"/>
<path d="M101.859 72.4312V107.241C101.859 108.065 101.194 108.731 100.37 108.731H78.4414V72.4312H101.859Z" fill="#E60058"/>
<path d="M101.859 72.4312H78.4414V78.1968H101.859V72.4312Z" fill="#D60253"/>
<path d="M82.6936 72.4312V107.241C82.6936 108.065 82.0257 108.731 81.2017 108.731H39.5019C38.6779 108.731 38.01 108.065 38.01 107.241V72.4312H82.6936Z" fill="#FD438B"/>
<path d="M82.6936 72.4312H38.01V78.1968H82.6936V72.4312Z" fill="#E60058"/>
<path d="M64.8271 72.4312H55.8735V108.731H64.8271V72.4312Z" fill="#4BEB87"/>
<path d="M64.8271 72.4312H55.8735V78.1968H64.8271V72.4312Z" fill="#02D998"/>
<path d="M38.0107 72.4321V107.24C38.0107 108.063 38.6781 108.731 39.5016 108.731H100.37C101.193 108.731 101.861 108.063 101.861 107.24V72.4321" stroke="#002481" stroke-width="3.125" stroke-miterlimit="10" stroke-linecap="round" stroke-linejoin="round"/>
<path d="M96.6912 72.4321H103.351C104.175 72.4321 104.842 71.7645 104.842 70.9412V65.737C104.842 64.9137 104.175 64.2461 103.351 64.2461H36.5199C35.6967 64.2461 35.0291 64.9135 35.0291 65.737V70.9412C35.0291 71.7645 35.6964 72.4321 36.5199 72.4321H89.5608" stroke="#002481" stroke-width="3.125" stroke-miterlimit="10" stroke-linecap="round" stroke-linejoin="round"/>
<path d="M97.3925 102.346L96.3223 100.787C95.9838 100.294 95.2561 100.294 94.9176 100.787L93.8474 102.346C93.4592 102.911 93.864 103.68 94.5496 103.68H96.6899C97.376 103.68 97.7808 102.911 97.3925 102.346Z" fill="white"/>
<path d="M97.3925 96.5829L96.3223 95.024C95.9838 94.5311 95.2561 94.5311 94.9176 95.024L93.8474 96.5829C93.4592 97.1482 93.864 97.9169 94.5496 97.9169H96.6899C97.376 97.9169 97.7808 97.1482 97.3925 96.5829Z" fill="white"/>
<path d="M97.3925 90.8197L96.3223 89.2608C95.9838 88.7679 95.2561 88.7679 94.9176 89.2608L93.8474 90.8197C93.4592 91.385 93.864 92.1537 94.5496 92.1537H96.6899C97.376 92.1537 97.7808 91.385 97.3925 90.8197Z" fill="white"/>
<path d="M72.6016 18.5454L85.4142 10.5459C86.134 10.0964 87.0594 10.6552 86.9967 11.5015L86.576 17.1879L91.287 24.0211H72.6016V18.5454Z" fill="#3DA2FF"/>
<path d="M82.8041 18.7206C82.5941 18.091 81.9136 17.751 81.2849 17.961L74.0874 20.36C73.458 20.5697 73.1181 21.2498 73.3278 21.8792C73.4955 22.3828 73.964 22.7008 74.467 22.7008C74.5929 22.7008 74.7212 22.6809 74.8471 22.6388L82.0445 20.2399C82.6739 20.0301 83.0138 19.35 82.8041 18.7206Z" fill="#0085FF"/>
<path d="M72.6016 18.5454L85.4142 10.5459C86.134 10.0964 87.0594 10.6552 86.9967 11.5015L86.576 17.1879L91.287 24.0211H72.6016V18.5454Z" stroke="#002481" stroke-width="3.125" stroke-miterlimit="10" stroke-linecap="round" stroke-linejoin="round"/>
<path d="M67.2686 18.5454L54.4559 10.5459C53.7362 10.0964 52.8108 10.6552 52.8735 11.5015L53.2941 17.1879L48.5831 24.0211H67.2688V18.5454H67.2686Z" fill="#3DA2FF"/>
<path d="M65.7828 20.3599L58.5856 17.9609C57.9574 17.7517 57.2763 18.0916 57.0664 18.7205C56.8566 19.3499 57.1966 20.03 57.826 20.2398L65.0232 22.6387C65.149 22.6808 65.2773 22.7007 65.4032 22.7007C65.906 22.7007 66.3747 22.3824 66.5424 21.8791C66.7521 21.2497 66.4122 20.5696 65.7828 20.3599Z" fill="#0085FF"/>
<path d="M67.2686 18.5454L54.4559 10.5459C53.7362 10.0964 52.8108 10.6552 52.8735 11.5015L53.2941 17.1879L48.5831 24.0211H67.2688V18.5454H67.2686Z" stroke="#002481" stroke-width="3.125" stroke-miterlimit="10" stroke-linecap="round" stroke-linejoin="round"/>
<path d="M74.9937 24.0212H64.877V18.6907C64.877 17.5459 65.805 16.6177 66.9499 16.6177H72.921C74.0657 16.6177 74.9939 17.5457 74.9939 18.6907V24.0212H74.9937Z" fill="#0085FF"/>
<path d="M74.9937 24.0212H64.877V18.6907C64.877 17.5459 65.805 16.6177 66.9499 16.6177H72.921C74.0657 16.6177 74.9939 17.5457 74.9939 18.6907V24.0212H74.9937Z" stroke="#002481" stroke-width="3.125" stroke-miterlimit="10" stroke-linecap="round" stroke-linejoin="round"/>
<path d="M69.8429 108.73H13.7378C13.0745 108.73 12.5366 108.193 12.5366 107.529V88.6863C12.5366 88.023 13.0745 87.4851 13.7378 87.4851H69.8429C70.5061 87.4851 71.044 88.023 71.044 88.6863V107.529C71.044 108.193 70.5061 108.73 69.8429 108.73Z" fill="#3DA2FF"/>
<path d="M71.0444 88.6877V107.529C71.0444 108.192 70.5062 108.73 69.8432 108.73H62.8115V87.4866H69.8432C70.5062 87.4866 71.0444 88.0223 71.0444 88.6877Z" fill="#1A91FF"/>
<path d="M62.811 102.447V95.7207L12.5358 95.7207V102.447L62.811 102.447Z" fill="#1A91FF"/>
<path d="M71.0444 95.7217H62.8115V102.448H71.0444V95.7217Z" fill="#0085FF"/>
<path d="M34.6637 87.4866H27.9371V108.73H34.6637V87.4866Z" fill="#02D998"/>
<path d="M34.6637 95.7217H27.9371V102.448H34.6637V95.7217Z" fill="#00BE85"/>
<path d="M62.811 99.084V92.3574L12.5357 92.3574V99.084L62.811 99.084Z" fill="#4BEB87"/>
<path d="M71.0444 92.3584H62.8115V99.085H71.0444V92.3584Z" fill="#02D998"/>
<path d="M69.8429 108.73H13.7378C13.0745 108.73 12.5366 108.193 12.5366 107.529V88.6863C12.5366 88.023 13.0745 87.4851 13.7378 87.4851H69.8429C70.5061 87.4851 71.044 88.023 71.044 88.6863V107.529C71.044 108.193 70.5061 108.73 69.8429 108.73Z" stroke="#002481" stroke-width="3.125" stroke-miterlimit="10" stroke-linecap="round" stroke-linejoin="round"/>
<path d="M35.0637 83.2545L44.9631 77.074C45.5192 76.7269 46.2341 77.1586 46.1859 77.8123L45.8608 82.2057L49.5006 87.4853H35.0637V83.2545Z" fill="#4BEB87"/>
<path d="M35.0637 85.3147V87.484H36.1544L41.8527 85.5837C42.4822 85.3747 42.8209 84.6949 42.6119 84.0655C42.4005 83.436 41.7206 83.0949 41.0912 83.3039L35.0637 85.3147Z" fill="#02D998"/>
<path d="M35.0637 83.2545L44.9631 77.074C45.5192 76.7269 46.2341 77.1586 46.1859 77.8123L45.8608 82.2057L49.5006 87.4853H35.0637V83.2545Z" stroke="#002481" stroke-width="3.125" stroke-miterlimit="10" stroke-linecap="round" stroke-linejoin="round"/>
<path d="M32.8662 83.2534V87.484H18.4281L22.0677 82.206L21.7433 77.8121C21.6953 77.1587 22.4088 76.7263 22.9661 77.0746L32.8662 83.2534Z" fill="#4BEB87"/>
<path d="M32.8662 85.3147V87.484H31.7756L26.0772 85.5837C25.4478 85.3747 25.1091 84.6949 25.3181 84.0655C25.5295 83.436 26.2093 83.0949 26.8388 83.3039L32.8662 85.3147Z" fill="#02D998"/>
<path d="M32.8658 83.2545L22.9665 77.074C22.4104 76.7269 21.6954 77.1586 21.7437 77.8123L22.0687 82.2057L18.429 87.4853H32.8658V83.2545Z" stroke="#002481" stroke-width="3.125" stroke-miterlimit="10" stroke-linecap="round" stroke-linejoin="round"/>
<path d="M37.8728 87.4851H30.0565V83.3665C30.0565 82.482 30.7736 81.7649 31.6582 81.7649H36.2714C37.1559 81.7649 37.873 82.482 37.873 83.3665V87.4851H37.8728Z" fill="#04FFB3"/>
<path d="M37.8728 87.4851H30.0565V83.3665C30.0565 82.482 30.7736 81.7649 31.6582 81.7649H36.2714C37.1559 81.7649 37.873 82.482 37.873 83.3665V87.4851H37.8728Z" stroke="#002481" stroke-width="3.125" stroke-miterlimit="10" stroke-linecap="round" stroke-linejoin="round"/>
<path d="M47.5089 41.7363L42.9132 46.3296L36.2923 52.9504C36.0281 53.2171 35.5956 53.2171 35.3314 52.9504L24.1148 41.7363C22.7455 40.367 22.0632 38.5724 22.0632 36.7779C22.0632 34.9857 22.7455 33.1912 24.1148 31.8218C26.8535 29.0832 31.293 29.0832 34.0293 31.8218L35.8118 33.6044L37.5944 31.8218C40.3307 29.0832 44.7702 29.0832 47.5089 31.8218C50.2451 34.5605 50.2451 38.9976 47.5089 41.7363Z" fill="#E60058"/>
<path d="M37.8479 46.8326C36.4709 48.2096 36.304 50.3374 37.3454 51.8975L42.913 46.3298C41.3527 45.2886 39.225 45.4556 37.8479 46.8326Z" fill="#C1024B"/>
<path d="M47.5078 31.8218C44.7701 29.0841 40.3312 29.0841 37.5933 31.8218L35.8117 33.6034L34.0301 31.8218C31.2924 29.0841 26.8536 29.0841 24.1157 31.8218C21.378 34.5595 21.378 38.9984 24.1157 41.7363L35.3308 52.9514C35.5962 53.2171 36.027 53.2171 36.2924 52.9514L47.5075 41.7363C50.2455 38.9984 50.2455 34.5595 47.5078 31.8218Z" stroke="#002481" stroke-width="3.125" stroke-miterlimit="10" stroke-linecap="round" stroke-linejoin="round"/>
<path d="M51.246 41.0669C49.6777 39.4989 47.1353 39.4989 45.5673 41.0669L44.5471 42.0872L43.5268 41.0669C41.9588 39.4989 39.4161 39.4989 37.8481 41.0669C36.2801 42.6349 36.2801 45.1775 37.8481 46.7455L44.2718 53.1692C44.4238 53.3212 44.6705 53.3212 44.8226 53.1692L51.2462 46.7455C52.814 45.1775 52.814 42.6351 51.246 41.0669Z" fill="#FD438B"/>
<path d="M51.246 41.0669C49.6777 39.4989 47.1353 39.4989 45.5673 41.0669L44.5471 42.0872L43.5268 41.0669C41.9588 39.4989 39.4161 39.4989 37.8481 41.0669C36.2801 42.6349 36.2801 45.1775 37.8481 46.7455L44.2718 53.1692C44.4238 53.3212 44.6705 53.3212 44.8226 53.1692L51.2462 46.7455C52.814 45.1775 52.814 42.6351 51.246 41.0669Z" stroke="#002481" stroke-width="3.125" stroke-miterlimit="10" stroke-linecap="round" stroke-linejoin="round"/>
<path d="M98.4525 40.1255C105.086 40.1255 110.464 34.7477 110.464 28.1138C110.464 21.4799 105.086 16.1021 98.4525 16.1021C91.8186 16.1021 86.4408 21.4799 86.4408 28.1138C86.4408 34.7477 91.8186 40.1255 98.4525 40.1255Z" fill="#FFC498"/>
<path d="M98.4525 35.7003C94.5079 35.7003 91.2983 32.491 91.2983 28.5461C91.2983 27.8829 91.8362 27.345 92.4995 27.345C93.1628 27.345 93.7007 27.8829 93.7007 28.5461C93.7007 31.1664 95.8323 33.298 98.4525 33.298C101.073 33.298 103.204 31.1664 103.204 28.5461C103.204 27.8829 103.742 27.345 104.406 27.345C105.069 27.345 105.607 27.8829 105.607 28.5461C105.607 32.491 102.397 35.7003 98.4525 35.7003Z" fill="#4369FC"/>
<path d="M98.4525 40.1255C105.086 40.1255 110.464 34.7477 110.464 28.1138C110.464 21.4799 105.086 16.1021 98.4525 16.1021C91.8186 16.1021 86.4408 21.4799 86.4408 28.1138C86.4408 34.7477 91.8186 40.1255 98.4525 40.1255Z" stroke="#002481" stroke-width="3.125" stroke-miterlimit="10" stroke-linecap="round" stroke-linejoin="round"/>
<path d="M100.99 23.3843C101.549 23.3843 102.001 23.8369 102.001 24.3952C102.001 24.5842 102.142 24.7378 102.316 24.7378C102.489 24.7378 102.63 24.584 102.63 24.3952C102.63 23.8369 103.083 23.3843 103.641 23.3843C104.199 23.3843 104.652 23.8369 104.652 24.3952C104.652 25.6992 103.604 26.7598 102.316 26.7598C101.027 26.7598 99.979 25.6989 99.979 24.3952C99.9795 23.8369 100.432 23.3843 100.99 23.3843Z" fill="#4369FC"/>
<path d="M93.264 23.3843C93.8223 23.3843 94.2749 23.8369 94.2749 24.3952C94.2749 24.5842 94.4159 24.7378 94.5893 24.7378C94.7628 24.7378 94.9038 24.584 94.9038 24.3952C94.9038 23.8369 95.3564 23.3843 95.9147 23.3843C96.473 23.3843 96.9256 23.8369 96.9256 24.3952C96.9256 25.6992 95.8775 26.7598 94.5891 26.7598C93.3007 26.7598 92.2526 25.6989 92.2526 24.3952C92.2528 23.8369 92.7057 23.3843 93.264 23.3843Z" fill="#4369FC"/>
<path d="M18.4284 68.2655C19.932 68.2655 21.151 67.0465 21.151 65.5429C21.151 64.0393 19.932 62.8203 18.4284 62.8203C16.9247 62.8203 15.7058 64.0393 15.7058 65.5429C15.7058 67.0465 16.9247 68.2655 18.4284 68.2655Z" stroke="#E60058" stroke-width="3.125" stroke-miterlimit="10" stroke-linecap="round" stroke-linejoin="round"/>
<path d="M27.2083 60.6148C28.7119 60.6148 29.9309 59.3959 29.9309 57.8923C29.9309 56.3886 28.7119 55.1697 27.2083 55.1697C25.7047 55.1697 24.4857 56.3886 24.4857 57.8923C24.4857 59.3959 25.7047 60.6148 27.2083 60.6148Z" stroke="#4BEB87" stroke-width="3.125" stroke-miterlimit="10" stroke-linecap="round" stroke-linejoin="round"/>
<path d="M102.604 53.4355L102.628 53.4492" stroke="#4BEB87" stroke-width="3.125" stroke-miterlimit="10" stroke-linecap="round" stroke-linejoin="round"/>
<path d="M108.586 56.8896L108.61 56.9033" stroke="#4BEB87" stroke-width="3.125" stroke-miterlimit="10" stroke-linecap="round" stroke-linejoin="round"/>
<path d="M108.61 53.4355L108.586 53.4492" stroke="#4BEB87" stroke-width="3.125" stroke-miterlimit="10" stroke-linecap="round" stroke-linejoin="round"/>
<path d="M102.628 56.8896L102.604 56.9033" stroke="#4BEB87" stroke-width="3.125" stroke-miterlimit="10" stroke-linecap="round" stroke-linejoin="round"/>
<path d="M108.61 53.4355L108.586 53.4492" stroke="#4BEB87" stroke-width="3.125" stroke-miterlimit="10" stroke-linecap="round" stroke-linejoin="round"/>
<path d="M102.628 56.8896L102.604 56.9033" stroke="#4BEB87" stroke-width="3.125" stroke-miterlimit="10" stroke-linecap="round" stroke-linejoin="round"/>
<path d="M105.607 51.7019V51.7287" stroke="#4BEB87" stroke-width="3.125" stroke-miterlimit="10" stroke-linecap="round" stroke-linejoin="round"/>
<path d="M105.607 58.6096V58.6367" stroke="#4BEB87" stroke-width="3.125" stroke-miterlimit="10" stroke-linecap="round" stroke-linejoin="round"/>
<path d="M107.942 98.312L107.966 98.3257" stroke="#E60058" stroke-width="3.125" stroke-miterlimit="10" stroke-linecap="round" stroke-linejoin="round"/>
<path d="M113.925 101.766L113.948 101.78" stroke="#E60058" stroke-width="3.125" stroke-miterlimit="10" stroke-linecap="round" stroke-linejoin="round"/>
<path d="M113.948 98.312L113.925 98.3257" stroke="#E60058" stroke-width="3.125" stroke-miterlimit="10" stroke-linecap="round" stroke-linejoin="round"/>
<path d="M107.966 101.766L107.942 101.78" stroke="#E60058" stroke-width="3.125" stroke-miterlimit="10" stroke-linecap="round" stroke-linejoin="round"/>
<path d="M113.948 98.312L113.925 98.3257" stroke="#E60058" stroke-width="3.125" stroke-miterlimit="10" stroke-linecap="round" stroke-linejoin="round"/>
<path d="M107.966 101.766L107.942 101.78" stroke="#E60058" stroke-width="3.125" stroke-miterlimit="10" stroke-linecap="round" stroke-linejoin="round"/>
<path d="M110.945 96.5784V96.6054" stroke="#E60058" stroke-width="3.125" stroke-miterlimit="10" stroke-linecap="round" stroke-linejoin="round"/>
<path d="M110.945 103.486V103.513" stroke="#E60058" stroke-width="3.125" stroke-miterlimit="10" stroke-linecap="round" stroke-linejoin="round"/>
<path d="M27.2322 16.1653L27.2557 16.179" stroke="#6582FD" stroke-width="3.125" stroke-miterlimit="10" stroke-linecap="round" stroke-linejoin="round"/>
<path d="M33.2146 19.6189L33.2384 19.6326" stroke="#6582FD" stroke-width="3.125" stroke-miterlimit="10" stroke-linecap="round" stroke-linejoin="round"/>
<path d="M33.2384 16.1653L33.2146 16.179" stroke="#6582FD" stroke-width="3.125" stroke-miterlimit="10" stroke-linecap="round" stroke-linejoin="round"/>
<path d="M27.2557 19.6189L27.2322 19.6326" stroke="#6582FD" stroke-width="3.125" stroke-miterlimit="10" stroke-linecap="round" stroke-linejoin="round"/>
<path d="M33.2384 16.1653L33.2146 16.179" stroke="#6582FD" stroke-width="3.125" stroke-miterlimit="10" stroke-linecap="round" stroke-linejoin="round"/>
<path d="M27.2557 19.6189L27.2322 19.6326" stroke="#6582FD" stroke-width="3.125" stroke-miterlimit="10" stroke-linecap="round" stroke-linejoin="round"/>
<path d="M30.2351 14.4314V14.4584" stroke="#6582FD" stroke-width="3.125" stroke-miterlimit="10" stroke-linecap="round" stroke-linejoin="round"/>
<path d="M30.2351 21.3389V21.3659" stroke="#6582FD" stroke-width="3.125" stroke-miterlimit="10" stroke-linecap="round" stroke-linejoin="round"/>
</g>
<defs>
<linearGradient id="paint0_linear_294_6159" x1="19.5881" y1="103.139" x2="110.716" y2="12.0107" gradientUnits="userSpaceOnUse">
<stop stop-color="white" stop-opacity="0"/>
<stop offset="1" stop-color="#A4D3FF"/>
</linearGradient>
<clipPath id="clip0_294_6159">
<rect width="123" height="123" fill="white"/>
</clipPath>
</defs>
</svg>
