<svg width="120" height="120" viewBox="0 0 120 120" fill="none" xmlns="http://www.w3.org/2000/svg">
<g clip-path="url(#clip0_24_542)">
<path d="M14.4204 11.3065C-6.19407 23.7164 -7.009 93.3115 27.153 64.7864C43.5844 51.0661 45.8822 70.3001 56.7197 60.4045C59.8134 57.5796 62.3756 51.293 66.7657 52.5999C84.2128 57.7941 57.1385 76.4067 51.6916 85.3995C42.7828 100.107 57.9176 116.088 74.2535 113.505C83.9728 111.969 87.6262 101.713 101.679 104.213C111.483 105.957 122.412 98.3201 119.531 89.0365C115.291 75.3769 99.3858 65.1038 100.909 49.6964C102.135 37.302 94.0284 18.6101 84.4298 17.021C69.1931 14.4985 52.2729 45.7142 43.5947 22.0648C40.3001 13.0868 30.0281 22.3781 26.6053 17.8812C23.1014 13.2769 20.288 7.77424 14.4204 11.3065Z" fill="url(#paint0_linear_24_542)"/>
<path opacity="0.1" d="M101.914 21.1125H22.0251C19.4376 21.1125 17.3376 23.2102 17.3376 25.8V75.665C12.9147 79.0824 10.0636 84.4353 10.0636 90.4571C10.0636 100.778 18.4301 109.144 28.7505 109.144C34.3223 109.144 39.3215 106.703 42.7453 102.834H101.914C104.502 102.834 106.602 100.737 106.602 98.1469V25.8C106.602 23.2102 104.502 21.1125 101.914 21.1125Z" fill="#002481"/>
<path d="M106.602 20.1753V92.5222C106.602 95.112 104.502 97.2097 101.914 97.2097H22.0251C19.4376 97.2097 17.3376 95.112 17.3376 92.5222V20.1753C17.3376 17.5854 19.4376 15.4878 22.0251 15.4878H101.914C104.502 15.4878 106.602 17.5854 106.602 20.1753Z" fill="white"/>
<path d="M98.6838 90.6415H25.724C25.0769 90.6415 24.5522 90.1167 24.5522 89.4696V34.6694C24.5522 34.0223 25.0769 33.4976 25.724 33.4976H98.6838C99.3309 33.4976 99.8557 34.0223 99.8557 34.6694V89.4696C99.8557 90.1169 99.3311 90.6415 98.6838 90.6415Z" fill="#CFE8FF"/>
<path d="M106.602 27.8886V20.1748C106.602 17.5859 104.503 15.4873 101.914 15.4873H22.0256C19.4367 15.4873 17.3381 17.5859 17.3381 20.1748V27.8886H106.602Z" fill="#3DA2FF"/>
<path d="M25.724 23.4294C26.3712 23.4294 26.8959 22.9048 26.8959 22.2576C26.8959 21.6104 26.3712 21.0857 25.724 21.0857C25.0768 21.0857 24.5522 21.6104 24.5522 22.2576C24.5522 22.9048 25.0768 23.4294 25.724 23.4294Z" fill="#2D58E0"/>
<path d="M29.688 23.4294C30.3352 23.4294 30.8599 22.9048 30.8599 22.2576C30.8599 21.6104 30.3352 21.0857 29.688 21.0857C29.0408 21.0857 28.5161 21.6104 28.5161 22.2576C28.5161 22.9048 29.0408 23.4294 29.688 23.4294Z" fill="#2D58E0"/>
<path d="M33.652 23.4294C34.2992 23.4294 34.8239 22.9048 34.8239 22.2576C34.8239 21.6104 34.2992 21.0857 33.652 21.0857C33.0048 21.0857 32.4801 21.6104 32.4801 22.2576C32.4801 22.9048 33.0048 23.4294 33.652 23.4294Z" fill="#2D58E0"/>
<path d="M98.215 23.4294H40.326C39.6789 23.4294 39.1542 22.9047 39.1542 22.2576C39.1542 21.6105 39.6789 21.0857 40.326 21.0857H98.215C98.8621 21.0857 99.3869 21.6105 99.3869 22.2576C99.3869 22.9047 98.8624 23.4294 98.215 23.4294Z" fill="#9FB0FE"/>
<path d="M82.5318 58.6396H60.0182C59.1004 58.6396 58.3565 57.8957 58.3565 56.9779V51.3346C58.3565 50.4168 59.1004 49.6729 60.0182 49.6729H82.5318C83.4496 49.6729 84.1935 50.4168 84.1935 51.3346V56.9779C84.1935 57.8957 83.4496 58.6396 82.5318 58.6396Z" fill="#FFA8CF"/>
<path d="M63.2189 55.5409C63.9836 55.5409 64.6035 54.9209 64.6035 54.1562C64.6035 53.3914 63.9836 52.7715 63.2189 52.7715C62.4541 52.7715 61.8342 53.3914 61.8342 54.1562C61.8342 54.9209 62.4541 55.5409 63.2189 55.5409Z" fill="#FFDBED"/>
<path d="M68.5054 55.5409C69.2702 55.5409 69.8901 54.9209 69.8901 54.1562C69.8901 53.3914 69.2702 52.7715 68.5054 52.7715C67.7407 52.7715 67.1207 53.3914 67.1207 54.1562C67.1207 54.9209 67.7407 55.5409 68.5054 55.5409Z" fill="#FFDBED"/>
<path d="M73.7917 55.5409C74.5565 55.5409 75.1764 54.9209 75.1764 54.1562C75.1764 53.3914 74.5565 52.7715 73.7917 52.7715C73.027 52.7715 72.407 53.3914 72.407 54.1562C72.407 54.9209 73.027 55.5409 73.7917 55.5409Z" fill="#FFDBED"/>
<path d="M79.078 55.5409C79.8428 55.5409 80.4627 54.9209 80.4627 54.1562C80.4627 53.3914 79.8428 52.7715 79.078 52.7715C78.3133 52.7715 77.6934 53.3914 77.6934 54.1562C77.6934 54.9209 78.3133 55.5409 79.078 55.5409Z" fill="#FFDBED"/>
<path d="M82.5318 71.2255H60.0182C59.1004 71.2255 58.3565 70.4816 58.3565 69.5638V63.9205C58.3565 63.0027 59.1004 62.2588 60.0182 62.2588H82.5318C83.4496 62.2588 84.1935 63.0027 84.1935 63.9205V69.5638C84.1935 70.4816 83.4496 71.2255 82.5318 71.2255Z" fill="#FFA8CF"/>
<path d="M63.2189 68.1268C63.9836 68.1268 64.6035 67.5068 64.6035 66.7421C64.6035 65.9774 63.9836 65.3574 63.2189 65.3574C62.4541 65.3574 61.8342 65.9774 61.8342 66.7421C61.8342 67.5068 62.4541 68.1268 63.2189 68.1268Z" fill="#FFDBED"/>
<path d="M68.5054 68.1268C69.2702 68.1268 69.8901 67.5068 69.8901 66.7421C69.8901 65.9774 69.2702 65.3574 68.5054 65.3574C67.7407 65.3574 67.1207 65.9774 67.1207 66.7421C67.1207 67.5068 67.7407 68.1268 68.5054 68.1268Z" fill="#FFDBED"/>
<path d="M73.7917 68.1268C74.5565 68.1268 75.1764 67.5068 75.1764 66.7421C75.1764 65.9774 74.5565 65.3574 73.7917 65.3574C73.027 65.3574 72.407 65.9774 72.407 66.7421C72.407 67.5068 73.027 68.1268 73.7917 68.1268Z" fill="#FFDBED"/>
<path d="M79.078 68.1268C79.8428 68.1268 80.4627 67.5068 80.4627 66.7421C80.4627 65.9774 79.8428 65.3574 79.078 65.3574C78.3133 65.3574 77.6934 65.9774 77.6934 66.7421C77.6934 67.5068 78.3133 68.1268 79.078 68.1268Z" fill="#FFDBED"/>
<path d="M50.3782 60.8727C49.6535 60.8727 49.0659 60.2851 49.0659 59.5604V54.4391C49.0659 52.9831 47.8814 51.7986 46.4254 51.7986C44.9695 51.7986 43.785 52.9831 43.785 54.4391V55.3609C43.785 56.0856 43.1974 56.6731 42.4727 56.6731C41.748 56.6731 41.1604 56.0856 41.1604 55.3609V54.4391C41.1604 51.5359 43.5225 49.1741 46.4257 49.1741C49.3289 49.1741 51.6907 51.5361 51.6907 54.4391V59.5604C51.6904 60.2851 51.1029 60.8727 50.3782 60.8727Z" fill="#B7C5FF"/>
<path d="M50.4804 71.7243H42.3703C40.9207 71.7243 39.7455 70.5491 39.7455 69.0995V62.1592C39.7455 60.7096 40.9207 59.5344 42.3703 59.5344H50.4804C51.93 59.5344 53.1051 60.7096 53.1051 62.1592V69.0995C53.1049 70.5493 51.93 71.7243 50.4804 71.7243Z" fill="#3DA2FF"/>
<path d="M46.4252 68.6313C45.6079 68.6313 44.9456 67.9687 44.9456 67.1517V65.7142C44.9456 64.897 45.6082 64.2346 46.4252 64.2346C47.2425 64.2346 47.9048 64.8972 47.9048 65.7142V67.1517C47.905 67.9687 47.2425 68.6313 46.4252 68.6313Z" fill="#2D58E0"/>
<path d="M28.7505 103.519C39.071 103.519 47.4375 95.1525 47.4375 84.832C47.4375 74.5115 39.071 66.145 28.7505 66.145C18.43 66.145 10.0636 74.5115 10.0636 84.832C10.0636 95.1525 18.43 103.519 28.7505 103.519Z" fill="#8399FE"/>
<path d="M28.7505 99.9375C37.093 99.9375 43.856 93.1746 43.856 84.832C43.856 76.4895 37.093 69.7266 28.7505 69.7266C20.408 69.7266 13.6451 76.4895 13.6451 84.832C13.6451 93.1746 20.408 99.9375 28.7505 99.9375Z" fill="#3DA2FF"/>
<path d="M40.0014 97.5334V99.7529C36.8702 102.118 32.9749 103.519 28.7514 103.519C24.528 103.519 20.6303 102.118 17.5014 99.7552V97.5334C17.5014 93.5701 20.7147 90.3568 24.678 90.3568H26.1077V85.8123H31.3928V90.3568H32.8225C36.7882 90.3566 40.0014 93.5698 40.0014 97.5334Z" fill="#E60058"/>
<path d="M28.7505 89.468C24.5882 89.468 21.2142 86.0939 21.2142 81.9316V79.9519C21.2142 75.7896 24.5882 72.4155 28.7505 72.4155C32.9128 72.4155 36.2868 75.7896 36.2868 79.9519V81.9316C36.2868 86.0939 32.9128 89.468 28.7505 89.468Z" fill="#FEF1DF"/>
<path d="M24.1061 97.0996V102.938C23.3022 102.732 22.5194 102.474 21.7624 102.167V97.0996C21.7624 96.4527 22.2874 95.9277 22.9342 95.9277C23.2577 95.9277 23.5506 96.059 23.7616 96.2699C23.9749 96.4832 24.1061 96.7762 24.1061 97.0996Z" fill="#E60058"/>
<path d="M35.7381 97.0996V102.169C34.9811 102.474 34.1983 102.732 33.3944 102.938V97.0996C33.3944 96.4527 33.9194 95.9277 34.5663 95.9277C34.8897 95.9277 35.185 96.059 35.3959 96.2699C35.6069 96.4832 35.7381 96.7762 35.7381 97.0996Z" fill="#E60058"/>
<path d="M106.601 50.2301C105.954 50.2301 105.429 50.7546 105.429 51.402V92.5228C105.429 94.4613 103.852 96.0384 101.913 96.0384H45.1343C47.3245 92.8465 48.6093 88.987 48.6093 84.832C48.6093 73.8818 39.7007 64.9732 28.7505 64.9732C25.0061 64.9732 21.5011 66.0159 18.5086 67.8248V20.1738C18.5086 18.2353 20.0857 16.6582 22.0242 16.6582H44.7257C45.3729 16.6582 45.8976 16.1337 45.8976 15.4863C45.8976 14.839 45.3729 14.3145 44.7257 14.3145H22.0242C18.7933 14.3145 16.1648 16.943 16.1648 20.1738V69.4828C11.7274 73.1278 8.89145 78.6546 8.89145 84.832C8.89145 95.7823 17.8 104.691 28.7503 104.691C34.4662 104.691 39.6225 102.26 43.249 98.3822H101.913C105.144 98.3822 107.772 95.7537 107.772 92.5228V51.402C107.773 50.7546 107.248 50.2301 106.601 50.2301ZM28.7505 102.347C19.0926 102.347 11.2354 94.4899 11.2354 84.832C11.2354 75.1741 19.0926 67.317 28.7505 67.317C38.4084 67.317 46.2656 75.1741 46.2656 84.832C46.2656 94.4899 38.4084 102.347 28.7505 102.347Z" fill="#002481"/>
<path d="M101.914 14.3154H51.614C50.9669 14.3154 50.4421 14.84 50.4421 15.4873C50.4421 16.1346 50.9669 16.6592 51.614 16.6592H101.914C103.852 16.6592 105.43 18.2363 105.43 20.1748V44.5128C105.43 45.1601 105.954 45.6847 106.601 45.6847C107.249 45.6847 107.773 45.1601 107.773 44.5128V20.1748C107.773 16.9439 105.145 14.3154 101.914 14.3154Z" fill="#002481"/>
<path d="M50.7691 110.158C50.6613 110.158 50.5535 110.143 50.4487 110.113C47.3761 109.24 47.1459 104.831 47.1375 104.644C47.1138 104.112 47.4525 103.63 47.9615 103.472L50.4225 102.71C50.6482 102.64 50.89 102.64 51.1157 102.71L53.5767 103.472C54.0857 103.63 54.4244 104.112 54.4007 104.644C54.3923 104.831 54.1621 109.24 51.0895 110.113C50.9847 110.143 50.8769 110.158 50.7691 110.158ZM49.5953 105.42C49.7587 106.245 50.1093 107.29 50.7689 107.713C51.4279 107.291 51.779 106.245 51.9424 105.42L50.7689 105.056L49.5953 105.42Z" fill="#8399FE"/>
<path d="M113.755 79.2698C113.647 79.2698 113.539 79.2551 113.434 79.2253C110.362 78.3518 110.131 73.9432 110.123 73.7559C110.1 73.2237 110.438 72.7423 110.947 72.5845L113.408 71.8223C113.634 71.7523 113.876 71.7523 114.101 71.8223L116.562 72.5845C117.071 72.7423 117.41 73.2237 117.386 73.7559C117.378 73.9432 117.148 78.3518 114.075 79.2253C113.97 79.2551 113.863 79.2698 113.755 79.2698ZM112.581 74.5319C112.744 75.3567 113.095 76.4025 113.755 76.8248C114.414 76.4027 114.765 75.3574 114.928 74.5319L113.755 74.1684L112.581 74.5319Z" fill="#E60058"/>
<path d="M43.7515 112.267C43.4515 112.267 43.1517 112.153 42.9227 111.924L41.6421 110.643L40.3615 111.924C39.9037 112.382 39.1619 112.382 38.7042 111.924C38.2465 111.466 38.2465 110.724 38.7042 110.267L40.8136 108.158C41.2713 107.7 42.0131 107.7 42.4708 108.158L44.5802 110.267C45.038 110.724 45.038 111.466 44.5802 111.924C44.3512 112.153 44.0515 112.267 43.7515 112.267Z" fill="#01ECA5"/>
<path d="M30.6255 10.6713C30.3255 10.6713 30.0258 10.557 29.7968 10.328L28.5161 9.04734L27.2355 10.328C26.7778 10.7857 26.036 10.7857 25.5783 10.328C25.1205 9.87047 25.1205 9.12844 25.5783 8.67094L27.6876 6.56156C28.1454 6.10383 28.8872 6.10383 29.3449 6.56156L31.4543 8.67094C31.912 9.12844 31.912 9.87047 31.4543 10.328C31.2253 10.5567 30.9255 10.6713 30.6255 10.6713Z" fill="#E60058"/>
<path d="M11.4698 65.0546C11.1698 65.0546 10.8701 64.9403 10.6411 64.7113L9.36045 63.4306L8.07982 64.7113C7.62209 65.169 6.88029 65.169 6.42255 64.7113C5.96482 64.2538 5.96482 63.5117 6.42255 63.0542L8.53193 60.9449C8.98966 60.4871 9.73146 60.4871 10.1892 60.9449L12.2986 63.0542C12.7563 63.5117 12.7563 64.2538 12.2986 64.7113C12.0696 64.94 11.7696 65.0546 11.4698 65.0546Z" fill="#8399FE"/>
</g>
<defs>
<linearGradient id="paint0_linear_24_542" x1="28.9528" y1="91.7016" x2="95.4162" y2="25.2385" gradientUnits="userSpaceOnUse">
<stop stop-color="#FFBFBE"/>
<stop offset="1" stop-color="#E0F0FF"/>
</linearGradient>
<clipPath id="clip0_24_542">
<rect width="120" height="120" fill="white"/>
</clipPath>
</defs>
</svg>
