<svg width="120" height="120" viewBox="0 0 120 120" fill="none" xmlns="http://www.w3.org/2000/svg">
<g clip-path="url(#clip0_294_5877)">
<path d="M118.618 51.5961C113.905 40.2884 99.803 39.3247 89.9152 34.0604C85.9679 31.959 87.2426 28.3184 89.0508 25.0447C95.5639 13.254 82.2673 1.51762 70.1729 0.498559C32.2065 -2.70043 43.6201 29.7054 27.0828 36.5321C18.8717 39.9216 7.93389 41.5857 3.10389 49.3721C-4.79713 62.1092 3.15264 80.7481 18.2862 85.8019C33.7233 90.9572 48.774 79.2012 48.568 91.801C48.4519 98.8906 36.3451 105.101 41.3459 112.121C46.9852 120.038 82.628 125.472 81.7744 108.971C81.2705 99.2281 66.9036 96.1648 77.3654 86.7268C82.779 81.8429 90.9076 83.8313 97.6367 82.9418C111.597 81.0971 124.282 65.1856 118.618 51.5961Z" fill="url(#paint0_linear_294_5877)"/>
<path opacity="0.1" d="M82.0851 33.3134C77.9957 33.3134 74.1046 34.1614 70.5761 35.6883C66.3754 24.8459 55.8465 17.157 43.5208 17.157C27.5012 17.157 14.5147 30.1435 14.5147 46.163C14.5147 52.5675 16.5913 58.4862 20.1072 63.2848H12.264C10.9696 63.2848 9.92029 64.3341 9.92029 65.6286V83.1514C9.92029 84.4458 10.9696 85.4951 12.264 85.4951H27.4872C27.7082 101.324 40.6063 114.088 56.488 114.088C70.4108 114.088 82.0405 104.278 84.8469 91.1939C99.5708 89.8029 111.091 77.4075 111.091 62.3196C111.091 46.2999 98.1046 33.3134 82.0851 33.3134Z" fill="#002481"/>
<path d="M66.928 23.8916C57.8441 10.6966 39.7834 7.36388 26.5883 16.4478C13.3933 25.5317 10.0606 43.5924 19.1445 56.7875C28.2284 69.9825 46.2891 73.3152 59.4842 64.2313C72.6792 55.1474 76.0119 37.0867 66.928 23.8916Z" fill="#E60058"/>
<path d="M33.6181 20.438C22.628 25.6393 17.9352 38.7651 23.1365 49.7553C28.3378 60.7456 41.4635 65.4385 52.4536 60.2372C63.4438 55.036 68.1365 41.9102 62.9353 30.92C57.734 19.9297 44.6082 15.2368 33.6181 20.438Z" fill="#F12372"/>
<path d="M42.4398 40.759C29.6385 32.1058 22.2813 20.6229 19.261 25.0911C10.6079 37.8924 13.9706 55.2847 26.772 63.9378C39.5733 72.591 56.9656 69.2282 65.6187 56.4269C70.3379 49.4453 55.2412 49.4121 42.4398 40.759Z" fill="white" fill-opacity="0.84"/>
<path d="M67.416 24.0938C62.1845 16.5064 53.4341 11.532 43.5208 11.532C27.5013 11.532 14.5148 24.5185 14.5148 40.538C14.5148 51.7514 20.8778 61.4787 30.1902 66.3061" stroke="#002481" stroke-width="3.125" stroke-miterlimit="10" stroke-linecap="round" stroke-linejoin="round"/>
<path d="M82.0852 85.7005C98.1048 85.7005 111.091 72.7141 111.091 56.6945C111.091 40.6749 98.1048 27.6885 82.0852 27.6885C66.0657 27.6885 53.0792 40.6749 53.0792 56.6945C53.0792 72.7141 66.0657 85.7005 82.0852 85.7005Z" fill="white"/>
<path d="M111.288 61.2249C113.765 45.3981 102.944 30.5594 87.117 28.0817C71.2902 25.604 56.4515 36.4256 53.9738 52.2524C51.4961 68.0793 62.3177 82.918 78.1445 85.3957C93.9713 87.8733 108.81 77.0517 111.288 61.2249Z" fill="#FFAB66"/>
<path d="M89.4774 35.8125C77.9213 32.0319 65.4884 38.3352 61.7077 49.8914C57.9271 61.4476 64.2303 73.8805 75.7863 77.6612C87.3424 81.4418 99.7753 75.1384 103.556 63.5823C107.337 52.0261 101.033 39.5931 89.4774 35.8125Z" fill="#FFE1C8"/>
<path d="M82.3445 57.2334C78.9186 41.7813 81.5349 28.0591 76.1414 29.2548C60.6893 32.6807 50.94 47.9843 54.3659 63.4365C57.7918 78.8886 73.0954 88.6378 88.5475 85.212C96.9748 83.3436 85.7703 72.6855 82.3445 57.2334Z" fill="white" fill-opacity="0.84"/>
<path d="M91.7425 84.0517C103.014 80.0727 111.091 69.3278 111.091 56.6945C111.091 40.675 98.1046 27.6885 82.0851 27.6885C68.2089 27.6885 56.6085 37.4321 53.7527 50.451" stroke="#002481" stroke-width="3.125" stroke-miterlimit="10" stroke-linecap="round" stroke-linejoin="round"/>
<path d="M56.4881 108.463C72.5077 108.463 85.4941 95.4768 85.4941 79.4572C85.4941 63.4376 72.5077 50.4512 56.4881 50.4512C40.4685 50.4512 27.4821 63.4376 27.4821 79.4572C27.4821 95.4768 40.4685 108.463 56.4881 108.463Z" fill="#3DA2FF"/>
<path d="M43.7885 63.2847H32.4063C29.2971 67.9054 27.4821 73.4692 27.4821 79.4572C27.4821 81.5279 27.7007 83.5473 28.1132 85.495H43.7885C45.0829 85.495 46.1322 84.4457 46.1322 83.1512V65.6284C46.1322 64.3342 45.0829 63.2847 43.7885 63.2847Z" fill="#4D4DFF"/>
<path d="M78.2213 82.985C80.1691 70.9832 72.0186 59.6749 60.0168 57.727C48.0149 55.7792 36.7064 63.9295 34.7586 75.9313C32.8108 87.933 40.9613 99.2414 52.9631 101.189C64.965 103.137 76.2735 94.9867 78.2213 82.985Z" fill="#77BEFF"/>
<path d="M34.4729 79.4572C34.4729 81.5502 34.7668 83.5757 35.3148 85.495H43.7884C45.0828 85.495 46.1321 84.4457 46.1321 83.1512V65.6284C46.1321 64.334 45.0828 63.2847 43.7884 63.2847H41.5681C37.2083 67.3098 34.4729 73.0698 34.4729 79.4572Z" fill="#3DA2FF"/>
<path d="M56.4808 78.7284C70.8673 73.091 84.4975 73.5424 82.5298 68.5209C76.8924 54.1345 60.6598 47.042 46.2733 52.6795C31.8869 58.3169 24.7944 74.5495 30.4319 88.9359C33.5064 96.782 42.0944 84.3659 56.4808 78.7284Z" fill="white" fill-opacity="0.84"/>
<path d="M37.3767 79.4572C37.3767 81.568 37.7241 83.5965 38.3559 85.4949H43.7887C45.0832 85.4949 46.1325 84.4456 46.1325 83.1512V65.6284C46.1325 64.9489 45.8416 64.3388 45.3794 63.9106C40.5361 67.3778 37.3767 73.0468 37.3767 79.4572Z" fill="#D8D8FF"/>
<path d="M56.4881 108.463C72.5077 108.463 85.4941 95.4768 85.4941 79.4572C85.4941 63.4376 72.5077 50.4512 56.4881 50.4512C40.4685 50.4512 27.4821 63.4376 27.4821 79.4572C27.4821 95.4768 40.4685 108.463 56.4881 108.463Z" stroke="#002481" stroke-width="3.125" stroke-miterlimit="10" stroke-linecap="round" stroke-linejoin="round"/>
<path d="M43.7884 79.8702H12.264C10.9696 79.8702 9.92029 78.8209 9.92029 77.5265V60.0037C9.92029 58.7092 10.9696 57.6599 12.264 57.6599H43.7884C45.0829 57.6599 46.1322 58.7092 46.1322 60.0037V77.5265C46.1322 78.8207 45.0829 79.8702 43.7884 79.8702Z" fill="#3DA2FF"/>
<path d="M43.7884 79.8702H12.264C10.9696 79.8702 9.92029 78.8209 9.92029 77.5265V60.0037C9.92029 58.7092 10.9696 57.6599 12.264 57.6599H43.7884C45.0829 57.6599 46.1322 58.7092 46.1322 60.0037V77.5265C46.1322 78.8207 45.0829 79.8702 43.7884 79.8702Z" stroke="#002481" stroke-width="3.125" stroke-miterlimit="10" stroke-linecap="round" stroke-linejoin="round"/>
<path d="M26.3945 69.8457H17.3516C16.7045 69.8457 16.1797 69.3209 16.1797 68.6738C16.1797 68.0267 16.7045 67.502 17.3516 67.502H26.3945C27.0416 67.502 27.5663 68.0267 27.5663 68.6738C27.5663 69.3209 27.0416 69.8457 26.3945 69.8457Z" fill="white"/>
<path d="M26.3945 74.6228H17.3516C16.7045 74.6228 16.1797 74.098 16.1797 73.4509C16.1797 72.8038 16.7045 72.2791 17.3516 72.2791H26.3945C27.0416 72.2791 27.5663 72.8038 27.5663 73.4509C27.5663 74.098 27.0416 74.6228 26.3945 74.6228Z" fill="white"/>
<path d="M40.5517 69.7595H31.5088C30.8617 69.7595 30.3369 69.2348 30.3369 68.5876C30.3369 67.9405 30.8617 67.4158 31.5088 67.4158H40.5517C41.1988 67.4158 41.7236 67.9405 41.7236 68.5876C41.7236 69.2348 41.1988 69.7595 40.5517 69.7595Z" fill="white"/>
<path d="M40.5518 74.5366H31.5089C30.8618 74.5366 30.337 74.0119 30.337 73.3647C30.337 72.7176 30.8618 72.1929 31.5089 72.1929H40.5518C41.1989 72.1929 41.7237 72.7176 41.7237 73.3647C41.7237 74.0119 41.1989 74.5366 40.5518 74.5366Z" fill="white"/>
<path d="M17.3516 65.0403C17.9988 65.0403 18.5234 64.5156 18.5234 63.8684C18.5234 63.2212 17.9988 62.6965 17.3516 62.6965C16.7044 62.6965 16.1797 63.2212 16.1797 63.8684C16.1797 64.5156 16.7044 65.0403 17.3516 65.0403Z" fill="white"/>
<path d="M20.7012 65.0403C21.3484 65.0403 21.873 64.5156 21.873 63.8684C21.873 63.2212 21.3484 62.6965 20.7012 62.6965C20.054 62.6965 19.5293 63.2212 19.5293 63.8684C19.5293 64.5156 20.054 65.0403 20.7012 65.0403Z" fill="white"/>
<path d="M95.3276 103.458C96.6868 103.458 97.7886 102.356 97.7886 100.997C97.7886 99.6382 96.6868 98.5364 95.3276 98.5364C93.9685 98.5364 92.8667 99.6382 92.8667 100.997C92.8667 102.356 93.9685 103.458 95.3276 103.458Z" stroke="#FF9C33" stroke-width="3.125" stroke-miterlimit="10" stroke-linecap="round" stroke-linejoin="round"/>
<path d="M97.7886 23.8706C99.1477 23.8706 100.25 22.7688 100.25 21.4097C100.25 20.0505 99.1477 18.9487 97.7886 18.9487C96.4294 18.9487 95.3276 20.0505 95.3276 21.4097C95.3276 22.7688 96.4294 23.8706 97.7886 23.8706Z" stroke="#E60058" stroke-width="3.125" stroke-miterlimit="10" stroke-linecap="round" stroke-linejoin="round"/>
<path d="M15.2938 16.5146C16.653 16.5146 17.7548 15.4128 17.7548 14.0537C17.7548 12.6946 16.653 11.5928 15.2938 11.5928C13.9347 11.5928 12.8329 12.6946 12.8329 14.0537C12.8329 15.4128 13.9347 16.5146 15.2938 16.5146Z" stroke="#6C6CFF" stroke-width="3.125" stroke-miterlimit="10" stroke-linecap="round" stroke-linejoin="round"/>
<path d="M85.4943 106.011L86.1029 107.885H88.0724L86.4791 109.042L87.0878 110.915L85.4943 109.758L83.901 110.915L84.5097 109.042L82.9161 107.885H84.8858L85.4943 106.011Z" stroke="#6C6CFF" stroke-width="3.125" stroke-miterlimit="10" stroke-linecap="round" stroke-linejoin="round"/>
<path d="M17.8719 92.4497L18.4806 94.3228H20.4501L18.8568 95.4804L19.4652 97.3535L17.8719 96.196L16.2787 97.3535L16.8871 95.4804L15.2938 94.3228H17.2633L17.8719 92.4497Z" stroke="#E60058" stroke-width="3.125" stroke-miterlimit="10" stroke-linecap="round" stroke-linejoin="round"/>
</g>
<defs>
<linearGradient id="paint0_linear_294_5877" x1="26.0367" y1="97.3929" x2="100.671" y2="22.759" gradientUnits="userSpaceOnUse">
<stop stop-color="#FFF2ED" stop-opacity="0"/>
<stop offset="0.2938" stop-color="#FFE9DD" stop-opacity="0.3731"/>
<stop offset="0.7874" stop-color="#FFD5BA"/>
</linearGradient>
<clipPath id="clip0_294_5877">
<rect width="120" height="120" fill="white"/>
</clipPath>
</defs>
</svg>
