<svg width="48" height="32" viewBox="0 0 48 32" fill="none" xmlns="http://www.w3.org/2000/svg">
<rect x="0.5" y="0.5" width="47" height="31" rx="15.5" fill="white"/>
<path d="M20.25 9.25C20.8467 9.25 21.419 9.48705 21.841 9.90901C22.2629 10.331 22.5 10.9033 22.5 11.5V20.5C22.5 21.0967 22.2629 21.669 21.841 22.091C21.419 22.5129 20.8467 22.75 20.25 22.75C19.6533 22.75 19.081 22.5129 18.659 22.091C18.2371 21.669 18 21.0967 18 20.5V11.5C18 10.9033 18.2371 10.331 18.659 9.90901C19.081 9.48705 19.6533 9.25 20.25 9.25ZM27.75 9.25C28.3467 9.25 28.919 9.48705 29.341 9.90901C29.7629 10.331 30 10.9033 30 11.5V20.5C30 21.0967 29.7629 21.669 29.341 22.091C28.919 22.5129 28.3467 22.75 27.75 22.75C27.1533 22.75 26.581 22.5129 26.159 22.091C25.7371 21.669 25.5 21.0967 25.5 20.5V11.5C25.5 10.9033 25.7371 10.331 26.159 9.90901C26.581 9.48705 27.1533 9.25 27.75 9.25Z" fill="#E60058"/>
<rect x="0.5" y="0.5" width="47" height="31" rx="15.5" stroke="#E60058"/>
</svg>
